<?xml version="1.0" encoding="utf-8"?>
<!-- Generator: Adobe Illustrator 16.0.0, SVG Export Plug-In . SVG Version: 6.00 Build 0)  -->
<!DOCTYPE svg PUBLIC "-//W3C//DTD SVG 1.1//EN" "http://www.w3.org/Graphics/SVG/1.1/DTD/svg11.dtd">
<svg version="1.1" id="Layer_1" xmlns="http://www.w3.org/2000/svg" xmlns:xlink="http://www.w3.org/1999/xlink" x="0px" y="0px"
	 width="256px" height="256px" viewBox="0 0 256 256" enable-background="new 0 0 256 256" xml:space="preserve">
<g>
	<path fill="#F05134" d="M130.021,254.953C17.664,254.953,16.302,128,78.95,76.449c0,0-6.81,46.166,16.343,60.784
		c0,0-8.853-94.638,76.266-136.185c0,0-9.533,76.94,3.404,93.868c0,0,10.896-20.775,33.367-28.469c0,0-12.938,48.474,2.724,71.556
		C226.717,161.084,226.036,254.953,130.021,254.953z"/>
	<path fill="#F78C23" d="M126.039,240.264c-65.339,0-89.276-77.641-61.458-123.105c0,0,5.823,38.471,40.11,39.17
		c0,0-5.823-80.438,38.168-108.417c0,0,0,48.963,26.525,73.444c0,0,5.174-17.486,19.407-23.782c0,0-5.175,16.788,3.881,36.373
		C201.729,153.531,223.077,240.264,126.039,240.264z"/>
	<path fill="#FED937" d="M131.189,229.771c-58.503,0-57.321-53.031-53.185-68.365c0,0,20.683,19.807,41.366,15.334
		c0,0-5.318-46.004,16.547-79.866c0,0,13.001,44.726,34.274,54.946c0,0,1.773-10.221,7.091-14.693c0,0,1.182,14.055,6.5,24.918
		C189.103,172.906,204.468,229.771,131.189,229.771z"/>
	<path fill="#FDF499" d="M142.905,220.625c-31.715,0-31.075-28.748-28.833-37.061c0,0,11.212,10.736,22.425,8.313
		c0,0-2.883-24.939,8.97-43.297c0,0,7.048,24.246,18.58,29.787c0,0,0.961-5.541,3.845-7.967c0,0,0.642,7.621,3.524,13.51
		S182.629,220.625,142.905,220.625z"/>
</g>
</svg>
