<?xml version="1.0" encoding="utf-8"?>
<!-- Generator: Adobe Illustrator 16.0.0, SVG Export Plug-In . SVG Version: 6.00 Build 0)  -->
<!DOCTYPE svg PUBLIC "-//W3C//DTD SVG 1.1//EN" "http://www.w3.org/Graphics/SVG/1.1/DTD/svg11.dtd">
<svg version="1.1" id="Layer_1" xmlns="http://www.w3.org/2000/svg" xmlns:xlink="http://www.w3.org/1999/xlink" x="0px" y="0px"
	 width="256px" height="256px" viewBox="0 0 256 256" enable-background="new 0 0 256 256" xml:space="preserve">
<g>
	<path fill="#F05134" d="M121.443,255.436c-89.195,0-114.641-120.432,10.423-254.759c0,0,3.474,35.898,38.214,82.217
		C204.818,129.214,248.823,255.436,121.443,255.436z"/>
	<path fill="#F78C23" d="M122.31,238.401c-65.51,0-84.199-88.452,7.655-187.109c0,0,2.551,26.365,28.064,60.385
		C183.546,145.697,215.865,238.401,122.31,238.401z"/>
	<path fill="#FFDA34" d="M120.521,226.341c-43.483,0-55.888-58.711,5.081-124.196c0,0,1.693,17.501,18.629,40.081
		C161.167,164.808,182.619,226.341,120.521,226.341z"/>
	<path fill="#FFDA34" d="M120.521,226.341c-43.483,0-55.888-58.711,5.081-124.196c0,0,1.693,17.501,18.629,40.081
		C161.167,164.808,182.619,226.341,120.521,226.341z"/>
	<path fill="#FDF499" d="M121.484,213.832c-26.11,0-33.559-35.255,3.051-74.576c0,0,1.017,10.508,11.187,24.067
		C145.892,176.883,158.773,213.832,121.484,213.832z"/>
</g>
</svg>
