<?xml version="1.0" encoding="utf-8"?>
<!-- Generator: Adobe Illustrator 16.0.0, SVG Export Plug-In . SVG Version: 6.00 Build 0)  -->
<!DOCTYPE svg PUBLIC "-//W3C//DTD SVG 1.1//EN" "http://www.w3.org/Graphics/SVG/1.1/DTD/svg11.dtd">
<svg version="1.1" id="Layer_1" xmlns="http://www.w3.org/2000/svg" xmlns:xlink="http://www.w3.org/1999/xlink" x="0px" y="0px"
	 width="256px" height="256px" viewBox="0 0 256 256" enable-background="new 0 0 256 256" xml:space="preserve">
<g>
	<path fill="#F05134" d="M134.105,255.355C43.257,260.479,9.203,154.19,66.285,75.633c0,0,0,26.562,11.869,31.649
		c11.868,5.086,15.824-16.391,7.346-38.431C77.023,46.809,96.239,11.204,117.15,0.466c0,0-6.782,43.518,6.783,49.734
		c13.563,6.217,9.607-22.607,9.607-22.607s26.563,23.172,27.693,58.212c1.13,35.042,25.433,25.433,24.867-2.825
		C186.101,82.98,284.439,246.878,134.105,255.355z"/>
	<path fill="#F78C23" d="M135.801,242.356c-71.717,9.486-96.078-70.081-72.907-116.424c0,0,12.434,18.65,29.389,7.348
		c16.955-11.305,19.216-31.086,11.304-54.822c-7.913-23.737,2.26-35.605,2.26-35.605s2.261,32.78,18.65,28.823
		c16.389-3.956,15.259-12.433,15.259-12.433s6.782,12.433,9.043,38.431c2.26,25.998,20.345,41.823,32.778,23.173
		C181.578,120.847,242.617,228.227,135.801,242.356z"/>
	<path fill="#FED937" d="M143.712,229.923c-44.808,17.208-80.252-41.257-76.861-72.341c0,0,7.347,9.042,27.693,0.565
		c20.346-8.478,29.389-31.085,28.258-49.17c-1.13-18.085,6.782-25.997,6.782-25.997s6.782,70.645,24.867,71.775
		s21.476-15.259,21.476-15.259S214.358,202.796,143.712,229.923z"/>
	<path fill="#FDF499" d="M138.687,222.247c-27.81,10.3-49.807-24.695-47.702-43.303c0,0,4.56,5.413,17.187,0.338
		c12.626-5.074,18.238-18.605,17.538-29.433c-0.702-10.825,4.208-15.562,4.208-15.562s4.209,42.288,15.433,42.965
		c11.225,0.677,13.329-9.134,13.329-9.134S182.53,206.009,138.687,222.247z"/>
</g>
</svg>
