<?xml version="1.0" encoding="utf-8"?>
<!-- Generator: Adobe Illustrator 16.0.0, SVG Export Plug-In . SVG Version: 6.00 Build 0)  -->
<!DOCTYPE svg PUBLIC "-//W3C//DTD SVG 1.1//EN" "http://www.w3.org/Graphics/SVG/1.1/DTD/svg11.dtd">
<svg version="1.1" id="Layer_1" xmlns="http://www.w3.org/2000/svg" xmlns:xlink="http://www.w3.org/1999/xlink" x="0px" y="0px"
	 width="484px" height="431px" viewBox="0 0 484 431" enable-background="new 0 0 484 431" xml:space="preserve">
<g>
	<g>
		<path fill-rule="evenodd" clip-rule="evenodd" d="M61,432c-1.333,0-2.667,0-4,0c-0.021-6.007-0.042-12.014-0.063-18.02
			c0.842-3.306-1.427-2.979-3.455-2.982c-10.141-0.019-20.282-0.05-30.423-0.076c-0.07-2.163-0.2-4.326-0.2-6.488
			c-0.01-124.795-0.009-249.59-0.008-374.384c0-1.167,0.101-2.341-0.003-3.497c-0.314-3.493,1.28-4.663,4.691-4.599
			c8.328,0.157,16.661,0.074,24.991,0.015c2.048-0.015,4.691,0.569,4.439-2.987C57.756,12.679,56.145,6.245,58,0
			c0.667,0,1.333,0,2,0c0.314,0.34,0.627,0.681,0.941,1.021C60.966,3.016,61.048,5.012,61,7.004
			c-0.056,2.338,1.391,2.23,2.989,1.968C66.66,8.98,69.33,8.99,72,8.999C76.333,5.378,80.667,5.229,85,9
			c1.625,0.055,3.262,0.002,4.872,0.185c4.162,0.473,5.783-1.194,4.693-5.311c0.074-0.993,0.147-1.987,0.221-2.981l0.1-0.123
			c2.683-0.603,3.589,0.666,3.561,3.193c-0.055,4.974,0.062,9.951-0.017,14.925c-0.04,2.546,0.711,3.864,3.481,2.99
			c0.833,0.031,1.665,0.088,2.497,0.088c91.957,0.007,183.913,0.01,275.87,0.009c0.999,0,1.998-0.035,2.996-0.072
			c1.979-0.074,2.513-1.299,2.394-3.033c0.022-4.979,0.046-9.958,0.069-14.937c-0.222-0.951-0.443-1.902-0.665-2.854l0.008-0.007
			c3.883-1.35,4.6,0.721,4.384,3.967c-0.162,2.424-0.28,4.969,3.513,3.909c2.36-0.02,4.72-0.038,7.079-0.057
			c1.789,0.683,2.498-0.556,3.204-1.801l-0.021,0.071c4.245-3.459,7.213,0.812,10.727,1.773c1.492,0.076,2.997,0.055,4.475,0.245
			c4.192,0.542,5.427-1.371,4.473-5.206C423.524,2.718,422.642,1.052,424,0c0.667,0,1.333,0,2,0
			c0.313,0.342,0.625,0.683,0.937,1.024c0.02,5.988,0.093,11.977,0.03,17.963c-0.022,2.19,0.353,3.66,3.016,2.991
			c11.585,0.071,23.169,0.143,34.754,0.214c0.028,2.164,0.082,4.329,0.082,6.493c0.004,110.925,0.004,221.85,0.004,332.774
			c0,14.823-0.165,29.649,0.102,44.468c0.078,4.29-1.326,5.277-5.357,5.154c-9.485-0.289-18.99,0.082-28.475-0.215
			c-3.437-0.108-4.275,0.957-4.157,4.146c0.21,5.655,0.063,11.323,0.065,16.986c-1.333,0-2.667,0-4,0
			c-0.037-1.36-0.073-2.72-0.11-4.08c1.434-3.263,0.842-5.095-3.196-4.854c-3.384,0.203-6.738-0.511-9.474,2.814
			c-1.712,2.081-4.912,1.806-6.688-0.323c-3.659-4.387-8.438-2.747-12.402-1.98c-3.364,0.65-1.08,4.926-1.858,7.467
			c-0.097,0.316-0.181,0.638-0.271,0.956c-1,0-2,0-3,0c-0.115-1.378-0.231-2.756-0.347-4.133c-0.003-4.656-0.005-9.312-0.008-13.968
			c0.8-3.983-2.228-2.867-4.065-2.868c-93.146-0.059-186.294-0.055-279.44-0.158c-2.982-0.004-3.659,0.996-3.705,3.697
			C98.337,420.38,99.027,426.215,98,432c-1,0-2,0-3,0c-0.135-1.401-0.269-2.803-0.404-4.204c0.25-1.671,1.49-4.324-1.057-4.42
			c-3.682-0.14-7.979-2.154-11.056,1.976c-1.051,1.411-2.811,1.664-4.492,1.833c-1.032-0.498-2.41-0.729-3.04-1.54
			c-3.51-4.517-8.46-2.939-12.353-2.018c-3.339,0.791-1.038,5.161-1.612,7.877C60.954,431.661,60.994,431.834,61,432z
			 M410.903,417.027c0.4,1.118,0.983,2.052,2.286,2.257c1.626,0.105,3.266,0.11,4.874,0.335c4.555,0.636,5.971-1.393,4.935-5.619
			c0.654-2.634-0.76-3.058-2.981-3.049c-9.162,0.035-18.326,0.045-27.485-0.129c-2.539-0.048-3.43,1-3.034,3.213
			c0.381,2.126-1.81,6.065,3.314,5.24c2.748,0.451,5.499,0.484,8.255,0.071c2.933-2.339,5.937-4.344,9.841-2.075L410.903,417.027z
			 M72.064,419.309c4.293-3.495,8.583-3.705,12.869,0.011c1.455,0.094,2.92,0.113,4.364,0.295c4.468,0.563,6.483-1.11,5.376-5.739
			c0.664-2.771-1.036-2.894-3.08-2.891c-9.24,0.012-18.481,0.007-27.72-0.118c-2.135-0.029-3.404,0.729-2.781,2.777
			c0.597,1.964-2.428,5.854,2.7,5.649C66.548,419.743,69.306,419.755,72.064,419.309z M64.003,22.003
			c8.792-0.01,17.583-0.009,26.375-0.039c2.17-0.007,4.614,0.248,4.217-3.193c-0.189-1.921,1.903-5.172-0.908-5.471
			c-3.752-0.398-8.157-2.136-11.51,2.021c-1.736,2.153-4.942,2.586-6.665,0.443c-3.441-4.28-7.844-2.484-11.907-2.733
			c-3.621-0.222-2.634,2.737-2.576,4.642C61.088,19.571,59.594,22.946,64.003,22.003z M392.934,21.902
			c8.561,0.023,17.121,0.076,25.682,0.048c2.04-0.007,4.644,0.515,4.29-3.016c-0.093-1.957,2.096-5.173-0.588-5.585
			c-3.559-0.548-7.809-2.114-11.102,1.61c-1.986,2.247-5.113,3.087-7.05,0.755c-3.492-4.206-7.852-2.55-11.907-2.681
			c-4.215-0.136-2.558,3.379-2.839,5.527C389.087,21.106,389.681,22.982,392.934,21.902z M154.153,97.235
			c3.542-0.84,8.039,1.669,10.582-2.513c8.304-13.659,16.406-27.441,24.6-41.168c1.641-2.748,0.401-3.558-2.264-3.544
			c-3.331,0.019-6.677,0.188-9.988-0.063c-3.945-0.301-6.405,1.102-8.434,4.644c-6.451,11.271-13.323,22.301-19.881,33.512
			c-1.471,2.514-4.834,5.352-3.471,7.798C146.895,98.767,151.121,96.503,154.153,97.235z M324.913,49.873
			c-3.46,0.937-7.935-1.763-10.511,2.485c-8.29,13.669-16.423,27.433-24.62,41.158c-1.602,2.683-0.461,3.599,2.252,3.586
			c3.497-0.017,7.013-0.216,10.487,0.07c3.883,0.32,6.045-1.377,7.924-4.64c6.479-11.257,13.272-22.331,19.827-33.545
			c1.473-2.52,4.908-5.278,3.539-7.766C332.216,48.324,327.99,50.625,324.913,49.873z M262.229,97.246
			c3.495-0.931,8.032,1.761,10.577-2.407c8.335-13.65,16.442-27.438,24.631-41.178c1.537-2.579,0.603-3.663-2.213-3.646
			c-3.499,0.021-7.011,0.176-10.494-0.067c-3.599-0.25-5.821,1.097-7.646,4.249c-6.595,11.39-13.482,22.61-20.154,33.957
			c-1.482,2.521-4.896,5.33-3.578,7.747C254.918,98.776,259.165,96.494,262.229,97.246z M226.553,97.216
			c3.377-0.883,7.81,1.728,10.381-2.532c8.24-13.65,16.36-27.372,24.519-41.071c1.578-2.651,0.442-3.607-2.269-3.597
			c-3.488,0.015-6.993,0.203-10.46-0.074c-3.845-0.308-6.058,1.305-7.941,4.574c-6.465,11.225-13.27,22.254-19.766,33.461
			c-1.521,2.626-5.199,5.482-3.56,8.146C219.007,98.64,223.337,96.673,226.553,97.216z M190.176,97.237
			c3.533-0.855,8.033,1.683,10.577-2.501c8.307-13.657,16.41-27.438,24.603-41.166c1.62-2.715,0.444-3.575-2.251-3.559
			c-3.331,0.021-6.677,0.191-9.988-0.065c-3.955-0.307-6.404,1.121-8.424,4.658c-6.437,11.278-13.277,22.326-19.833,33.539
			c-1.473,2.518-4.9,5.303-3.541,7.758C182.905,98.77,187.139,96.501,190.176,97.237z M334.344,97.214
			c3.368-0.905,7.947,1.816,10.474-2.289c8.378-13.614,16.48-27.397,24.675-41.124c1.423-2.385,0.911-3.772-2.079-3.773
			c-3.497-0.001-7.014,0.206-10.487-0.089c-3.871-0.329-6.086,1.313-7.97,4.577c-6.496,11.247-13.322,22.303-19.821,33.548
			c-1.516,2.623-5.213,5.38-3.519,8.176C327.01,98.537,331.221,96.737,334.344,97.214z M145.292,49.995
			c-9.793,0.001-9.805-0.007-14.677,8.124c-5.293,8.833-10.659,17.624-15.791,26.551c-2.114,3.677-7.153,7.931-5.396,11.031
			c2.051,3.618,8.221,0.825,12.55,1.42c4.02,0.553,6.347-1.327,8.32-4.764c6.449-11.232,13.236-22.271,19.787-33.447
			c1.477-2.519,4.866-5.353,3.566-7.732C152.096,48.331,147.86,50.617,145.292,49.995z M72.319,49.822
			c-3.151,1.203-7.679-1.828-10.271,2.45C53.764,65.945,45.64,79.714,37.469,93.455c-1.603,2.695-0.299,3.614,2.33,3.628
			c3.331,0.017,6.68-0.196,9.987,0.089c4.032,0.348,6.379-1.332,8.364-4.782c6.394-11.113,13.158-22.012,19.603-33.097
			c1.546-2.658,5.135-5.582,3.747-8.19C80.036,48.352,75.684,50.576,72.319,49.822z M108.82,49.852
			c-3.587,1.025-8.191-1.835-10.913,2.692c-8.154,13.567-16.225,27.185-24.332,40.78c-1.471,2.467-0.828,3.742,2.09,3.755
			c3.499,0.015,7.014-0.18,10.494,0.091c3.865,0.3,6.048-1.377,7.936-4.646C100.593,81.27,107.406,70.197,114.003,59
			c1.494-2.535,4.858-5.409,3.66-7.755C116.148,48.281,111.881,50.676,108.82,49.852z M406.123,97.123
			c11.12-0.139,8.942,1.073,14.386-7.95c6.879-11.405,13.688-22.854,20.446-34.332c2.384-4.048,1.953-4.706-2.778-4.825
			c-2.829-0.071-5.681,0.194-8.487-0.067c-4.161-0.389-6.709,1.206-8.813,4.886c-6.36,11.129-13.156,22.008-19.602,33.089
			c-1.536,2.642-5.223,5.498-3.668,8.164C399.127,98.693,403.472,96.618,406.123,97.123z M370.322,96.957
			c7.597,2.022,11.758-1.714,14.383-8.182c0.495-1.22,1.345-2.295,2.027-3.439c6.144-10.3,12.255-20.619,18.448-30.889
			c1.89-3.133,1.297-4.558-2.491-4.456c-3.163,0.085-6.354,0.253-9.489-0.054c-4.068-0.399-6.39,1.368-8.355,4.784
			c-6.397,11.114-13.118,22.042-19.551,33.138c-1.539,2.654-5.197,5.512-3.728,8.168C363.065,98.736,367.409,96.568,370.322,96.957z
			 M459.982,52.666c-0.464-0.166-0.927-0.332-1.391-0.497c-8.372,14.091-16.777,28.162-25.08,42.294
			c-1.249,2.126,0.46,2.591,2.124,2.604c4.488,0.035,8.977,0.011,13.466-0.027c1.175-0.01,2.43-0.143,3.149-1.195
			c2.993-4.376,7.129-8.588,7.523-13.853C460.503,72.266,459.982,62.446,459.982,52.666z M27.194,81.185
			c0.438,0.128,0.875,0.257,1.313,0.386c5.587-9.419,11.178-18.836,16.759-28.258c1.439-2.43,0.417-3.316-2.083-3.299
			c-4.163,0.028-8.325,0.033-12.488,0.032c-2.213,0-3.483,1.037-3.49,3.292C27.179,62.62,27.194,71.902,27.194,81.185z"/>
		<path fill-rule="evenodd" clip-rule="evenodd" fill="#596E73" d="M58,0c-1.855,6.245-0.244,12.679-1.032,18.981
			C46.974,19,36.98,19.012,26.987,19.042c-7.579,0.022-7.86,0.278-7.861,7.879c-0.008,126.423-0.007,252.847,0.001,379.27
			c0,2.319-0.224,4.685,0.938,6.852c1.965,1.139,4.139,0.923,6.265,0.927c10.202,0.02,20.404,0.011,30.606,0.012
			c0.021,6.006,0.042,12.013,0.063,18.02c-18.333,0-36.667,0-55,0c0.071-3.163,0.205-6.325,0.205-9.488
			C2.215,284.209,2.238,145.905,2.113,7.603C2.109,2.667,3.243,0.958,8.451,1.09c14.321,0.36,28.658,0.157,42.987,0.081
			C53.314,1.161,55.487,1.967,57,0C57.333,0,57.667,0,58,0z"/>
		<path fill-rule="evenodd" clip-rule="evenodd" fill="#3D494D" d="M485,1c0,142.167-0.018,284.333,0.094,426.5
			c0.003,3.749-0.837,4.654-4.595,4.603C463.669,431.867,446.833,432,430,432c0.087-1.262,0.173-2.523,0.26-3.785
			c15.156-0.079,30.315-0.295,45.471-0.154c4.762,0.045,6.842-1.6,6.325-6.371c-0.124-1.153-0.015-2.331-0.015-3.497
			c0.001-135.444,0.002-270.889-0.008-406.332c0-2.664-0.124-5.327-0.19-7.99c0.764-0.888,1.528-1.774,2.293-2.662
			C484.411,1.086,484.699,1.017,485,1z"/>
		<path fill-rule="evenodd" clip-rule="evenodd" fill="#6F888F" d="M430.26,428.215c-0.087,1.262-0.173,2.523-0.26,3.785
			c-1,0-2,0-3,0c-0.002-5.663,0.145-11.331-0.065-16.986c-0.118-3.189,0.721-4.255,4.157-4.146
			c9.484,0.297,18.989-0.074,28.475,0.215c4.031,0.123,5.436-0.864,5.357-5.154c-0.267-14.818-0.102-29.645-0.102-44.468
			c0-110.925,0-221.85-0.004-332.774c0-2.164-0.054-4.329-0.082-6.493c0.696-0.787,1.393-1.574,2.089-2.361
			c1.604,2.596,1.12,5.495,1.121,8.292c0.022,66.629,0.018,133.258,0.018,199.888c0,59.633,0.004,119.267-0.009,178.899
			c-0.001,6.826-0.266,7.073-7.005,7.097c-8.495,0.029-16.992,0.109-25.484-0.024c-3.779-0.06-5.621,1.333-5.402,5.244
			C430.23,422.217,430.201,425.219,430.26,428.215z"/>
		<path fill-rule="evenodd" clip-rule="evenodd" fill="#3B474B" d="M385.653,427.867c0.115,1.377,0.231,2.755,0.347,4.133
			c-94.667,0-189.333,0-284,0c0.014-1.318,0.029-2.638,0.043-3.956c84.718-0.015,169.436-0.026,254.152-0.051
			C366.015,427.99,375.834,427.911,385.653,427.867z"/>
		<path fill-rule="evenodd" clip-rule="evenodd" fill="#6B848A" d="M101.911,21.878c-2.77,0.874-3.521-0.444-3.481-2.99
			c0.079-4.974-0.039-9.951,0.017-14.925c0.028-2.527-0.877-3.796-3.561-3.192C94.713,0.482,94.751,0.226,95,0c2.333,0,4.667,0,7,0
			c2.186,1.827,4.797,1.004,7.201,1.005c91.957,0.06,183.913,0.063,275.87,0.074c0.222,0.951,0.443,1.902,0.665,2.854
			c-89.75,0.004-179.501-0.042-269.251,0.056c-16.162,0.018-14.571-2.818-14.383,15.112
			C102.039,20.026,101.975,20.952,101.911,21.878z"/>
		<path fill-rule="evenodd" clip-rule="evenodd" fill="#6F898F" d="M102.043,428.044c-0.014,1.318-0.029,2.638-0.043,3.956
			c-1.333,0-2.667,0-4,0c1.027-5.785,0.337-11.62,0.435-17.43c0.045-2.701,0.723-3.701,3.705-3.697
			c93.146,0.104,186.294,0.1,279.44,0.158c1.838,0.001,4.865-1.115,4.065,2.868c-2.995,0.038-5.99,0.107-8.985,0.107
			c-87.049,0.006-174.098-0.035-261.146,0.043C100.505,414.063,101.906,411.56,102.043,428.044z"/>
		<path fill-rule="evenodd" clip-rule="evenodd" fill="#B7C4C7" d="M57,0c-1.513,1.967-3.686,1.161-5.562,1.171
			C37.109,1.247,22.772,1.45,8.451,1.09C3.243,0.958,2.109,2.667,2.113,7.603c0.125,138.303,0.102,276.606,0.091,414.909
			c0,3.163-0.133,6.325-0.205,9.488c-2.065-0.898-0.938-2.7-0.939-3.995C0.988,381.553,1,335.1,1,288.647
			C1,193.911,1.029,99.175,0.896,4.438C0.891,0.56,1.903-0.141,5.554-0.096C22.7,0.119,39.851,0,57,0z"/>
		<path fill-rule="evenodd" clip-rule="evenodd" fill="#B7C4C7" d="M385.071,1.079c-91.957-0.012-183.913-0.015-275.87-0.074
			C106.797,1.004,104.186,1.827,102,0c94.333,0,188.667,0,283,0c0.026,0.357,0.053,0.715,0.079,1.072L385.071,1.079z"/>
		<path fill-rule="evenodd" clip-rule="evenodd" fill="#647B81" d="M389,432c0.09-0.318,0.174-0.64,0.271-0.956
			c0.778-2.541-1.506-6.816,1.858-7.467c3.964-0.767,8.743-2.406,12.402,1.98c1.776,2.129,4.977,2.404,6.688,0.323
			c2.735-3.325,6.09-2.611,9.474-2.814c4.038-0.241,4.63,1.591,3.196,4.854c-8.239-0.518-16.47,1.213-24.728-0.007
			c-2.878-0.426-5.427,0.224-5.162,4.087C391.667,432,390.333,432,389,432z"/>
		<path fill-rule="evenodd" clip-rule="evenodd" fill="#6B848A" d="M385.079,1.072C385.053,0.715,385.026,0.357,385,0
			c2.333,0,4.667,0,7,0c7.881,2.321,15.94,0.54,23.905,0.978C418.253,1.107,420.849,1.805,423,0c0.333,0,0.667,0,1,0
			c-1.358,1.052-0.476,2.718-1.089,3.975c-3.698,0-7.396,0-11.761,0c1.244,2.193,2.029,3.577,2.813,4.961
			c-3.514-0.962-6.481-5.232-10.727-1.773c-0.286-4.656-3.835-2.988-6.294-3.118c-3.368-0.177-4.01,2.159-3.968,4.904
			c-3.793,1.06-3.675-1.485-3.513-3.909C389.679,1.793,388.962-0.277,385.079,1.072z"/>
		<path fill-rule="evenodd" clip-rule="evenodd" fill="#3B474B" d="M94.596,427.796c0.135,1.401,0.269,2.803,0.404,4.204
			c-10,0-20,0-30,0c-0.64-3.105,1.045-4.174,3.77-4.131c3.073,0.05,6.143,0.246,9.214,0.379
			C83.521,428.098,89.059,427.946,94.596,427.796z"/>
		<path fill-rule="evenodd" clip-rule="evenodd" fill="#3B474B" d="M393,432c-0.265-3.863,2.284-4.513,5.162-4.087
			c8.258,1.22,16.488-0.511,24.728,0.007c0.037,1.36,0.073,2.72,0.11,4.08C413,432,403,432,393,432z"/>
		<path fill-rule="evenodd" clip-rule="evenodd" fill="#677F85" d="M77.984,428.248c-3.071-0.133-6.142-0.329-9.214-0.379
			c-2.725-0.043-4.409,1.025-3.77,4.131c-1.333,0-2.667,0-4,0c-0.006-0.166-0.046-0.339-0.013-0.496
			c0.574-2.716-1.727-7.086,1.612-7.877c3.892-0.922,8.842-2.499,12.353,2.018c0.63,0.812,2.008,1.042,3.04,1.54
			C77.989,427.539,77.986,427.894,77.984,428.248z"/>
		<path fill-rule="evenodd" clip-rule="evenodd" fill="#B7C4C7" d="M485,1c-0.301,0.017-0.589,0.086-0.864,0.208
			c-19.066-0.062-38.133-0.122-57.199-0.184C426.625,0.683,426.313,0.342,426,0c18.5,0,37-0.04,55.499,0.106
			C482.529,0.115,484.45-1.491,485,1z"/>
		<path fill-rule="evenodd" clip-rule="evenodd" fill="#B7C4C7" d="M95,0c-0.249,0.226-0.287,0.482-0.114,0.771
			c0-0.001-0.1,0.122-0.099,0.122C83.505,0.935,72.223,0.978,60.941,1.021C60.627,0.681,60.314,0.34,60,0C71.667,0,83.333,0,95,0z"
			/>
		<path fill-rule="evenodd" clip-rule="evenodd" fill="#B7C4C7" d="M423,0c-2.151,1.805-4.747,1.107-7.095,0.978
			C407.94,0.54,399.881,2.321,392,0C402.333,0,412.667,0,423,0z"/>
		<path fill-rule="evenodd" clip-rule="evenodd" fill="#566B70" d="M102.103,19.101c-0.188-17.931-1.779-15.095,14.383-15.112
			c89.75-0.098,179.501-0.052,269.251-0.056c-0.023,4.979-0.047,9.957-0.069,14.937c-3.161,0.057-6.321,0.161-9.481,0.162
			C284.824,19.062,193.464,19.08,102.103,19.101z"/>
		<path fill-rule="evenodd" clip-rule="evenodd" fill="#566B70" d="M102.043,428.044c-0.137-16.484-1.538-13.98,13.471-13.994
			c87.048-0.078,174.097-0.037,261.146-0.043c2.995,0,5.99-0.069,8.985-0.107c0.003,4.656,0.005,9.312,0.008,13.968
			c-9.819,0.044-19.639,0.123-29.458,0.126C271.479,428.018,186.761,428.029,102.043,428.044z"/>
		<path fill-rule="evenodd" clip-rule="evenodd" fill="#3B474B" d="M20.065,413.042c-1.162-2.167-0.938-4.532-0.938-6.852
			c-0.008-126.423-0.009-252.847-0.001-379.27c0-7.601,0.282-7.856,7.861-7.879c9.994-0.03,19.987-0.042,29.981-0.061
			c0.252,3.557-2.391,2.973-4.439,2.987c-8.331,0.06-16.664,0.143-24.991-0.015c-3.411-0.064-5.005,1.105-4.691,4.599
			c0.104,1.156,0.003,2.33,0.003,3.497c0,124.794-0.001,249.589,0.008,374.384c0,2.162,0.13,4.325,0.2,6.488
			C22.061,411.629,21.063,412.335,20.065,413.042z"/>
		<path fill-rule="evenodd" clip-rule="evenodd" fill="#323232" d="M154.153,97.235c-3.032-0.732-7.259,1.531-8.855-1.335
			c-1.363-2.446,2-5.284,3.471-7.798c6.558-11.211,13.43-22.241,19.881-33.512c2.028-3.542,4.488-4.944,8.434-4.644
			c3.312,0.252,6.657,0.082,9.988,0.063c2.665-0.014,3.904,0.796,2.264,3.544c-8.193,13.727-16.296,27.509-24.6,41.168
			C162.192,98.904,157.695,96.396,154.153,97.235z"/>
		<path fill-rule="evenodd" clip-rule="evenodd" fill="#323232" d="M324.913,49.873c3.077,0.752,7.303-1.549,8.898,1.35
			c1.369,2.487-2.066,5.246-3.539,7.766c-6.555,11.214-13.349,22.288-19.827,33.545c-1.879,3.263-4.041,4.96-7.924,4.64
			c-3.475-0.286-6.99-0.087-10.487-0.07c-2.713,0.013-3.854-0.903-2.252-3.586c8.197-13.726,16.33-27.489,24.62-41.158
			C316.979,48.11,321.453,50.81,324.913,49.873z"/>
		<path fill-rule="evenodd" clip-rule="evenodd" fill="#323232" d="M262.229,97.246c-3.063-0.752-7.311,1.53-8.878-1.346
			c-1.317-2.417,2.096-5.227,3.578-7.747c6.672-11.347,13.56-22.567,20.154-33.957c1.825-3.152,4.048-4.499,7.646-4.249
			c3.483,0.243,6.995,0.088,10.494,0.067c2.815-0.017,3.75,1.067,2.213,3.646c-8.188,13.739-16.296,27.527-24.631,41.178
			C270.261,99.007,265.724,96.315,262.229,97.246z"/>
		<path fill-rule="evenodd" clip-rule="evenodd" fill="#323232" d="M226.553,97.216c-3.216-0.543-7.546,1.424-9.096-1.093
			c-1.64-2.664,2.038-5.521,3.56-8.146c6.496-11.207,13.301-22.236,19.766-33.461c1.884-3.27,4.097-4.882,7.941-4.574
			c3.467,0.277,6.972,0.089,10.46,0.074c2.711-0.011,3.847,0.945,2.269,3.597c-8.158,13.699-16.278,27.421-24.519,41.071
			C234.362,98.943,229.93,96.333,226.553,97.216z"/>
		<path fill-rule="evenodd" clip-rule="evenodd" fill="#323232" d="M190.176,97.237c-3.037-0.736-7.271,1.532-8.857-1.336
			c-1.359-2.455,2.068-5.24,3.541-7.758c6.556-11.213,13.396-22.261,19.833-33.539c2.02-3.537,4.469-4.965,8.424-4.658
			c3.312,0.257,6.657,0.086,9.988,0.065c2.695-0.017,3.871,0.844,2.251,3.559c-8.192,13.728-16.296,27.509-24.603,41.166
			C198.209,98.92,193.709,96.382,190.176,97.237z"/>
		<path fill-rule="evenodd" clip-rule="evenodd" fill="#323232" d="M334.344,97.214c-3.123-0.477-7.334,1.323-8.728-0.975
			c-1.694-2.796,2.003-5.553,3.519-8.176c6.499-11.245,13.325-22.301,19.821-33.548c1.884-3.264,4.099-4.906,7.97-4.577
			c3.474,0.295,6.99,0.088,10.487,0.089c2.99,0.001,3.502,1.389,2.079,3.773c-8.194,13.727-16.297,27.51-24.675,41.124
			C342.291,99.03,337.712,96.309,334.344,97.214z"/>
		<path fill-rule="evenodd" clip-rule="evenodd" fill="#323232" d="M145.292,49.995c2.568,0.622,6.804-1.664,8.359,1.183
			c1.3,2.38-2.09,5.214-3.566,7.732c-6.551,11.176-13.338,22.215-19.787,33.447c-1.973,3.437-4.3,5.316-8.32,4.764
			c-4.329-0.595-10.499,2.198-12.55-1.42c-1.756-3.101,3.283-7.354,5.396-11.031c5.131-8.927,10.498-17.718,15.791-26.551
			C135.487,49.988,135.499,49.996,145.292,49.995z"/>
		<path fill-rule="evenodd" clip-rule="evenodd" fill="#323232" d="M72.319,49.822c3.365,0.754,7.717-1.471,9.181,1.28
			c1.389,2.608-2.201,5.532-3.747,8.19C71.309,70.378,64.544,81.276,58.151,92.39c-1.985,3.45-4.332,5.13-8.364,4.782
			c-3.307-0.285-6.657-0.072-9.987-0.089c-2.629-0.014-3.933-0.933-2.33-3.628c8.17-13.741,16.294-27.51,24.578-41.183
			C64.64,47.994,69.168,51.025,72.319,49.822z"/>
		<path fill-rule="evenodd" clip-rule="evenodd" fill="#323232" d="M108.82,49.852c3.061,0.824,7.328-1.57,8.843,1.394
			c1.199,2.346-2.166,5.22-3.66,7.755c-6.598,11.197-13.411,22.27-19.909,33.524c-1.887,3.269-4.07,4.945-7.936,4.646
			c-3.479-0.271-6.995-0.076-10.494-0.091c-2.918-0.013-3.561-1.288-2.09-3.755c8.107-13.596,16.178-27.213,24.332-40.78
			C100.629,48.017,105.233,50.877,108.82,49.852z"/>
		<path fill-rule="evenodd" clip-rule="evenodd" fill="#323232" d="M406.123,97.123c-2.651-0.505-6.996,1.57-8.516-1.036
			c-1.555-2.666,2.132-5.522,3.668-8.164c6.445-11.081,13.241-21.96,19.602-33.089c2.104-3.68,4.651-5.274,8.813-4.886
			c2.807,0.262,5.658-0.004,8.487,0.067c4.731,0.119,5.162,0.777,2.778,4.825c-6.759,11.478-13.567,22.927-20.446,34.332
			C415.065,98.196,417.243,96.984,406.123,97.123z"/>
		<path fill-rule="evenodd" clip-rule="evenodd" fill="#323232" d="M370.322,96.957c-2.913-0.389-7.257,1.779-8.756-0.93
			c-1.47-2.656,2.188-5.514,3.728-8.168c6.433-11.096,13.153-22.023,19.551-33.138c1.966-3.416,4.287-5.184,8.355-4.784
			c3.136,0.307,6.326,0.139,9.489,0.054c3.788-0.102,4.381,1.323,2.491,4.456c-6.193,10.27-12.305,20.589-18.448,30.889
			c-0.683,1.145-1.532,2.22-2.027,3.439C382.08,95.243,377.919,98.979,370.322,96.957z"/>
		<path fill-rule="evenodd" clip-rule="evenodd" fill="#3D4A4E" d="M102.103,19.101c91.361-0.021,182.722-0.039,274.083-0.069
			c3.16-0.001,6.32-0.105,9.481-0.162c0.119,1.734-0.415,2.959-2.394,3.033c-0.998,0.037-1.997,0.072-2.996,0.072
			c-91.957,0.001-183.913-0.002-275.87-0.009c-0.832,0-1.664-0.057-2.497-0.088C101.975,20.952,102.039,20.026,102.103,19.101z"/>
		<path fill-rule="evenodd" clip-rule="evenodd" fill="#323232" d="M459.982,52.666c0,9.78,0.521,19.6-0.208,29.325
			c-0.395,5.265-4.53,9.477-7.523,13.853c-0.72,1.053-1.975,1.186-3.149,1.195c-4.489,0.038-8.978,0.063-13.466,0.027
			c-1.664-0.013-3.373-0.478-2.124-2.604c8.303-14.132,16.708-28.203,25.08-42.294C459.056,52.334,459.519,52.5,459.982,52.666z"/>
		<path fill-rule="evenodd" clip-rule="evenodd" fill="#323232" d="M27.194,81.185c0-9.282-0.015-18.564,0.011-27.847
			c0.006-2.255,1.277-3.292,3.49-3.292c4.163,0.001,8.326-0.004,12.488-0.032c2.5-0.018,3.523,0.869,2.083,3.299
			c-5.581,9.422-11.171,18.839-16.759,28.258C28.069,81.441,27.632,81.313,27.194,81.185z"/>
		<path fill-rule="evenodd" clip-rule="evenodd" fill="#6F888F" d="M426.937,1.024c19.066,0.062,38.133,0.122,57.199,0.184
			c-0.765,0.888-1.529,1.774-2.293,2.662c-15.158,0.014-30.319,0.158-45.476-0.037c-4.807-0.063-6.737,1.703-6.327,6.438
			c0.259,2.98,0.195,5.988,0.276,8.984c-0.111,0.908-0.223,1.815-0.334,2.724c-2.663,0.669-3.038-0.801-3.016-2.991
			C427.029,13.001,426.956,7.013,426.937,1.024z"/>
		<path fill-rule="evenodd" clip-rule="evenodd" fill="#647B81" d="M392.934,21.902c-3.253,1.08-3.847-0.796-3.514-3.341
			c0.281-2.148-1.376-5.663,2.839-5.527c4.056,0.131,8.415-1.525,11.907,2.681c1.937,2.332,5.063,1.492,7.05-0.755
			c3.293-3.725,7.543-2.158,11.102-1.61c2.684,0.412,0.495,3.628,0.588,5.585c-8.227-0.01-16.454-0.047-24.682-0.01
			C395.968,18.935,393.381,18.58,392.934,21.902z"/>
		<path fill-rule="evenodd" clip-rule="evenodd" fill="#677F85" d="M64.003,22.003c-4.409,0.943-2.915-2.432-2.973-4.33
			c-0.058-1.904-1.045-4.863,2.576-4.642c4.063,0.249,8.466-1.547,11.907,2.733c1.723,2.143,4.928,1.71,6.665-0.443
			c3.353-4.157,7.758-2.42,11.51-2.021c2.811,0.299,0.719,3.55,0.908,5.471c-8.41,0.032-16.819,0.069-25.229,0.095
			C66.962,18.872,64.646,18.999,64.003,22.003z"/>
		<path fill-rule="evenodd" clip-rule="evenodd" fill="#6B848A" d="M392.812,419.275c-5.124,0.825-2.934-3.114-3.314-5.24
			c-0.396-2.213,0.495-3.261,3.034-3.213c9.159,0.174,18.323,0.164,27.485,0.129c2.222-0.009,3.636,0.415,2.981,3.049
			c-4.597,0.023-9.193,0.047-13.792,0.069c-1.158,0.001-2.314,0.003-3.471,0.005c-2.324,0.01-4.659,0.173-6.969-0.004
			C394.91,413.775,392.66,415.093,392.812,419.275z"/>
		<path fill-rule="evenodd" clip-rule="evenodd" fill="#718A91" d="M63.792,419.293c-5.127,0.205-2.103-3.686-2.7-5.649
			c-0.623-2.048,0.646-2.807,2.781-2.777c9.239,0.125,18.479,0.13,27.72,0.118c2.044-0.003,3.744,0.12,3.08,2.891
			c-4.836,0.067-9.671,0.135-14.508,0.201c-1.113,0-2.224,0-3.335,0c-2.269-0.003-4.555,0.172-6.803-0.049
			C66.028,413.635,63.813,415.099,63.792,419.293z"/>
		<path fill-rule="evenodd" clip-rule="evenodd" fill="#718A91" d="M20.065,413.042c0.998-0.707,1.996-1.413,2.994-2.12
			c10.141,0.026,20.282,0.058,30.423,0.076c2.028,0.004,4.297-0.323,3.455,2.982c-10.202-0.001-20.404,0.008-30.606-0.012
			C24.204,413.965,22.03,414.181,20.065,413.042z"/>
		<path fill-rule="evenodd" clip-rule="evenodd" fill="#3D4A4E" d="M429.982,21.979c0.111-0.908,0.223-1.815,0.334-2.725
			c5.441-0.072,10.89-0.326,16.325-0.169c6.729,0.195,13.511-0.899,20.184,0.746c-0.696,0.787-1.393,1.574-2.089,2.361
			C453.151,22.121,441.567,22.05,429.982,21.979z"/>
		<path fill-rule="evenodd" clip-rule="evenodd" fill="#718A91" d="M60.941,1.021c11.282-0.043,22.563-0.086,33.845-0.128
			c-0.074,0.994-0.148,1.988-0.222,2.981c-4.462-0.094-8.951,0.319-13.368-0.689c-1.801-0.001-3.599,0-5.397,0.001
			c-1.938,0.103-3.947,0.579-5.802,0.233c-4.715-0.88-6.318,1.202-6.008,5.553C62.391,9.234,60.945,9.342,61,7.004
			C61.048,5.012,60.966,3.016,60.941,1.021z"/>
		<path fill-rule="evenodd" clip-rule="evenodd" fill="#3D4A4E" d="M64.003,22.003c0.643-3.004,2.959-3.131,5.364-3.138
			c8.41-0.025,16.819-0.063,25.229-0.095c0.396,3.441-2.047,3.187-4.217,3.193C81.586,21.994,72.794,21.993,64.003,22.003z"/>
		<path fill-rule="evenodd" clip-rule="evenodd" fill="#3D4A4E" d="M392.934,21.902c0.447-3.322,3.034-2.968,5.29-2.978
			c8.228-0.037,16.455,0,24.682,0.01c0.354,3.53-2.25,3.009-4.29,3.016C410.055,21.979,401.494,21.926,392.934,21.902z"/>
		<path fill-rule="evenodd" clip-rule="evenodd" fill="#4F6267" d="M409.208,414.069c4.597-0.022,9.193-0.046,13.79-0.069
			c1.036,4.227-0.38,6.255-4.935,5.619c-1.608-0.225-3.248-0.229-4.874-0.335c-0.385-1.135-1.085-1.95-2.286-2.257
			c0,0,0.004,0.244,0.004,0.243C410.869,415.922,409.973,415.031,409.208,414.069z"/>
		<path fill-rule="evenodd" clip-rule="evenodd" fill="#647B81" d="M77.984,428.248c0.002-0.354,0.005-0.709,0.008-1.063
			c1.681-0.169,3.441-0.422,4.492-1.833c3.077-4.13,7.375-2.115,11.056-1.976c2.547,0.096,1.307,2.749,1.057,4.42
			C89.059,427.946,83.521,428.098,77.984,428.248z"/>
		<path fill-rule="evenodd" clip-rule="evenodd" fill="#4F6267" d="M80.167,414.077c4.835-0.067,9.671-0.135,14.507-0.202
			c1.107,4.629-0.908,6.302-5.376,5.739c-1.444-0.182-2.909-0.201-4.364-0.295C84.64,416.394,81.967,415.632,80.167,414.077z"/>
		<path fill-rule="evenodd" clip-rule="evenodd" fill="#566B70" d="M81.199,3.187c4.416,1.007,8.904,0.594,13.366,0.688
			c1.09,4.116-0.531,5.783-4.693,5.311C88.262,9.002,86.625,9.055,85,9C84.665,6.453,81.979,5.443,81.199,3.187z"/>
		<path fill-rule="evenodd" clip-rule="evenodd" fill="#4F6267" d="M63.792,419.293c0.021-4.194,2.236-5.658,6.235-5.266
			c2.248,0.221,4.534,0.046,6.804,0.049c-1.802,1.549-4.435,2.342-4.768,5.232C69.306,419.755,66.548,419.743,63.792,419.293z"/>
		<path fill-rule="evenodd" clip-rule="evenodd" fill="#4F6267" d="M392.812,419.275c-0.151-4.183,2.099-5.5,5.955-5.205
			c2.31,0.177,4.645,0.014,6.972,0.003c-2.02,1.347-4.514,2.274-4.672,5.273C398.311,419.76,395.56,419.727,392.812,419.275z"/>
		<path fill-rule="evenodd" clip-rule="evenodd" fill="#566B70" d="M63.99,8.972c-0.31-4.351,1.292-6.433,6.008-5.553
			c1.855,0.346,3.863-0.131,5.804-0.235C75.02,5.438,72.348,6.458,72,8.999C69.33,8.99,66.66,8.98,63.99,8.972z"/>
		<path fill-rule="evenodd" clip-rule="evenodd" fill="#566B70" d="M413.964,8.936c-0.784-1.384-1.569-2.768-2.813-4.961
			c4.364,0,8.063,0,11.761,0c0.954,3.835-0.28,5.748-4.473,5.206C416.961,8.99,415.456,9.012,413.964,8.936z"/>
		<path fill-rule="evenodd" clip-rule="evenodd" fill="#566B70" d="M392.976,8.948c-0.042-2.745,0.6-5.081,3.968-4.904
			c2.459,0.13,6.008-1.538,6.294,3.118c0,0,0.021-0.071,0.021-0.071c-1.359,0.083-2.369,0.785-3.203,1.801
			C397.695,8.91,395.336,8.929,392.976,8.948z"/>
		<path fill-rule="evenodd" clip-rule="evenodd" fill="#647B81" d="M72,8.999c0.348-2.541,3.02-3.562,3.802-5.815
			c1.796,0.001,3.594,0,5.395,0.001C81.979,5.443,84.665,6.453,85,9C80.667,5.229,76.333,5.378,72,8.999z"/>
		<path fill-rule="evenodd" clip-rule="evenodd" fill="#647B81" d="M72.064,419.309c0.333-2.891,2.965-3.684,4.768-5.232
			c1.11,0,2.221,0,3.333,0c1.802,1.556,4.475,2.317,4.768,5.243C80.646,415.604,76.357,415.813,72.064,419.309z"/>
		<path fill-rule="evenodd" clip-rule="evenodd" fill="#677F85" d="M401.066,419.347c0.158-2.999,2.652-3.927,4.672-5.273
			c1.153-0.001,2.31-0.003,3.468-0.004c0.767,0.962,1.663,1.853,1.701,3.201C407.003,415.003,403.999,417.008,401.066,419.347z"/>
		<path fill-rule="evenodd" clip-rule="evenodd" fill="#6B848A" d="M400.055,8.892c0.834-1.016,1.844-1.718,3.203-1.801
			C402.553,8.336,401.844,9.574,400.055,8.892z"/>
		<path fill-rule="evenodd" clip-rule="evenodd" fill="#677F85" d="M410.903,417.027c1.201,0.307,1.901,1.122,2.286,2.257
			C411.887,419.079,411.304,418.146,410.903,417.027z"/>
		<path fill-rule="evenodd" clip-rule="evenodd" fill="#566B70" d="M466.825,19.831c-6.673-1.646-13.455-0.551-20.184-0.746
			c-5.436-0.157-10.884,0.097-16.325,0.169c-0.081-2.995-0.018-6.003-0.276-8.983c-0.41-4.734,1.521-6.5,6.327-6.438
			c15.156,0.195,30.317,0.051,45.476,0.037c0.066,2.663,0.19,5.326,0.19,7.99c0.01,135.443,0.009,270.888,0.008,406.332
			c0,1.166-0.109,2.344,0.015,3.497c0.517,4.771-1.563,6.416-6.325,6.371c-15.155-0.141-30.314,0.075-45.471,0.154
			c-0.059-2.996-0.029-5.998-0.196-8.988c-0.219-3.911,1.623-5.304,5.402-5.244c8.492,0.134,16.989,0.054,25.484,0.024
			c6.739-0.023,7.004-0.271,7.005-7.097c0.013-59.633,0.009-119.267,0.009-178.899c0-66.63,0.005-133.259-0.018-199.888
			C467.945,25.326,468.43,22.427,466.825,19.831z"/>
	</g>
</g>
</svg>
