<?xml version="1.0" encoding="utf-8"?>
<!-- Generator: Adobe Illustrator 16.0.0, SVG Export Plug-In . SVG Version: 6.00 Build 0)  -->
<!DOCTYPE svg PUBLIC "-//W3C//DTD SVG 1.1//EN" "http://www.w3.org/Graphics/SVG/1.1/DTD/svg11.dtd">
<svg version="1.1" id="Layer_1" xmlns="http://www.w3.org/2000/svg" xmlns:xlink="http://www.w3.org/1999/xlink" x="0px" y="0px"
	 width="430px" height="1080px" viewBox="0 0 430 1080" enable-background="new 0 0 430 1080" xml:space="preserve">
<g>
	<path fill-rule="evenodd" clip-rule="evenodd" fill="#0087D0" d="M-2.547,1084.412c0-135.928,0-271.855,0-407.783
		c2.864,0.078,5.32-1.218,7.306-2.956c8.989-7.87,15.762-17.229,18.853-28.993c2.908-11.067,2.698-22.491,3.99-33.741
		c0.964-8.395,3.26-16.043,9.679-21.95c0.957-0.881,1.875-2.294,3.381-1.578c1.784,0.85,0.604,2.309,0.288,3.502
		c-0.599,2.262-1.308,4.495-1.897,6.76c-0.292,1.121-0.647,2.402,0.768,3.061c1.082,0.503,1.958-0.191,2.659-0.914
		c4.193-4.313,8.862-8.168,12.136-13.35c11.421-18.077,10.125-37.931,8.164-57.866c-0.239-2.436-2.142-2.267-3.797-1.328
		c-1.298,0.737-2.474,1.711-3.635,2.665c-2.991,2.455-4.938,1.173-6.169-1.837c-0.687-1.679-1.004-3.524-1.37-5.317
		c-2.003-9.816-1.176-19.669,0.15-29.433c0.735-5.419,1.284-10.972,3.438-16.122c0.648-1.55,1.408-3.386,3.24-3.514
		c2.21-0.154,2.976,1.917,3.674,3.588c0.9,2.155,1.647,4.364,1.613,6.792c-0.018,1.227-0.692,3.131,0.949,3.523
		c1.938,0.463,2.15-1.722,2.821-2.929c2.587-4.661,3.635-9.774,3.127-14.999c-1.052-10.839-3.207-21.493-7.145-31.679
		c-1.929-4.992-3.51-10.251-7.169-14.482c-2.521,2.243-1.084,5.309-2.364,8.293c-0.939-1.487-1.558-2.252-1.949-3.119
		c-5.181-11.488-12.393-20.981-24.5-26.021c-3.521-1.465-4.768-4.848-5.513-8.489c-0.409-1.996-0.574-3.736,1.123-4.978
		c1.623-1.187,3.212-0.113,4.672,0.683c2.663,1.452,4.798,3.963,8.31,4.565c-3.396-11.33-20.4-21.812-34.832-21.912
		c0-79.543,0-159.086,0-238.629c7.882-0.042,15.893,0.808,23.62-0.309c17.014-2.458,33.912-5.81,50.612-9.951
		c11.354-2.815,22.871-5.151,33.712-9.779c0.935-0.399,2.165-0.617,2.244-1.728c0.117-1.635-1.541-1.619-2.536-1.859
		c-3.894-0.938-7.859-1.578-11.747-2.534c-7.19-1.768-8.34-5.696-2.91-10.884c10.866-10.38,23.163-15.902,38.331-10.001
		c9.181,3.572,16.803,1.548,23.624-5.575c5.051-5.276,11.466-8.79,18.649-10.36c5.005-1.093,10.206-1.226,13.813,3.417
		c3.088,3.976,2.38,9.668-1.539,14.898c-2.768,3.695-6.455,6.281-10.521,8.386c-1.153,0.597-2.788,1.257-2.312,2.827
		c0.467,1.542,2.226,1.27,3.52,1.184c4.829-0.321,9.698-0.439,14.467-1.182c16.863-2.627,32.657-8.357,47.475-16.836
		c8.389-4.801,15.652-10.866,21.409-18.638c0.795-1.074,2.253-2.62,0.967-4.007c-1.107-1.194-2.809-0.486-4.257,0.033
		c-5.521,1.974-10.538,5.16-16.246,6.697c-1.629,0.438-3.273,1.298-4.728-0.081c-1.567-1.485-1.137-3.38-0.548-5.173
		c3.388-10.315,10.836-16.238,20.988-19.028c9.873-2.714,20.093-3.289,30.216-4.071c15.607-1.206,24.188-7.894,26.569-22.344
		c1.036-6.281,0.268-12.678-0.693-18.981c51.644,0.014,103.286,0.028,154.93,0.042c-1.383,4.404-1.057,8.952-0.875,13.433
		c0.365,8.994,3.983,16.515,11.353,21.84c9.868,7.13,19.905,14.026,29.87,21.023c0.741,0.903,1.412,1.876,2.231,2.698
		c3.141,3.15,5.467,6.781,6.543,11.118c0.397,1.602,0.937,3.542-0.527,4.719c-1.399,1.127-2.943-0.158-4.125-0.936
		c-3.208-2.107-6.188-4.566-9.428-6.616c-2.354-1.488-4.488-6.011-7.098-3.747c-2.32,2.013,0.417,5.945,1.81,8.718
		c6.387,12.709,17.467,20.402,29.382,27.194c7.398,4.217,15.17,7.874,21.506,13.75c8.366,7.76,12.417,18.158,17.072,28.166
		c1.988,4.276,3.624,8.73,7.807,12.323c0.333-2.432,0.114-4.029-0.138-5.706c-0.692-4.611-1.835-9.184-1.585-13.905
		c0.32-6.11,4.073-8.733,10.083-7.532c4.947,0.989,8.609,3.952,11.482,7.569c7.669,9.653,11.94,20.889,13.364,33.081
		c0.374,3.211-0.025,7.214-3.015,9.126c-2.893,1.851-6.352,1.189-9.414-0.928c-2.468-1.707-5.156-3.131-7.858-4.456
		c-1.527-0.749-3.337-2.812-4.904-1.083c-1.494,1.649,0.533,3.319,1.412,4.847c8.057,13.993,19.229,25.237,31.518,35.449
		c9.2,7.644,19.393,13.729,30.336,18.554c1.233,0.542,2.775,1.398,3.705,0.169c1.113-1.467-0.684-2.339-1.535-3.198
		c-2-2.015-4.087-3.921-6.307-5.73c-5.357-4.368-9.833-9.598-12.622-16.016c-2.755-6.338-0.519-9.475,6.293-9.761
		c5.176-0.217,10.014,0.801,14.62,2.955c15.877,7.421,29.179,18.211,40.66,31.349c4.912,5.926,9.545,12.029,12.621,19.173
		c0.932,2.167,2.357,4.388,0.832,6.616c-1.604,2.338-4.258,1.407-6.506,1.147c-1.894-0.218-4.212-1.897-5.426,0.323
		c-1.097,2.007,1.146,3.741,2.358,5.11c8.78,9.937,18.906,17.917,32.181,21.02c0.053,1.842,0.153,3.684,0.153,5.527
		c0.006,264.109,0.006,528.217,0.006,792.327c0,6.609,0,6.609-6.613,6.609C476.339,1084.408,236.896,1084.41-2.547,1084.412z
		 M709.377,1059.971c-2.031-2.753-3.874-3.453-6.149-3.864c-12.043-2.175-23.748-5.542-35.042-10.328
		c-11.856-5.024-23.74-9.988-35.673-14.83c-13.552-5.498-26.256-6.111-38.314,4.527c-12.879,11.362-27.969,18.871-45.229,21.304
		c-6.766,0.953-13.569,1.628-20.328,2.619c-1.481,0.219-3.924,0.153-3.93,2.23c-0.006,1.828,2.262,1.624,3.658,1.876
		c12.092,2.183,24.255,2.204,36.3,0.039c11.984-2.155,21.92-8.859,31.738-15.636c2.262-1.56,5.096-4.692,5.567,1.486
		c0.081,1.068,1.424,2.37,2.512,2.979c9.199,5.156,19.038,7.058,29.484,5.235c1.827-0.319,3.851-0.989,3.76-3.348
		c-0.229-5.933,3.672-5.756,7.41-4.739c14.045,3.817,28.328,6.411,42.719,8.309C694.687,1058.732,701.483,1060.705,709.377,1059.971
		z M301.209,752.835c-1.947-2.245-3.767-2.513-5.582-2.877c-12.344-2.479-24.187-6.408-35.766-11.415
		c-11.186-4.838-22.196-10.207-34.123-13.218c-6.096-1.538-11.89-1.571-17.315,1.961c-2.661,1.732-5.3,3.518-7.81,5.461
		c-10.298,7.967-21.256,14.625-34.303,16.938c-7.543,1.338-15.153,2.297-22.729,3.452c-1.144,0.173-2.563,0.328-2.512,1.86
		c0.045,1.345,1.465,1.065,2.357,1.335c0.958,0.291,1.928,0.685,2.91,0.743c20.192,1.193,39.973,0.741,56.327-13.831
		c2.297-2.045,4.884-3.616,5.789,1.448c0.163,0.91,1.472,1.834,2.462,2.344c6.966,3.581,14.357,5.61,22.225,4.947
		c2.306-0.194,5.456-0.32,5.881-3.616c0.591-4.596,3.635-4.916,6.954-4.049c10.351,2.706,20.767,5.003,31.393,6.32
		C285.048,751.593,292.614,753.876,301.209,752.835z M437.898,662.705c1.658,1.231,3.229,0.944,4.64,0.708
		c11.521-1.924,23.191-3.043,34.493-6.184c3.166-0.88,6.266-2.041,7.315,2.833c0.179,0.826,1.691,1.739,2.722,1.946
		c7.294,1.466,14.588,0.177,19.754-4.722c2.985-2.83,4.055-2.059,6.188-0.397c12.219,9.511,26.374,10.707,41.056,9.564
		c1.709-0.134,3.546-0.399,4.783-2.106c-2.11-1.465-4.227-1.658-6.417-1.867c-12.981-1.239-25.986-3.427-35.856-12.539
		c-10.266-9.479-20.81-10.087-32.664-4.417c-1.058,0.505-2.136,0.973-3.215,1.429c-12.02,5.074-23.868,10.617-36.761,13.291
		C441.91,660.664,439.479,660.134,437.898,662.705z M681.301,334.781c-3.454-2.353-3.458-2.302-6.159-2.513
		c-13.249-1.033-26.653-2.452-37.699-10.417c-12.196-8.795-24.237-7.903-37.417-3.088c-13.641,4.982-27.315,10.135-41.932,11.859
		c-1.335,0.158-3.366,0.163-4.074,2.78c12.656-0.959,24.84-2.702,37.022-4.5c4.627-0.684,9.946-4.453,13.143,2.528
		c0.055,0.118,0.289,0.154,0.438,0.229c3.884,1.979,20.018,0.098,22.078-3.45c2.271-3.908,4.22-2.133,6.291-0.788
		C647.681,336.972,663.819,336.77,681.301,334.781z M185.521,392.735c1.06,1.484,2.347,1.011,3.357,0.909
		c13.102-1.327,26.218-2.578,39.099-5.483c1.803-0.406,4.548-1.33,5.179,0.153c2.96,6.965,8.872,4.501,13.431,3.987
		c4.61-0.519,10.28-0.117,13.072-5.727c0.711-1.429,2.198-0.188,3.047,0.387c8.688,5.867,18.417,8.522,28.711,9.512
		c6.939,0.668,13.747-0.102,20.904-1.419c-1.965-2.823-4.441-2.215-6.664-2.359c-14.188-0.914-27.877-3.574-39.753-12.011
		c-6.677-4.742-14.001-6.331-21.878-4.786c-6.559,1.286-12.916,3.414-19.196,5.771c-9.866,3.702-19.93,6.815-30.291,8.818
		C191.523,391.071,188.357,390.965,185.521,392.735z M565.839,527.05c5.17,0.578,9.116,1.565,12.992,1.345
		c9.808-0.559,19.172-2.804,26.917-9.456c0.855-0.735,1.63-1.67,2.819-0.069c4.077,5.483,10.103,5.749,16.167,5.629
		c1.715-0.034,3.443-0.635,3.906-2.566c0.695-2.92,2.678-2.466,4.709-2.027c4.894,1.055,9.753,2.32,14.683,3.154
		c6.277,1.06,12.613,1.778,19.519,2.725c-1.267-2.655-2.948-2.969-4.563-3.136c-4.877-0.502-9.373-2.252-13.943-3.868
		c-9.931-3.511-19.254-8.556-29.461-11.406c-4.105-1.146-7.583-0.374-10.939,1.754c-2.539,1.61-4.962,3.407-7.385,5.19
		c-7.152,5.259-14.978,8.569-23.946,9.408C573.849,524.051,569.966,523.75,565.839,527.05z M123.657,222.267
		c-0.028-0.434-0.057-0.867-0.085-1.302c-0.625-0.182-1.239-0.469-1.875-0.53c-12.628-1.213-23.35-6.147-32.072-15.581
		c-3.309-3.58-7.565-4.01-12.426-2.137c-12.865,4.956-24.048,13.651-39.23,16.502c3.404,1.718,5.436,1.218,7.509,0.905
		c7.27-1.098,14.387-2.847,21.46-4.812c1.327-0.369,2.624-1.387,3.896,0.574c3.235,4.988,12.809,5.132,16.202-0.195
		c2.274-3.569,3.456-2.11,5.479-0.332c3.922,3.445,8.156,6.554,13.403,7.481C111.862,223.892,117.887,224.468,123.657,222.267z
		 M416.605,881.18 M391.723,889.653 M363.352,892.664c-0.183,0.035-0.276,0.53-0.635,1.276 M36.604,1020.962
		c1.817,1.454,3.714,1.198,5.423,0.854c7.531-1.52,15.249-2.047,22.649-4.263c1.725-0.518,3.426-1.247,5.063,0.517
		c3.661,3.943,12.627,4.326,16.393,0.091c2.555-2.875,4.063-2.008,6.399-0.318c9.8,7.083,20.602,8.281,32.342,5.541
		c-1.016-2.259-2.755-2.316-4.358-2.342c-11.005-0.177-20.672-3.913-28.91-11.117c-5.476-4.79-11.577-5.131-17.849-2.678
		C61.486,1012.042,49.648,1017.976,36.604,1020.962z M330.878,155.481c1.319,1.864,2.335,1.475,3.276,1.278
		c6.376-1.331,12.754-2.658,19.118-4.047c1.453-0.317,2.815-1.095,4.234,0.164c4.317,3.83,10.399,4.097,13.656-0.001
		c1.625-2.045,2.077-2.135,3.851-0.466c6.152,5.792,13.648,7.492,21.867,6.666c1.439-0.145,3.563,0.246,3.623-1.692
		c0.057-1.854-2.039-1.176-3.231-1.333c-8.912-1.177-16.754-4.469-22.958-11.209c-3.764-4.09-8.172-4.774-13.199-2.386
		C351.313,147.107,342.011,152.881,330.878,155.481z"/>
	<path fill-rule="evenodd" clip-rule="evenodd" fill="#1B96D7" d="M309.63-1.954c0.959,6.303,1.728,12.7,0.692,18.981
		c-2.381,14.45-10.961,21.139-26.569,22.344c-10.124,0.782-20.344,1.357-30.216,4.071c-10.151,2.791-17.6,8.713-20.988,19.028
		c-0.589,1.792-1.02,3.688,0.548,5.173c1.455,1.378,3.098,0.519,4.728,0.081c5.708-1.537,10.725-4.723,16.246-6.697
		c1.448-0.519,3.15-1.227,4.257-0.033c1.286,1.387-0.171,2.933-0.967,4.007c-5.757,7.772-13.02,13.837-21.409,18.638
		c-14.818,8.479-30.612,14.209-47.475,16.836c-4.769,0.743-9.638,0.861-14.467,1.182c-1.293,0.085-3.052,0.358-3.52-1.184
		c-0.476-1.57,1.159-2.23,2.312-2.827c4.067-2.105,7.754-4.691,10.521-8.386c3.919-5.23,4.627-10.923,1.539-14.898
		c-3.607-4.643-8.808-4.51-13.813-3.417c-7.183,1.57-13.598,5.083-18.649,10.36c-6.82,7.124-14.442,9.147-23.624,5.575
		c-15.168-5.901-27.464-0.379-38.331,10.001c-5.43,5.188-4.28,9.116,2.91,10.884c3.888,0.956,7.854,1.596,11.747,2.534
		c0.996,0.24,2.653,0.224,2.536,1.859c-0.079,1.11-1.31,1.329-2.244,1.728c-10.841,4.627-22.358,6.964-33.712,9.779
		c-16.7,4.141-33.598,7.493-50.612,9.951c-7.727,1.116-15.738,0.267-23.62,0.309c0-3.355,0-6.712,0-10.068
		c3.497-0.753,6.589-2.529,9.519-4.384c8.515-5.391,11.81-16.098,7.484-23.938C10.759,88.837,4.861,85.089-2.547,83.58
		c0-4.028,0-8.055,0-12.083c9.346,0.768,18.686,1.481,28.079,0.743c17.07-1.342,31.734-7.912,43.642-20.243
		c7.371-7.633,16.256-11.333,26.753-12.121c8.879-0.667,17.756-0.792,26.618-0.513c22.209,0.698,42.613-4.435,61.635-16.284
		c18.404-11.465,38.612-19.173,59.354-25.415c2.576,0.143,5.153,0.285,7.729,0.428c-0.582,3.839,1.035,6.705,3.725,9.324
		c5.906,5.75,12.927,5.754,20.448,4.754c10.547-1.401,19.495-5.425,26.007-14.107C304.171-1.942,306.901-1.948,309.63-1.954z
		 M102.909,48.42c-4.788-0.594-9.355,0.481-13.785,2.078C73.814,56.015,68.2,64.523,71.002,77.75
		c1.281,6.049,4.468,8.121,10.505,6.443c2.552-0.708,5.067-1.826,7.344-3.183c3.035-1.809,6.268-3.152,9.387-4.745
		c8.725-4.452,18.673-5.409,27.349-9.913c6.002-3.116,6.509-6.682,0.712-10.182C119.175,51.869,111.899,47.354,102.909,48.42z
		 M180.646,63.433c13.049-1.238,25.756-3.966,37.927-8.91c2.944-1.195,5.719-2.699,7.967-5.123
		c3.881-4.185,4.037-8.212,0.218-12.373c-7.189-7.836-23.841-11.071-33.586-6.507c-10.452,4.894-15,14.403-18.777,24.392
		C171.813,61.743,173.174,63.417,180.646,63.433z M40.536,100.684c8.606-1.95,17.946-5.7,23.767-15.027
		c2.928-4.692-0.644-10.821-6.003-9.939c-10.525,1.73-21.096,3.699-30.656,8.905c-1.864,1.016-3.284,2.396-2.832,4.799
		C25.675,94.007,34.061,100.727,40.536,100.684z M22.29,126.855c2.327,0.084,4.266-0.298,6.252-0.705
		c8.55-1.756,16.691-4.869,24.965-7.495c6.17-1.958,12.502-3.93,17.445-8.542c2.842-2.653,4.344-5.962,2.175-9.409
		c-2.275-3.616-5.556-1.868-8.461-0.382c-0.743,0.379-1.475,0.804-2.146,1.298c-5.621,4.131-11.947,6.528-18.646,8.399
		c-8.197,2.29-16.512,4.59-23.176,10.396c-1.491,1.3-3.528,2.53-2.855,4.887C18.557,127.797,20.936,126.529,22.29,126.855z
		 M238.582,32.156c7.04,0.306,10.874-2.908,11.272-10.159c0.532-9.682-2.135-16.667-11.532-14.638
		c-8.074,1.744-15.011,6.391-21.52,11.462c-2.158,1.682-1.94,3.529,0.303,4.787C224.283,27.636,232.08,30.088,238.582,32.156z
		 M267.313,35.351c9.835-1.331,19.637-2.771,27.336-9.895c2-1.851,4.798-3.799,2.835-7.186c-1.779-3.07-5.185-3.182-8.01-2.842
		c-9.261,1.117-17.919,4.176-25.394,9.917c-2.399,1.843-6.476,3.669-5.265,7.07C259.92,35.512,264.228,34.821,267.313,35.351z
		 M200.496,86.764c7.301-1.809,14.557-3.911,20.815-8.252c3.42-2.372,2.958-6.234-0.764-8.627
		c-4.766-3.065-10.213-4.119-15.767-4.369c-3.902-0.176-5.974,2.042-7.027,5.814c-1.016,3.64-0.379,7.39-1.185,10.928
		C195.704,86.056,197.356,86.742,200.496,86.764z M150.997,61.542c8.738-0.484,13.347-6.62,17.562-13.157
		c1.82-2.823,0.994-4.713-2.539-5.199c-7.369-1.014-14.134,0.746-20.632,4.134c-2.938,1.532-5.917,3.203-5.671,6.882
		c0.239,3.576,3.305,5.148,6.294,6.505C147.609,61.432,149.25,61.445,150.997,61.542z M138.113,80.574
		c5.367,0.217,8.476-2.672,10.61-6.7c1.739-3.283,0.11-5.963-3.607-6.365c-4.14-0.446-7.535,1.265-10.308,4.131
		c-1.371,1.416-3.953,2.394-2.733,5.257C133.288,79.744,135.415,80.943,138.113,80.574z"/>
	<path fill-rule="evenodd" clip-rule="evenodd" fill="#F6E5C4" d="M538.144-3.011c25.172,0,50.344,0,75.516,0
		c-1.274,1.797-3.819,0.298-5.646,1.942c3.73,3.057,7.599,4.909,11.78,6.11c3.475,0.997,4.522,2.947,3.256,6.41
		c-2.279,6.225-1.694,7.646,4.663,10.157c5.199,2.053,8.442,5.08,9.565,11.004c1.398,7.383,4.83,9.516,12.377,9.696
		c3.761,0.089,7.267,0.535,9.497,4.323c4.064,6.91,9.146,8.863,16.466,5.814c3.919-1.632,5.937-0.242,6.928,3.04
		c1.196,3.959,3.565,5.288,7.465,4.98c3.774-0.297,4.944,2.083,3.885,5.15c-1.796,5.188,0.33,7.809,5.143,8.644
		c5.017,0.871,7.61,3.624,8.159,8.609c0.429,3.892,1.77,7.082,6.228,8.031c1.715,0.365,2.679,1.88,2.91,3.732
		c0.312,2.48,0.465,5.012,1.1,7.411c1.013,3.82-0.047,8.666,4.893,10.707c-0.02,24.523-0.041,49.045-0.061,73.568
		c-6.84-2.096-9.249-8.337-10.72-13.916c-3.606-13.665-3.723-27.988-7.162-41.808c-4.452-17.897-13.88-29.659-33.209-31.781
		c-5.113-0.563-11.154,0.985-14.778-4.711c-0.199-0.313-1.432-0.378-1.847-0.084c-4.593,3.251-8.533,0.096-12.069-1.766
		c-14.332-7.55-20.117-20.748-22.59-35.914c-0.314-1.931,0.551-2.726,2.354-3.063c1.697-0.317,2.881-1.426,2.12-3.217
		c-1.009-2.372-2.63-1.285-4.101-0.344c-0.374,0.238-0.789,0.411-1.398,0.723c-1.651-10.619-7.94-16.667-18.2-18.062
		c-8.409-1.144-16.918-1.715-25.402-2.097c-10.286-0.464-18.951-3.156-23.889-13.317c-2.482-5.107-5.385-10.002-7.519-15.298
		c-0.793-1.969-1.475-5.061-4.836-2.54C538.728-1.588,538.437-2.3,538.144-3.011z M571.292,8.76
		c-0.195-1.468-0.921-2.567-2.49-2.507c-1.634,0.062-2.938,1.086-3.022,2.698c-0.084,1.655,1.148,2.822,2.822,2.723
		C570.185,11.579,571.347,10.617,571.292,8.76z M612.34,23.322c-1.121-0.017-2.101,0.44-2.268,1.542
		c-0.238,1.577,0.885,2.576,2.226,2.881c1.418,0.323,2.165-0.748,2.186-2.072C614.505,24.33,613.657,23.558,612.34,23.322z"/>
	<path fill-rule="evenodd" clip-rule="evenodd" fill="#F6E5C4" d="M99.147-3.011c43.631,0,87.262,0,130.893,0
		c-1.522,1.527-3.468,0.972-5.252,0.985c-7.041,0.056-14.088,0.214-21.119-0.052c-3.99-0.151-7.012,1.268-10.016,3.67
		c-6.647,5.313-13.095,10.88-20.329,15.456c-10.395,6.575-21.355,10.578-33.934,10.234c-19.546-0.536-39.029-3.013-58.612-2.056
		c-8.074,0.395-15.521,2.666-20.756,9.445c-2.755,3.567-5.529,7.143-7.967,10.924C46.96,53.494,39.732,58.25,30.756,60.383
		c-11.55,2.747-22.537,0.145-33.304-3.989c0-13.089,0-26.179,0-39.268c4.748-1.986,9.602-3.8,12.262-8.747
		c0.629-1.168,1.603-1.735,2.766-0.481c3.151,3.395,4.314-0.158,6.64-1.334c2.04-1.032,5.146,3.143,8.114,0.29
		c0.241-0.232,0.572-0.413,0.719-0.692c1.747-3.323,4.093-2.551,7.052-1.604c5.168,1.655,10.683,2.329,15.377-1.204
		c3.805-2.862,7.88-3.439,12.286-2.942c4.474,0.505,8.977,0.993,13.369,1.944C84.656,4.222,92.109,1.634,99.147-3.011z
		 M92.646,18.976c1.803-0.281,2.51-1.456,2.396-3.149c-0.1-1.494-0.922-2.591-2.479-2.528c-1.841,0.074-2.512,1.41-2.405,3.096
		C90.251,17.89,91.079,18.815,92.646,18.976z"/>
	<path fill-rule="evenodd" clip-rule="evenodd" fill="#1B96D9" d="M-2.547,372.552c14.431,0.101,31.435,10.582,34.832,21.912
		c-3.512-0.602-5.647-3.113-8.31-4.565c-1.459-0.795-3.049-1.87-4.672-0.683c-1.697,1.242-1.531,2.981-1.123,4.978
		c0.745,3.641,1.992,7.024,5.513,8.489c12.107,5.04,19.319,14.533,24.5,26.021c0.392,0.867,1.01,1.632,1.949,3.119
		c1.28-2.984-0.157-6.05,2.364-8.293c3.659,4.231,5.24,9.49,7.169,14.482c3.938,10.186,6.092,20.84,7.145,31.679
		c0.507,5.225-0.54,10.338-3.127,14.999c-0.67,1.207-0.882,3.392-2.821,2.929c-1.641-0.393-0.966-2.296-0.949-3.523
		c0.034-2.428-0.713-4.636-1.613-6.792c-0.698-1.671-1.464-3.742-3.674-3.588c-1.832,0.128-2.591,1.964-3.24,3.514
		c-2.154,5.15-2.703,10.703-3.438,16.122c-1.326,9.764-2.153,19.617-0.15,29.433c0.366,1.793,0.683,3.638,1.37,5.317
		c1.231,3.01,3.178,4.292,6.169,1.837c1.161-0.954,2.336-1.927,3.635-2.665c1.655-0.939,3.558-1.108,3.797,1.328
		c1.961,19.935,3.257,39.789-8.164,57.866c-3.274,5.182-7.943,9.037-12.136,13.35c-0.702,0.723-1.577,1.417-2.659,0.914
		c-1.415-0.659-1.06-1.94-0.768-3.061c0.59-2.265,1.298-4.498,1.897-6.76c0.315-1.193,1.496-2.652-0.288-3.502
		c-1.505-0.717-2.424,0.696-3.381,1.578c-6.419,5.907-8.715,13.555-9.679,21.95c-1.292,11.25-1.082,22.674-3.99,33.741
		c-3.091,11.763-9.864,21.123-18.853,28.993c-1.986,1.738-4.441,3.034-7.306,2.956c0-4.364,0-8.728,0-13.09
		c1.691-0.759,3.208-1.732,4.571-3.033c8.544-8.16,8.851-18.35,6.651-28.828c-1.347-6.412-4.453-8.249-11.222-8.415
		c0-2.014,0-4.028,0-6.042c3.813,0.554,6.863-1.387,9.998-3.055c0.346,0.012,0.69,0.023,1.035,0.035
		c-0.083,3.971,3.213,5.692,5.553,7.874c3.304,3.081,4.989,2.483,6.081-1.99c1.772-7.26,3.25-14.593,5.031-21.85
		c0.551-2.246,0.548-4.26-0.539-6.274c0.001-1.632,0.003-3.265,0.004-4.896c0.011-0.348,0.021-0.697,0.033-1.045
		c7.931-1.499,13.008-8.431,10.042-13.947c-1.485-2.761-3.065-5.601-6.018-7.21c0-0.996,0-1.991,0-2.987
		c0.314-5.003,0.628-10.007,0.942-15.01c4.191-2.962,7.453-6.835,9.175-11.575c2.228-6.136,1.832-12.684-5.16-14.804
		c-0.02-1.739,0.158-3.436,1.081-4.971c3.607,0.458,5.737-1.384,6.691-4.616c2.579-8.74,2.657-17.633,1.111-26.542
		c-0.426-2.453-1.814-4.33-4.783-4.061c0.042-5.388-1.621-10.669-1.016-16.094c5.457,4.593,7.076,4.316,10.47-1.841
		c2.288-4.149,3.877-8.422,3.713-13.344c-0.167-5.019-1.274-9.133-6.194-11.624c-4.827-2.443-9.014-1.626-13.012,1.625
		c-0.672-3.021-1.344-6.042-2.017-9.063c8.238-5.787,5.756-13.654-0.966-18.359c-3.637-2.545-8.01-1.709-12.137-1.801
		c-1.256-4.647-2.532-9.284-7.022-12.046c-0.007-0.683-0.015-1.368-0.022-2.051c-3.012-5.84-5.42-12.163-12.074-15.088
		C-2.547,377.922-2.547,375.238-2.547,372.552z M59.914,544.422c-0.017-6.601-1.843-8.818-6.141-7.131
		c-5.69,2.235-10.802,5.559-14.319,10.587c-1.79,2.56-4.601,5.376-3.069,9.042c2.198,5.258,7.394,6.134,12.097,6.675
		c4.081,0.468,7.374-1.952,8.914-5.983C59.011,553.379,59.801,548.956,59.914,544.422z M55.72,571.583
		c0.311-2.362-0.313-3.983-2.85-3.604c-4.381,0.652-7.194,3.538-8.669,7.439c-1.417,3.746,0.861,6.754,3.114,9.472
		c1.111,1.34,2.408,0.887,3.249-0.528C52.969,580.32,54.514,575.927,55.72,571.583z"/>
	<path fill-rule="evenodd" clip-rule="evenodd" fill="#FBFDFD" d="M538.144-3.011c0.293,0.711,0.584,1.423,0.879,2.133
		c1.868,7.911,5.517,15.047,9.634,21.964c5.131,8.616,11.751,15.359,21.953,17.841c6.33,1.541,12.574,3.451,18.846,5.238
		c9.799,2.793,16.135,9.116,19.188,18.824c4.722,15.024,14.133,26.322,27.285,34.82c10.18,6.575,21.247,11.385,31.973,16.881
		c7.071,3.622,13.343,8.225,18.417,14.435c7.989,9.779,11.174,21.442,11.736,33.546c0.821,17.678,11.154,28.8,24.025,39.058
		c0.149-0.882,0.305-1.361,0.301-1.839c-0.021-4.523-0.073-9.047-0.114-13.571c0.02-24.523,0.041-49.045,0.061-73.568
		c0.002-3.342,0.002-6.684,0.002-10.027c-0.033-1.685-0.068-3.37-0.104-5.054c0.004-33.206,0.008-66.414,0.014-99.621
		c0.053-0.353,0.107-0.707,0.163-1.06c0.309,0.22,1.05-0.509,1.017,0.504c-0.043,1.341-0.01,2.685-0.01,4.027
		c0,360.125-0.008,720.248,0.092,1080.374c0.003,3.774-0.847,4.626-4.623,4.626c-238.965-0.104-477.929-0.089-716.893-0.238
		c-1.298,0-4.66,2.487-4.531-1.87c239.443-0.002,478.886-0.004,718.33-0.006c6.613,0,6.613,0,6.613-6.609
		c0-264.109,0-528.217-0.006-792.327c0-1.843-0.101-3.685-0.153-5.527c0.053-20.285-0.207-40.578,0.334-60.85
		c0.183-6.848-1.856-11.358-7.034-15.764c-10.861-9.244-20.218-19.713-21.062-35.152c-0.191-3.502-0.883-6.975-1.284-10.468
		c-2.223-19.429-11.098-34.076-29.668-42.044c-8.914-3.826-17.559-8.279-26.462-12.137c-13.775-5.971-23.386-15.899-29.186-29.648
		c-1.756-4.163-3.692-8.264-5.201-12.516c-2.605-7.335-7.552-12.038-14.889-14.479c-7.936-2.638-15.768-5.588-23.732-8.132
		c-8.503-2.717-14.295-8.297-18.489-15.982c-4.287-7.853-6.875-16.324-9.61-24.757c0.059-0.341,0.117-0.684,0.177-1.026
		C536.801-3.011,537.471-3.011,538.144-3.011z"/>
	<path fill-rule="evenodd" clip-rule="evenodd" fill="#F4DDB5" d="M-2.547,56.395c10.767,4.133,21.753,6.735,33.304,3.989
		c8.976-2.133,16.204-6.89,21.297-14.787c2.438-3.782,5.212-7.357,7.967-10.924c5.235-6.78,12.682-9.05,20.756-9.445
		c19.583-0.957,39.066,1.52,58.612,2.056c12.579,0.344,23.54-3.659,33.934-10.234c7.234-4.576,13.682-10.143,20.329-15.456
		c3.004-2.402,6.026-3.821,10.016-3.67c7.031,0.266,14.079,0.108,21.119,0.052c1.785-0.014,3.73,0.542,5.252-0.985
		c0.671,0,1.343,0,2.014,0c0.007,0.349,0.015,0.697,0.022,1.046c-1.68,0.704-3.324,1.511-5.043,2.097
		c-17.806,6.06-35.28,12.969-51.347,22.82c-15.758,9.662-32.786,14.095-51.08,14.286c-9.228,0.096-18.471-0.279-27.681,0.142
		c-10.469,0.479-20.31,2.369-28.391,10.5c-10.961,11.029-24.057,18.695-40.02,20.13c-10.363,0.931-20.731,0.981-31.062-0.54
		C-2.547,63.778-2.547,60.086-2.547,56.395z"/>
	<path fill-rule="evenodd" clip-rule="evenodd" fill="#F6E5C4" d="M-2.547,599.098c0-59.74,0-119.482,0-179.223
		c5.854,4.031,8.238,9.309,5.913,14.754c-3.104,7.271-3.088,7.57,3.93,13.436c6.055,5.06,9.255,11.591,11.294,18.688
		c3.227,11.232-0.021,21.374-6.566,30.735c-3.97,5.679-6.919,11.704-6.582,19.037c0.483,10.511,2.563,20.817,3.509,31.251
		c0.612,6.75,2.521,13.433,1.047,20.356C7.64,579.217,2.327,589.058-2.547,599.098z M5.133,559.957
		c-1.18,0.063-2.163,0.589-2.402,1.9c-0.284,1.555,0.495,2.565,2.031,2.781c1.319,0.185,2.245-0.548,2.499-1.826
		C7.573,561.246,6.72,560.359,5.133,559.957z"/>
	<path fill-rule="evenodd" clip-rule="evenodd" fill="#3CA1CF" d="M7.45,614.166c-3.134,1.669-6.185,3.61-9.998,3.056
		c0-0.335,0-0.671,0-1.007c2.358-5.041,3.427-10.494,5.022-15.777c0.833-0.972,1.23-2.086,1.102-3.372l-0.05,0.096
		c0.965-0.539,1.041-1.474,1.078-2.426l-0.063-0.098c1.281-1.271,1.958-2.81,2.036-4.611l-0.039,0.069
		c0.565-0.739,1.131-1.479,1.697-2.218c4.608-1.007,7.063-4.363,8.249-8.467c1.661-5.747,2.815-11.642,4.125-17.487
		c0.487-2.175,1.112-4.019,3.389-5.16c3.931-1.971,3.588-4.694,0.768-7.503c-0.819-0.815-2.154-1.557-1.69-2.831
		c2.551-7.007,2.852-14.287,3.057-21.619c0.039-1.403,0.904-2.681,2.279-3.683c4.234-3.085,4.452-5.13,1.014-9.265
		c-1.272-1.531-1.805-3.076-1.814-5.004c-0.019-3.85,0.155-7.596,1.386-11.352c1.577-4.814,0.449-9.596-1.329-14.212
		c0.192-8.117,0.624-16.267-3.263-23.826c1.46-3.487,0.545-6.921-0.614-10.174c-1.272-3.569,0.312-9.334-6.613-9.131
		c-0.795,0.024-2.385-2.628-2.382-4.038c0.01-5.674-2.458-10.625-3.876-15.894c-2.531-9.403-2.329-9.458-11.967-9.427
		c-0.5,0.002-1-0.004-1.5-0.006c0-2.686,0-5.37,0-8.055c2.865-0.098,5.332,1.191,7.295,2.943c3.267,2.914,4.236,1.217,4.71-1.925
		c0.198-1.313,0.07-2.675,0.09-4.016c4.491,2.762,5.766,7.399,7.023,12.046c-0.533,4.239,0.722,8.167,2.093,12.076
		c0.758,4.177,0.917,10.324,4.366,11.344c4.344,1.284,5.492,3.608,6.778,6.84c-0.069,0.662-0.137,1.322-0.205,1.984
		c-2.832,2.495-3.201,5.44-2.167,9c1.096,3.774,3.049,6.992,5.268,10.125c-0.699,7.474,0.854,14.833,1.133,22.256
		c1.516,10.666-1.069,21.442,0.873,32.096c-0.923,1.535-1.101,3.231-1.08,4.972c-3.48,8.467-4.299,17.339-4.016,26.378
		c-0.314,5.003-0.628,10.007-0.943,15.01c-2.843-1.617-3.422,0.444-3.956,2.473c-1.558,5.93-3.563,11.699-5.864,17.383
		c-1.931,4.769-1.546,5.187,3.774,5.311c0.663,0.016,1.325,0.016,1.989,0.024c-0.001,1.632-0.003,3.264-0.004,4.897
		c-0.339,0.015-0.679,0.029-1.019,0.042C14.264,592.876,5.272,605.22,7.45,614.166z"/>
	<path fill-rule="evenodd" clip-rule="evenodd" fill="#F4DDB5" d="M2.475,600.438c-1.595,5.284-2.664,10.736-5.022,15.777
		c0-5.706,0-11.411,0-17.117c4.874-10.04,10.188-19.881,12.546-30.966c1.473-6.923-0.436-13.606-1.047-20.356
		c-0.946-10.435-3.026-20.74-3.509-31.251c-0.338-7.333,2.612-13.358,6.582-19.037c6.545-9.361,9.792-19.503,6.566-30.735
		c-2.04-7.097-5.239-13.628-11.294-18.688c-7.018-5.865-7.034-6.165-3.93-13.436c2.325-5.445-0.06-10.723-5.913-14.754
		c0-1.342,0-2.686,0-4.028c0.691-0.014,1.382-0.026,2.073-0.039l-0.045-0.022c0.352,0.349,0.704,0.698,1.056,1.046l-0.022-0.049
		c0.106,1.927,1.126,2.943,3.051,3.053l-0.052-0.023c0.347,0.356,0.694,0.713,1.041,1.069l-0.035-0.051
		c-0.064,0.9,0.121,1.672,1.057,2.059l-0.031-0.052c-0.053,0.891,0.106,1.676,1.038,2.076l-0.04-0.06
		c0.149,10.67,2.247,20.341,10.967,27.9c5.068,4.394,6.894,10.859,7.201,17.688c0.621,13.793-2.734,26.785-6.68,39.867
		c-4.833,16.021-4.618,32.708-4.484,49.309c0.068,8.461-1.472,16.655-5.423,24.262c-1.014,1.952-1.955,3.915-1.586,6.216
		l0.039-0.069c-2.071,0.921-2.111,2.74-2.036,4.611c0,0,0.063,0.098,0.063,0.103c-0.807,0.611-1.079,1.455-1.077,2.421
		c0,0,0.05-0.096,0.05-0.095C2.332,597.903,2.525,599.21,2.475,600.438z"/>
	<path fill-rule="evenodd" clip-rule="evenodd" fill="#F5F9FA" d="M-2.547,67.47c10.331,1.521,20.699,1.471,31.062,0.54
		c15.962-1.436,29.059-9.101,40.02-20.13c8.081-8.131,17.922-10.021,28.391-10.5c9.21-0.421,18.454-0.045,27.681-0.142
		c18.294-0.191,35.322-4.625,51.08-14.286c16.067-9.851,33.541-16.76,51.347-22.82c1.72-0.586,3.364-1.393,5.043-2.098
		c1.107-0.04,2.242,0.001,2.999-1.045c3.021,0,6.041,0,9.062,0c-0.392,0.055-0.593,0.281-0.604,0.677
		c-20.742,6.242-40.951,13.95-59.354,25.415c-19.021,11.85-39.426,16.982-61.635,16.284c-8.861-0.279-17.738-0.154-26.618,0.513
		c-10.497,0.788-19.382,4.487-26.753,12.121C57.266,64.329,42.601,70.899,25.531,72.241c-9.393,0.738-18.733,0.025-28.079-0.743
		C-2.547,70.155-2.547,68.812-2.547,67.47z"/>
	<path fill-rule="evenodd" clip-rule="evenodd" fill="#F4DDB5" d="M722.328,102.724c0,3.342,0,6.685-0.002,10.026
		c-4.939-2.041-3.88-6.887-4.893-10.707c-0.635-2.399-0.788-4.931-1.1-7.411c-0.231-1.853-1.195-3.368-2.91-3.732
		c-4.458-0.95-5.799-4.14-6.228-8.031c-0.549-4.985-3.143-7.738-8.159-8.609c-4.813-0.834-6.938-3.456-5.143-8.644
		c1.06-3.068-0.11-5.447-3.885-5.15c-3.899,0.308-6.269-1.021-7.465-4.98c-0.991-3.282-3.009-4.672-6.928-3.04
		c-7.319,3.049-12.401,1.095-16.466-5.814c-2.23-3.789-5.736-4.234-9.497-4.323c-7.547-0.18-10.979-2.313-12.377-9.696
		c-1.123-5.924-4.366-8.951-9.565-11.004c-6.357-2.511-6.942-3.933-4.663-10.157c1.267-3.463,0.219-5.413-3.256-6.41
		c-4.182-1.201-8.05-3.053-11.78-6.11c1.827-1.645,4.372-0.146,5.646-1.942c0.334,0,0.671,0,1.007,0
		c0.236,0.342,0.474,0.686,0.712,1.028c4.179,4.26,9.221,7.144,14.81,9.079c2.02,0.699,3.87,1.321,3.569,3.992l0.021-0.051
		c-3.329,6.424-2.898,7.734,3.563,10.645c3.228,1.454,6.354,2.802,7.459,6.791c2.791,10.083,3.769,10.805,14.578,11.649
		c2.149,0.168,3.751,0.715,4.995,2.681c4.427,6.988,6.632,7.833,14.944,5.714c2.889-0.736,5.034-0.392,5.896,2.744
		c1.201,4.386,4.151,5.713,8.392,5.226c3.795-0.436,5.5,1.11,4.157,4.99c-1.676,4.843-0.665,8.143,4.817,9.36
		c5.914,1.313,8.714,5.155,8.584,11.201c-0.033,1.501-0.19,3.576,1.398,4.013c6.305,1.732,5.455,7.294,6.667,11.754
		C719.768,99.786,719.18,102.41,722.328,102.724z"/>
	<path fill-rule="evenodd" clip-rule="evenodd" fill="#0089CB" d="M-2.547,83.58c7.408,1.509,13.307,5.257,17.002,11.954
		c4.326,7.84,1.031,18.546-7.484,23.938c-2.929,1.854-6.021,3.63-9.519,4.384C-2.547,110.43-2.547,97.004-2.547,83.58z"/>
	<path fill-rule="evenodd" clip-rule="evenodd" fill="#0087D0" d="M-2.547,623.263c6.769,0.166,9.875,2.003,11.222,8.415
		c2.2,10.478,1.893,20.667-6.651,28.828c-1.362,1.301-2.879,2.274-4.571,3.033C-2.547,650.113-2.547,636.688-2.547,623.263z"/>
	<path fill-rule="evenodd" clip-rule="evenodd" fill="#5BAED2" d="M-2.547,408.8c0.5,0.002,1,0.008,1.5,0.006
		c9.638-0.031,9.436,0.023,11.967,9.427c1.419,5.268,3.886,10.219,3.876,15.894c-0.002,1.41,1.587,4.062,2.382,4.038
		c6.924-0.204,5.34,5.562,6.613,9.131c1.159,3.252,2.074,6.687,0.614,10.174c-2.686-3.613-5.643-6.979-8.849-10.15
		c-4.41-4.362-7.371-9.38-7.125-15.922c0.086-2.274-0.264-4.651-1.887-6.543l0.04,0.06c0.063-0.896-0.042-1.709-1.038-2.076
		l0.031,0.052c0.074-0.906-0.145-1.661-1.057-2.059l0.035,0.051c-0.347-0.356-0.694-0.713-1.041-1.069l0.052,0.023
		c-0.325-1.71-1.207-2.861-3.051-3.053l0.022,0.049c-0.034-0.669-0.421-0.982-1.056-1.046l0.045,0.022
		c-0.691-0.659-1.382-1.317-2.073-1.975C-2.547,412.156-2.547,410.478-2.547,408.8z"/>
	<path fill-rule="evenodd" clip-rule="evenodd" fill="#30C972" d="M-2.547,13.099c0-5.035,0-10.069,0-15.104
		c18.475,0.034,36.949,0.066,55.424,0.1c-5.67,6.277-12.613,6.06-19.729,3.466c-2.508-0.914-4.095-1.385-5.826,1.173
		c-1.707,2.522-4.091,2.146-7.058,1.667c-3.77-0.606-7.553,2.602-11.732,1.263C8.348,5.605,7.8,6.682,7.42,7.229
		C4.999,10.714,1.733,12.77-2.547,13.099z"/>
	<path fill-rule="evenodd" clip-rule="evenodd" fill="#30AF64" d="M-2.547,13.099c4.281-0.33,7.546-2.385,9.968-5.87
		C7.8,6.682,8.348,5.605,8.532,5.665c4.179,1.339,7.962-1.869,11.732-1.263c2.966,0.478,5.351,0.854,7.058-1.667
		c1.731-2.559,3.318-2.087,5.826-1.173c7.116,2.594,14.059,2.812,19.729-3.467C64.72-1.923,76.565-1.907,88.41-1.989
		c1.921-0.013,4.044,0.64,5.703-1.022c1.678,0,3.356,0,5.035,0c-7.038,4.645-14.491,7.233-23.109,5.367
		c-4.392-0.951-8.895-1.439-13.369-1.944c-4.406-0.498-8.481,0.08-12.286,2.942c-4.694,3.532-10.209,2.858-15.377,1.204
		C32.046,3.61,29.7,2.838,27.954,6.162c-0.147,0.279-0.478,0.46-0.719,0.692c-2.968,2.853-6.075-1.322-8.114-0.29
		c-2.326,1.176-3.489,4.729-6.64,1.334c-1.163-1.254-2.137-0.688-2.766,0.481c-2.661,4.947-7.514,6.761-12.262,8.747
		C-2.547,15.784-2.547,14.441-2.547,13.099z"/>
	<path fill-rule="evenodd" clip-rule="evenodd" fill="#3CA1CF" d="M243.533-2.334c0.01-0.396,0.212-0.622,0.604-0.677
		c97.332,0,194.662,0,291.994,0c-0.06,0.342-0.118,0.685-0.177,1.026c-3.994,0.026-7.99,0.052-11.984,0.079
		c-14.378,0.002-28.757,0.004-43.135,0.006c-5.425-0.004-10.851-0.007-16.274-0.011c-51.645-0.015-103.287-0.029-154.93-0.042
		c-2.729,0.006-5.458,0.012-8.187,0.017c-16.726,0.01-33.453,0.02-50.18,0.03C248.686-2.049,246.109-2.192,243.533-2.334z"/>
	<path fill-rule="evenodd" clip-rule="evenodd" fill="#1B97D5" d="M9.549,397.747c-0.02,1.34,0.108,2.703-0.09,4.016
		c-0.475,3.143-1.443,4.839-4.71,1.925c-1.964-1.752-4.43-3.041-7.295-2.943c0-3.356,0-6.713,0-10.068
		c4.817-0.234,7.619,4.382,12.074,5.02C9.534,396.379,9.542,397.063,9.549,397.747z"/>
	<path fill-rule="evenodd" clip-rule="evenodd" fill="#63D594" d="M615.376-1.983c-0.236-0.342-0.474-0.686-0.71-1.028
		c35.911,0,71.822,0,107.735,0c-0.056,0.353-0.11,0.707-0.163,1.06c-33.18,0.016-66.357,0.031-99.535,0.045
		C620.261-1.931,617.818-1.957,615.376-1.983z"/>
	<path fill-rule="evenodd" clip-rule="evenodd" fill="#63D594" d="M94.112-3.011c-1.658,1.662-3.781,1.009-5.703,1.022
		C76.565-1.907,64.72-1.923,52.876-1.906C34.402-1.938,15.927-1.971-2.547-2.004c0.906-2.082,2.722-0.942,4.027-0.945
		C32.357-3.029,63.235-3.011,94.112-3.011z"/>
	<path fill-rule="evenodd" clip-rule="evenodd" fill="#0087D0" d="M9.527,395.696c-4.456-0.637-7.257-5.254-12.074-5.02
		c0-3.356,0-6.713,0-10.069C4.107,383.533,6.515,389.856,9.527,395.696z"/>
	<path fill-rule="evenodd" clip-rule="evenodd" fill="#F5F9FA" d="M-2.547,413.834c0.691,0.658,1.382,1.316,2.073,1.975
		c-0.691,0.013-1.382,0.025-2.073,0.039C-2.547,415.176-2.547,414.506-2.547,413.834z"/>
	<path fill-rule="evenodd" clip-rule="evenodd" fill="#F6E5C4" d="M235.075-3.011c-0.757,1.046-1.892,1.006-2.999,1.045
		c-0.007-0.348-0.015-0.696-0.022-1.045C233.061-3.011,234.068-3.011,235.075-3.011z"/>
	<path fill-rule="evenodd" clip-rule="evenodd" fill="#1B97D5" d="M523.969-1.907c3.994-0.026,7.99-0.052,11.984-0.079
		c2.735,8.433,5.323,16.904,9.61,24.757c4.194,7.685,9.986,13.265,18.489,15.982c7.965,2.544,15.797,5.494,23.732,8.132
		c7.337,2.44,12.283,7.144,14.889,14.479c1.509,4.252,3.445,8.353,5.201,12.516c5.8,13.749,15.41,23.677,29.186,29.648
		c8.903,3.858,17.548,8.312,26.462,12.137c18.57,7.968,27.445,22.615,29.668,42.044c0.401,3.493,1.093,6.965,1.284,10.468
		c0.844,15.439,10.2,25.909,21.062,35.152c5.178,4.406,7.217,8.916,7.034,15.764c-0.541,20.272-0.281,40.565-0.334,60.85
		c-13.274-3.103-23.4-11.083-32.181-21.02c-1.212-1.37-3.455-3.104-2.358-5.11c1.214-2.22,3.532-0.542,5.426-0.323
		c2.248,0.26,4.902,1.19,6.506-1.147c1.525-2.228,0.1-4.448-0.832-6.616c-3.076-7.144-7.709-13.247-12.621-19.173
		c2.611-0.607,1.966-2.55,1.734-4.294c-0.215-1.598-0.494-3.187-0.745-4.781c1.209,1.133,2.656,2.099,3.587,3.427
		c5.015,7.16,11.26,13.193,17.576,19.126c2.075,1.95,4.514,5.01,7.584,3.917c3.236-1.15,2.104-5.267,3.124-7.995
		c0.258-0.692-0.07-1.623-0.188-2.435c-1.947-13.503-9.686-23.693-19.552-32.218c-4.943-4.272-11.223-6.75-18.163-3.908
		c-0.34-2.512-2.035-4.459-2.843-6.76c-1.299-3.694-5.135-6.087-5.226-10.368c1.094,0.403,2.179,0.831,3.284,1.206
		c7.199,2.443,8.483,1.691,9.963-6.041c1.952-10.212-1.481-19.732-4.077-29.3c-1.727-6.365-5.94-8.408-12.243-6.647
		c-10.702,2.992-17.028,11.739-17.096,23.642c-6-1.384-10.934-5.17-16.564-7.422c-2.407-0.962-5.63-1.361-6.561-4.647
		c8.097-3.688,15.56-8.152,21.614-14.946c6.732-7.552,5.767-15.68-3.174-20.129c-15.696-7.812-32.904-10.687-49.739-14.679
		c-4.49-1.064-7.422,2.031-6.885,6.695c0.513,4.455,1.508,8.812,3.436,12.988c2.827,6.125,7.244,11.197,10.592,16.963
		c-1.556,0.101-3.025-0.288-4.266-1.164c-8.146-5.742-16.248-11.509-22.386-19.593c-1.541-2.031-2.821-4.552-5.581-5.421
		c1.641-2.665,2.114-5.276,1.202-8.517c-2.907-10.317-7.87-19.036-17.304-24.71c1.337-4.003-2.067-5.499-4.201-7.438
		c-2.187-1.987-4.955-3.316-6.883-5.66c4.475-2.132,9.467-3.146,13.292-6.674c6.615-6.104,6.188-9.692-2.289-12.855
		c-7.531-2.809-13.254-7.206-17.49-14.188c-5.648-9.307-13.488-8.577-18.574,1.225c-4.322,8.335-2.989,16.429,0.887,24.448
		c-5.978,0.549-11.158-3.441-17.114-3.019c-9.965-6.997-20.002-13.893-29.87-21.023c-7.369-5.326-10.987-12.847-11.353-21.84
		c-0.182-4.481-0.508-9.029,0.875-13.433c5.424,0.005,10.85,0.008,16.272,0.011c-0.283,13.763,9.605,22.602,20.427,25.862
		c8.02,2.416,12.726,0.211,17.393-6.852C522.464,11.34,523.15,4.698,523.969-1.907z M602.611,83.686
		c0.398-1.484-0.366-3.5-1.125-5.246c-3.744-8.599-6.13-18.391-17.637-20.461c-5.603-1.008-11.787,1.5-14.481,6.474
		c-2.346,4.333-1.292,10.381,2.622,14.214c6.98,6.84,16.247,9.074,25.144,11.668C600.896,91.433,602.55,87.969,602.611,83.686z"/>
	<path fill-rule="evenodd" clip-rule="evenodd" fill="#1B96D9" d="M546.196,65.446c1.928,2.343,4.696,3.673,6.883,5.66
		c2.134,1.939,5.538,3.436,4.201,7.438c-6.651-2.225-13.249-2.732-20.055-0.31c-2.477,0.881-5.198,1.5-5.604,4.176
		c-0.404,2.663,1.904,4.524,4.04,5.868c2.662,1.677,5.531,2.904,7.917,5.147c5.808,5.465,11.804,10.738,17.884,15.901
		c3.426,2.91,7.3,4.796,11.919,2.444c2.76,0.869,4.04,3.39,5.581,5.421c6.138,8.084,14.24,13.851,22.386,19.593
		c1.24,0.875,2.71,1.265,4.266,1.164c0.767,0.84,1.535,1.68,2.305,2.523c5.87,6.445,11.091,14.232,21.852,10.584
		c0.931,3.286,4.153,3.685,6.561,4.647c5.631,2.251,10.564,6.038,16.564,7.422c4.613,8.194,12.124,12.982,20.169,17.14
		c0.091,4.28,3.927,6.674,5.226,10.368c0.808,2.301,2.503,4.248,2.843,6.76c-2.8,4.479-2.823,8.607,0.983,12.717
		c2.002,2.162,3.387,4.895,5.049,7.369c0.251,1.594,0.53,3.183,0.745,4.781c0.231,1.744,0.877,3.687-1.734,4.294
		c-11.481-13.137-24.783-23.928-40.66-31.349c-4.606-2.153-9.444-3.172-14.62-2.955c-6.812,0.286-9.048,3.423-6.293,9.761
		c2.789,6.418,7.265,11.648,12.622,16.016c2.22,1.809,4.307,3.716,6.307,5.73c0.852,0.858,2.648,1.73,1.535,3.198
		c-0.93,1.229-2.472,0.374-3.705-0.169c-10.943-4.825-21.136-10.91-30.336-18.554c-12.289-10.211-23.461-21.456-31.518-35.449
		c-0.879-1.527-2.906-3.198-1.412-4.847c1.567-1.729,3.377,0.333,4.904,1.083c2.702,1.325,5.391,2.75,7.858,4.456
		c3.063,2.117,6.521,2.779,9.414,0.928c2.989-1.912,3.389-5.915,3.015-9.126c-1.424-12.192-5.695-23.428-13.364-33.081
		c-2.873-3.617-6.535-6.58-11.482-7.569c-6.01-1.201-9.763,1.422-10.083,7.532c-0.25,4.722,0.893,9.294,1.585,13.905
		c0.252,1.677,0.471,3.274,0.138,5.706c-4.183-3.593-5.818-8.047-7.807-12.323c-4.655-10.008-8.706-20.406-17.072-28.166
		c-6.336-5.876-14.107-9.533-21.506-13.75c-11.915-6.792-22.995-14.485-29.382-27.194c-1.393-2.773-4.13-6.705-1.81-8.718
		c2.609-2.264,4.743,2.259,7.098,3.747c3.24,2.049,6.22,4.508,9.428,6.616c1.182,0.778,2.726,2.063,4.125,0.936
		c1.464-1.177,0.925-3.117,0.527-4.719c-1.076-4.337-3.402-7.968-6.543-11.118c-0.819-0.822-1.49-1.794-2.231-2.698
		c5.956-0.423,11.137,3.568,17.114,3.019c3.135,4.389,7.164,7.519,12.669,7.97C538.502,65.686,542.359,65.441,546.196,65.446z
		 M635.368,160.102c-6.052,0.094-13.902,8.563-14.638,15.472c-0.604,5.678,1.249,7.789,6.94,8.741
		c6.887,1.151,13.94,0.98,20.741,2.812c1.56,0.421,3.447,0.568,4.714-0.859c1.426-1.607,0.187-3.139-0.492-4.616
		c-3.081-6.707-8.448-11.983-11.634-18.656C639.954,160.804,637.712,159.704,635.368,160.102z"/>
	<path fill-rule="evenodd" clip-rule="evenodd" fill="#2094DB" d="M709.377,1059.971c-7.894,0.733-14.69-1.239-21.517-2.14
		c-14.391-1.897-28.674-4.491-42.719-8.309c-3.738-1.017-7.639-1.193-7.41,4.739c0.091,2.358-1.933,3.028-3.76,3.348
		c-10.446,1.822-20.285-0.079-29.484-5.235c-1.088-0.609-2.431-1.911-2.512-2.979c-0.472-6.179-3.306-3.046-5.567-1.486
		c-9.818,6.776-19.754,13.48-31.738,15.636c-12.045,2.165-24.208,2.144-36.3-0.039c-1.396-0.252-3.664-0.048-3.658-1.876
		c0.006-2.077,2.448-2.012,3.93-2.23c6.759-0.991,13.563-1.666,20.328-2.619c17.26-2.433,32.35-9.941,45.229-21.304
		c12.059-10.639,24.763-10.025,38.314-4.527c11.933,4.842,23.816,9.806,35.673,14.83c11.294,4.786,22.999,8.153,35.042,10.328
		C705.503,1056.518,707.346,1057.218,709.377,1059.971z"/>
	<path fill-rule="evenodd" clip-rule="evenodd" fill="#2094DB" d="M301.209,752.835c-8.596,1.041-16.161-1.242-23.844-2.196
		c-10.626-1.317-21.042-3.614-31.393-6.32c-3.319-0.867-6.363-0.547-6.954,4.049c-0.425,3.296-3.575,3.422-5.881,3.616
		c-7.868,0.663-15.259-1.366-22.225-4.947c-0.99-0.51-2.299-1.434-2.462-2.344c-0.904-5.064-3.492-3.493-5.789-1.448
		c-16.354,14.572-36.135,15.024-56.327,13.831c-0.982-0.059-1.951-0.452-2.91-0.743c-0.892-0.27-2.312,0.01-2.357-1.335
		c-0.051-1.532,1.368-1.688,2.512-1.86c7.577-1.155,15.186-2.114,22.729-3.452c13.046-2.313,24.005-8.971,34.303-16.938
		c2.51-1.943,5.148-3.729,7.81-5.461c5.426-3.532,11.22-3.499,17.315-1.961c11.927,3.011,22.937,8.38,34.123,13.218
		c11.579,5.007,23.422,8.936,35.766,11.415C297.442,750.323,299.263,750.59,301.209,752.835z"/>
	<path fill-rule="evenodd" clip-rule="evenodd" fill="#349DE2" d="M437.898,662.705c1.581-2.57,4.012-2.041,6.038-2.461
		c12.893-2.673,24.741-8.217,36.761-13.291c1.079-0.456,2.157-0.923,3.215-1.429c11.854-5.67,22.398-5.062,32.664,4.417
		c9.87,9.112,22.875,11.299,35.856,12.539c2.19,0.209,4.307,0.402,6.417,1.867c-1.237,1.707-3.074,1.973-4.783,2.106
		c-14.682,1.143-28.837-0.054-41.056-9.564c-2.134-1.662-3.203-2.433-6.188,0.397c-5.166,4.899-12.46,6.188-19.754,4.722
		c-1.03-0.207-2.543-1.12-2.722-1.946c-1.05-4.874-4.149-3.713-7.315-2.833c-11.302,3.141-22.972,4.26-34.493,6.184
		C441.128,663.649,439.557,663.936,437.898,662.705z"/>
	<path fill-rule="evenodd" clip-rule="evenodd" fill="#349DE2" d="M681.301,334.781c-17.481,1.989-33.62,2.191-48.309-7.361
		c-2.071-1.345-4.02-3.121-6.291,0.788c-2.061,3.548-18.194,5.429-22.078,3.45c-0.149-0.075-0.384-0.111-0.438-0.229
		c-3.196-6.981-8.516-3.211-13.143-2.528c-12.183,1.798-24.366,3.541-37.022,4.5c0.708-2.617,2.739-2.622,4.074-2.78
		c14.616-1.725,28.291-6.877,41.932-11.859c13.18-4.815,25.221-5.707,37.417,3.088c11.046,7.965,24.45,9.384,37.699,10.417
		C677.843,332.479,677.847,332.428,681.301,334.781z"/>
	<path fill-rule="evenodd" clip-rule="evenodd" fill="#349DE2" d="M185.521,392.735c2.835-1.77,6.001-1.664,9.018-2.248
		c10.361-2.003,20.425-5.116,30.291-8.818c6.281-2.357,12.637-4.485,19.196-5.771c7.877-1.545,15.202,0.043,21.878,4.786
		c11.876,8.437,25.565,11.097,39.753,12.011c2.222,0.144,4.698-0.464,6.664,2.359c-7.157,1.317-13.964,2.087-20.904,1.419
		c-10.293-0.99-20.022-3.645-28.711-9.512c-0.85-0.574-2.336-1.815-3.047-0.387c-2.792,5.61-8.462,5.208-13.072,5.727
		c-4.559,0.514-10.471,2.978-13.431-3.987c-0.631-1.483-3.376-0.559-5.179-0.153c-12.88,2.905-25.997,4.156-39.099,5.483
		C187.869,393.746,186.581,394.219,185.521,392.735z"/>
	<path fill-rule="evenodd" clip-rule="evenodd" fill="#2094DB" d="M565.839,527.05c4.127-3.3,8.01-2.999,11.475-3.324
		c8.969-0.838,16.794-4.148,23.946-9.408c2.423-1.783,4.846-3.58,7.385-5.19c3.356-2.127,6.834-2.9,10.939-1.754
		c10.207,2.85,19.53,7.895,29.461,11.406c4.57,1.616,9.066,3.366,13.943,3.868c1.614,0.167,3.296,0.481,4.563,3.136
		c-6.905-0.947-13.241-1.665-19.519-2.725c-4.93-0.834-9.789-2.099-14.683-3.154c-2.031-0.438-4.014-0.893-4.709,2.027
		c-0.463,1.931-2.191,2.532-3.906,2.566c-6.064,0.12-12.09-0.146-16.167-5.629c-1.189-1.601-1.964-0.666-2.819,0.069
		c-7.745,6.652-17.109,8.897-26.917,9.456C574.955,528.616,571.009,527.628,565.839,527.05z"/>
	<path fill-rule="evenodd" clip-rule="evenodd" fill="#2094DB" d="M123.657,222.267c-5.77,2.202-11.795,1.625-17.739,0.575
		c-5.247-0.927-9.481-4.036-13.403-7.481c-2.024-1.779-3.206-3.238-5.479,0.332c-3.394,5.327-12.967,5.184-16.202,0.195
		c-1.272-1.961-2.569-0.943-3.896-0.574c-7.074,1.965-14.19,3.714-21.46,4.812c-2.073,0.313-4.104,0.813-7.509-0.905
		c15.182-2.852,26.365-11.547,39.23-16.502c4.861-1.873,9.117-1.443,12.426,2.137c8.722,9.434,19.444,14.368,32.072,15.581
		c0.636,0.061,1.251,0.348,1.875,0.53C123.6,221.399,123.629,221.833,123.657,222.267z"/>
	<path fill-rule="evenodd" clip-rule="evenodd" fill="#349DE2" d="M318.553,918.105c0.358-0.746,0.452-1.241,0.635-1.276
		c13.403-2.614,25.375-9.237,38.15-13.601c5.407-1.849,10.481-1.684,15.104,2.117c9.047,7.438,19.272,11.837,31.134,12.065
		c1.244,0.023,2.671,0.285,3.304,2.305c-11.241,2.375-21.721,1.589-31.321-5.202c-2.204-1.559-3.878-3.894-6.977,0.091
		c-3.356,4.316-12.83,3.475-16.848-0.415c-1.384-1.341-2.717-0.648-4.175-0.371c-7.692,1.465-15.386,2.928-23.105,4.239
		C322.603,918.372,320.653,918.105,318.553,918.105z"/>
	<path fill-rule="evenodd" clip-rule="evenodd" fill="#349DE2" d="M36.604,1020.962c13.044-2.986,24.882-8.92,37.152-13.716
		c6.272-2.453,12.373-2.112,17.849,2.678c8.238,7.204,17.905,10.94,28.91,11.117c1.603,0.025,3.342,0.083,4.358,2.342
		c-11.74,2.74-22.542,1.542-32.342-5.541c-2.336-1.689-3.844-2.557-6.399,0.318c-3.766,4.235-12.731,3.853-16.393-0.091
		c-1.637-1.764-3.338-1.034-5.063-0.517c-7.4,2.216-15.118,2.743-22.649,4.263C40.318,1022.161,38.422,1022.417,36.604,1020.962z"/>
	<path fill-rule="evenodd" clip-rule="evenodd" fill="#349DE2" d="M330.878,155.481c11.133-2.6,20.435-8.374,30.236-13.027
		c5.027-2.388,9.435-1.704,13.199,2.386c6.204,6.74,14.046,10.032,22.958,11.209c1.192,0.157,3.288-0.521,3.231,1.333
		c-0.059,1.938-2.183,1.548-3.623,1.692c-8.219,0.826-15.714-0.874-21.867-6.666c-1.774-1.669-2.225-1.579-3.851,0.466
		c-3.257,4.098-9.338,3.831-13.656,0.001c-1.419-1.259-2.781-0.481-4.234-0.164c-6.364,1.389-12.741,2.717-19.118,4.047
		C333.213,156.956,332.197,157.345,330.878,155.481z"/>
	<path fill-rule="evenodd" clip-rule="evenodd" fill="#0089CB" d="M102.909,48.42c8.99-1.066,16.266,3.449,23.391,7.751
		c5.796,3.5,5.29,7.065-0.712,10.182c-8.676,4.504-18.625,5.461-27.349,9.913c-3.119,1.592-6.352,2.936-9.387,4.745
		c-2.277,1.357-4.792,2.475-7.344,3.183c-6.038,1.678-9.225-0.394-10.505-6.443C68.2,64.523,73.814,56.015,89.124,50.498
		C93.554,48.901,98.122,47.826,102.909,48.42z"/>
	<path fill-rule="evenodd" clip-rule="evenodd" fill="#0089CB" d="M180.646,63.433c-7.471-0.016-8.833-1.69-6.251-8.52
		c3.776-9.989,8.325-19.498,18.777-24.392c9.745-4.563,26.397-1.329,33.586,6.507c3.818,4.16,3.663,8.188-0.218,12.373
		c-2.248,2.424-5.022,3.927-7.967,5.123C206.402,59.466,193.695,62.195,180.646,63.433z"/>
	<path fill-rule="evenodd" clip-rule="evenodd" fill="#0089CB" d="M40.536,100.684c-6.475,0.043-14.861-6.677-15.725-11.262
		c-0.452-2.404,0.968-3.783,2.832-4.799c9.56-5.206,20.131-7.175,30.656-8.905c5.36-0.882,8.931,5.247,6.003,9.939
		C58.482,94.984,49.142,98.734,40.536,100.684z"/>
	<path fill-rule="evenodd" clip-rule="evenodd" fill="#0089CB" d="M22.29,126.855c-1.354-0.326-3.733,0.942-4.446-1.554
		c-0.673-2.357,1.364-3.587,2.855-4.887c6.664-5.807,14.979-8.106,23.176-10.396c6.699-1.871,13.025-4.268,18.646-8.399
		c0.671-0.494,1.403-0.918,2.146-1.298c2.906-1.486,6.187-3.234,8.461,0.382c2.168,3.447,0.667,6.756-2.175,9.409
		c-4.943,4.612-11.275,6.584-17.445,8.542c-8.274,2.625-16.415,5.738-24.965,7.495C26.556,126.557,24.617,126.939,22.29,126.855z"/>
	<path fill-rule="evenodd" clip-rule="evenodd" fill="#0089CB" d="M238.582,32.156c-6.502-2.068-14.299-4.52-21.477-8.548
		c-2.243-1.258-2.461-3.105-0.303-4.787c6.508-5.072,13.445-9.719,21.52-11.462c9.397-2.029,12.064,4.957,11.532,14.638
		C249.456,29.248,245.622,32.461,238.582,32.156z"/>
	<path fill-rule="evenodd" clip-rule="evenodd" fill="#0089CB" d="M251.262-1.907c16.727-0.011,33.455-0.021,50.18-0.03
		c-6.512,8.683-15.459,12.708-26.007,14.108c-7.521,1-14.542,0.996-20.448-4.754C252.297,4.798,250.68,1.932,251.262-1.907z"/>
	<path fill-rule="evenodd" clip-rule="evenodd" fill="#0087D0" d="M267.313,35.351c-3.085-0.53-7.394,0.161-8.497-2.935
		c-1.211-3.4,2.866-5.227,5.265-7.07c7.475-5.742,16.133-8.8,25.394-9.917c2.825-0.34,6.231-0.228,8.01,2.842
		c1.962,3.386-0.835,5.335-2.835,7.186C286.95,32.58,277.148,34.02,267.313,35.351z"/>
	<path fill-rule="evenodd" clip-rule="evenodd" fill="#0087D0" d="M200.496,86.764c-3.14-0.021-4.792-0.708-3.927-4.506
		c0.806-3.538,0.168-7.288,1.185-10.928c1.053-3.772,3.125-5.99,7.027-5.814c5.554,0.25,11.001,1.304,15.767,4.369
		c3.722,2.394,4.184,6.256,0.764,8.627C215.053,82.853,207.797,84.955,200.496,86.764z"/>
	<path fill-rule="evenodd" clip-rule="evenodd" fill="#0089CB" d="M150.997,61.542c-1.747-0.097-3.388-0.11-4.986-0.835
		c-2.99-1.357-6.055-2.929-6.294-6.505c-0.246-3.679,2.733-5.35,5.671-6.882c6.498-3.388,13.263-5.147,20.632-4.134
		c3.532,0.486,4.358,2.375,2.539,5.199C164.344,54.922,159.735,61.058,150.997,61.542z"/>
	<path fill-rule="evenodd" clip-rule="evenodd" fill="#0087D0" d="M138.113,80.574c-2.698,0.369-4.825-0.83-6.038-3.677
		c-1.22-2.863,1.363-3.841,2.733-5.257c2.772-2.866,6.168-4.577,10.308-4.131c3.718,0.401,5.346,3.082,3.607,6.365
		C146.589,77.902,143.48,80.792,138.113,80.574z"/>
	<path fill-rule="evenodd" clip-rule="evenodd" fill="#F4DDB5" d="M722.266,186.318c0.041,4.524,0.093,9.048,0.114,13.571
		c0.004,0.479-0.151,0.958-0.301,1.839c-12.871-10.257-23.204-21.38-24.025-39.058c-0.563-12.104-3.747-23.768-11.736-33.546
		c-5.074-6.21-11.346-10.813-18.417-14.435c-10.726-5.496-21.793-10.306-31.973-16.881c-13.152-8.498-22.563-19.795-27.285-34.82
		c-3.053-9.708-9.389-16.03-19.188-18.824c-6.271-1.788-12.516-3.697-18.846-5.238c-10.202-2.482-16.822-9.226-21.953-17.841
		c-4.117-6.917-7.766-14.054-9.634-21.964c3.359-2.52,4.041,0.572,4.834,2.541c2.134,5.296,5.036,10.19,7.519,15.298
		c4.938,10.161,13.603,12.853,23.889,13.317c8.484,0.382,16.993,0.954,25.402,2.097c10.26,1.395,16.549,7.443,18.2,18.062
		c0.609-0.312,1.024-0.485,1.398-0.723c1.471-0.941,3.092-2.028,4.101,0.344c0.761,1.792-0.423,2.9-2.12,3.217
		c-1.804,0.337-2.669,1.132-2.354,3.063c2.473,15.166,8.258,28.364,22.59,35.914c3.536,1.862,7.477,5.018,12.069,1.766
		c0.415-0.294,1.647-0.229,1.847,0.084c3.624,5.696,9.665,4.148,14.778,4.711c19.329,2.123,28.757,13.884,33.209,31.781
		c3.439,13.82,3.556,28.143,7.162,41.808C713.017,177.981,715.426,184.222,722.266,186.318z"/>
	<path fill-rule="evenodd" clip-rule="evenodd" fill="#F4DDB5" d="M571.292,8.766c0.055,1.852-1.107,2.813-2.69,2.908
		c-1.674,0.099-2.906-1.068-2.822-2.723c0.085-1.612,1.389-2.636,3.022-2.698C570.371,6.192,571.097,7.292,571.292,8.766z"/>
	<path fill-rule="evenodd" clip-rule="evenodd" fill="#F4DDB5" d="M612.344,23.318c1.313,0.24,2.161,1.012,2.14,2.355
		c-0.021,1.324-0.768,2.395-2.186,2.072c-1.341-0.305-2.464-1.304-2.226-2.881C610.239,23.762,611.219,23.305,612.344,23.318z"/>
	<path fill-rule="evenodd" clip-rule="evenodd" fill="#F4DDB5" d="M92.64,18.974c-1.561-0.159-2.388-1.084-2.482-2.58
		c-0.106-1.686,0.564-3.021,2.405-3.096c1.558-0.063,2.379,1.035,2.479,2.528C95.156,17.521,94.449,18.695,92.64,18.974z"/>
	<path fill-rule="evenodd" clip-rule="evenodd" fill="#0089CB" d="M29.603,442.036c0.069-0.662,0.137-1.322,0.205-1.985
		c0.627-0.345,1.255-0.69,1.884-1.035c3.999-3.251,8.186-4.069,13.012-1.625c4.92,2.491,6.028,6.605,6.194,11.624
		c0.164,4.922-1.426,9.195-3.713,13.344c-3.394,6.157-5.013,6.435-10.47,1.841c-0.671-1.343-1.681-2.351-3.007-3.047
		c-0.007-1.835,0.37-3.773-0.095-5.484C32.372,451.102,33.962,445.674,29.603,442.036z"/>
	<path fill-rule="evenodd" clip-rule="evenodd" fill="#0087D0" d="M59.914,544.422c-0.113,4.534-0.903,8.958-2.519,13.189
		c-1.54,4.031-4.833,6.451-8.914,5.983c-4.703-0.541-9.898-1.417-12.097-6.675c-1.532-3.666,1.28-6.482,3.069-9.042
		c3.517-5.028,8.629-8.352,14.319-10.587C58.071,535.604,59.897,537.821,59.914,544.422z"/>
	<path fill-rule="evenodd" clip-rule="evenodd" fill="#0089CB" d="M34.711,515.513c-1.941-10.653,0.643-21.43-0.874-32.097
		c1.88-0.313,3.017-1.556,3.894-3.122c2.969-0.269,4.357,1.608,4.783,4.061c1.546,8.909,1.468,17.801-1.111,26.542
		C40.448,514.129,38.318,515.972,34.711,515.513z"/>
	<path fill-rule="evenodd" clip-rule="evenodd" fill="#0087D0" d="M18.665,421.869c-1.371-3.909-2.626-7.837-2.093-12.076
		c4.127,0.092,8.5-0.744,12.137,1.801c6.723,4.705,9.204,12.572,0.966,18.359C24.216,429.694,22.75,423.999,18.665,421.869z"/>
	<path fill-rule="evenodd" clip-rule="evenodd" fill="#0087D0" d="M23.593,592.004c0.34-0.014,0.68-0.028,1.019-0.042
		c1.086,2.014,1.089,4.027,0.538,6.273c-1.781,7.257-3.258,14.59-5.031,21.85c-1.092,4.473-2.777,5.071-6.081,1.99
		c-2.34-2.182-5.637-3.903-5.553-7.874c1.333-0.076,2.063-0.979,2.628-2.015C14.906,605.231,20.504,599.392,23.593,592.004z"/>
	<path fill-rule="evenodd" clip-rule="evenodd" fill="#0087D0" d="M29.615,546.863c-0.283-9.04,0.536-17.912,4.016-26.378
		c6.991,2.119,7.387,8.667,5.159,14.803C37.068,540.028,33.807,543.901,29.615,546.863z"/>
	<path fill-rule="evenodd" clip-rule="evenodd" fill="#1B97D5" d="M24.616,587.064c-0.664-0.008-1.326-0.008-1.989-0.024
		c-5.32-0.124-5.706-0.542-3.774-5.311c2.301-5.684,4.306-11.453,5.864-17.383c0.534-2.029,1.112-4.09,3.956-2.473
		c0,0.996,0,1.991,0,2.987c0.174,7.341-0.637,14.494-4.024,21.158C24.638,586.367,24.627,586.716,24.616,587.064z"/>
	<path fill-rule="evenodd" clip-rule="evenodd" fill="#0087D0" d="M55.72,571.583c-1.206,4.343-2.751,8.737-5.156,12.779
		c-0.841,1.415-2.138,1.868-3.249,0.528c-2.253-2.718-4.531-5.727-3.114-9.472c1.475-3.902,4.289-6.788,8.669-7.439
		C55.407,567.601,56.031,569.222,55.72,571.583z"/>
	<path fill-rule="evenodd" clip-rule="evenodd" fill="#1B97D5" d="M23.593,592.004c-3.089,7.388-8.688,13.227-12.479,20.183
		c-0.564,1.035-1.295,1.939-2.628,2.015c-0.345-0.012-0.69-0.022-1.036-0.035C5.272,605.22,14.264,592.876,23.593,592.004z"/>
	<path fill-rule="evenodd" clip-rule="evenodd" fill="#0087D0" d="M24.649,586.019c3.387-6.664,4.198-13.816,4.024-21.158
		c2.952,1.61,4.533,4.449,6.018,7.21C37.657,577.588,32.58,584.52,24.649,586.019z"/>
	<path fill-rule="evenodd" clip-rule="evenodd" fill="#2094DB" d="M37.73,480.294c-0.876,1.566-2.014,2.81-3.894,3.122
		c-0.278-7.423-1.831-14.782-1.132-22.255c0.334-0.001,0.668-0.004,1.002-0.008c1.326,0.696,2.336,1.704,3.007,3.047
		C36.11,469.625,37.773,474.906,37.73,480.294z"/>
	<path fill-rule="evenodd" clip-rule="evenodd" fill="#1B97D5" d="M18.665,421.869c4.084,2.13,5.551,7.826,11.01,8.085
		c0.672,3.021,1.344,6.042,2.017,9.063c-0.628,0.344-1.257,0.689-1.884,1.035c-1.285-3.23-2.433-5.555-6.777-6.839
		C19.582,432.193,19.423,426.045,18.665,421.869z"/>
	<path fill-rule="evenodd" clip-rule="evenodd" fill="#30C972" d="M622.703-1.906c33.178-0.015,66.355-0.029,99.535-0.045
		c-0.006,33.207-0.01,66.415-0.014,99.621c-1.15-2.792-1.562-5.74-1.858-8.714c-0.209-2.071-0.694-4.299-2.762-4.995
		c-2.848-0.959-3.172-2.837-3.333-5.385c-0.399-6.302-1.977-7.949-8.183-9.333c-7.16-1.597-7.774-2.698-5.62-10.087
		c1.354-4.653,0.662-5.697-4.254-5.738c-2.97-0.024-5.55-0.171-7.189-3.302c-3.357-6.402-3.462-6.348-10.37-3.584
		c-4.832,1.932-9.174,0.482-10.466-3.495c-2.498-7.686-2.498-7.686-10.654-6.126c-4.944,0.946-8.065-0.836-8.502-5.858
		c-0.545-6.242-3.127-10.144-9.418-11.506c-4.464-0.967-6.354-3.983-5.837-8.509l-0.021,0.051c3.204-3.847,2.842-5.726-1.404-7.107
		C628.668,2.779,625.382,0.938,622.703-1.906z M663.454,7.062c2.431-0.544,5.711-0.863,5.278-4.051
		c-0.345-2.521-3.756-2.809-5.943-3.051c-2.147-0.238-5.284,0.757-5.154,3.24C657.776,5.923,660.862,6.609,663.454,7.062z
		 M703.154,35.26c2.842-0.124,4.913-0.229,5.947-2.403c2.212-4.657-4.073-1.235-3.982-4.148c0.035-1.152-1.53-1.863-2.173-1.034
		c-1.348,1.737-4.875,1.929-4.289,4.75C699.154,34.822,701.581,35.401,703.154,35.26z M712.448,10.874
		c0.972-0.853,3.524-0.604,3.278-2.726c-0.175-1.518-2.32-2.561-3.756-2.525c-1.162,0.03-3.16,0.995-3.086,2.685
		C708.954,9.901,710.413,10.748,712.448,10.874z M716.954,57.75c-0.642-1.648-2.347-2.367-3.676-2.706
		c-1.333-0.341-3.052,0.951-3.335,2.315c-0.353,1.698,1.248,2.671,2.792,2.743C714.415,60.181,715.926,59.431,716.954,57.75z"/>
	<path fill-rule="evenodd" clip-rule="evenodd" fill="#30AF64" d="M633.778,11.036c-0.517,4.526,1.373,7.542,5.837,8.509
		c6.291,1.362,8.873,5.264,9.418,11.506c0.437,5.022,3.558,6.805,8.502,5.858c8.156-1.56,8.156-1.56,10.654,6.126
		c1.292,3.977,5.634,5.427,10.466,3.495c6.908-2.764,7.013-2.818,10.37,3.584c1.64,3.131,4.22,3.277,7.189,3.302
		c4.916,0.042,5.608,1.085,4.254,5.738c-2.154,7.39-1.54,8.491,5.62,10.087c6.206,1.385,7.783,3.032,8.183,9.333
		c0.161,2.548,0.485,4.426,3.333,5.385c2.067,0.696,2.553,2.924,2.762,4.995c0.297,2.974,0.708,5.922,1.858,8.714
		c0.035,1.684,0.07,3.369,0.104,5.054c-3.148-0.313-2.561-2.937-3.099-4.919c-1.212-4.46-0.362-10.022-6.667-11.754
		c-1.589-0.437-1.432-2.511-1.398-4.013c0.13-6.046-2.67-9.888-8.584-11.201c-5.482-1.217-6.493-4.517-4.817-9.36
		c1.343-3.88-0.362-5.426-4.157-4.99c-4.24,0.487-7.19-0.84-8.392-5.226c-0.861-3.136-3.007-3.48-5.896-2.744
		c-8.313,2.119-10.518,1.274-14.944-5.714c-1.244-1.966-2.846-2.512-4.995-2.681c-10.81-0.844-11.787-1.566-14.578-11.649
		c-1.104-3.989-4.231-5.337-7.459-6.791C630.88,18.771,630.449,17.46,633.778,11.036z"/>
	<path fill-rule="evenodd" clip-rule="evenodd" fill="#F4DDB5" d="M5.133,559.957c1.587,0.403,2.44,1.289,2.128,2.855
		c-0.254,1.277-1.18,2.011-2.499,1.826c-1.536-0.215-2.315-1.226-2.031-2.781C2.97,560.545,3.953,560.02,5.133,559.957z"/>
	<path fill-rule="evenodd" clip-rule="evenodd" fill="#5BAED2" d="M27.668,481.294c1.778,4.617,2.906,9.398,1.329,14.212
		c-1.23,3.756-1.404,7.502-1.386,11.352c0.009,1.928,0.542,3.473,1.814,5.004c3.438,4.135,3.22,6.18-1.014,9.265
		c-1.375,1.002-2.24,2.28-2.279,3.683c-0.205,7.332-0.506,14.612-3.057,21.619c-0.464,1.274,0.871,2.016,1.69,2.831
		c2.82,2.81,3.163,5.532-0.768,7.503c-2.277,1.142-2.902,2.985-3.389,5.16c-1.31,5.846-2.463,11.74-4.125,17.487
		c-1.187,4.104-3.641,7.46-8.249,8.467c6.504-12.378,7.745-25.729,7.445-39.412c-0.114-5.168,0.197-10.346,0.409-15.522
		C16.826,514.992,25.681,498.921,27.668,481.294z"/>
	<path fill-rule="evenodd" clip-rule="evenodd" fill="#F5F9FA" d="M27.668,481.294c-1.987,17.626-10.842,33.698-11.579,51.649
		c-0.212,5.176-0.523,10.354-0.409,15.522c0.3,13.683-0.94,27.034-7.445,39.412c-0.566,0.739-1.132,1.479-1.697,2.218
		c-0.369-2.302,0.572-4.265,1.586-6.216c3.951-7.606,5.491-15.801,5.423-24.262c-0.133-16.601-0.349-33.288,4.484-49.309
		c3.946-13.083,7.301-26.074,6.68-39.867c-0.308-6.829-2.133-13.294-7.201-17.688c-8.72-7.559-10.817-17.23-10.967-27.9
		c1.623,1.892,1.973,4.269,1.887,6.543c-0.245,6.542,2.716,11.56,7.125,15.922c3.206,3.171,6.163,6.537,8.849,10.15
		C28.292,465.027,27.86,473.178,27.668,481.294z"/>
	<path fill-rule="evenodd" clip-rule="evenodd" fill="#1B97D5" d="M33.707,461.153c-0.334,0.004-0.668,0.007-1.002,0.008
		c-2.218-3.133-4.172-6.351-5.268-10.125c-1.034-3.56-0.665-6.505,2.167-9c4.358,3.638,2.768,9.066,4.008,13.633
		C34.077,457.38,33.7,459.318,33.707,461.153z"/>
	<path fill-rule="evenodd" clip-rule="evenodd" fill="#F5F9FA" d="M4.541,594.638c-0.075-1.871-0.035-3.689,2.036-4.611
		C6.498,591.829,5.822,593.367,4.541,594.638z"/>
	<path fill-rule="evenodd" clip-rule="evenodd" fill="#F5F9FA" d="M2.475,600.438c0.051-1.228-0.143-2.534,1.102-3.371
		C3.705,598.352,3.308,599.466,2.475,600.438z"/>
	<path fill-rule="evenodd" clip-rule="evenodd" fill="#F5F9FA" d="M3.526,597.162c-0.002-0.966,0.271-1.81,1.077-2.421
		C4.567,595.688,4.491,596.623,3.526,597.162z"/>
	<path fill-rule="evenodd" clip-rule="evenodd" fill="#F5F9FA" d="M0.514,416.784c1.844,0.192,2.726,1.343,3.051,3.053
		C1.64,419.727,0.62,418.711,0.514,416.784z"/>
	<path fill-rule="evenodd" clip-rule="evenodd" fill="#F5F9FA" d="M5.545,422.838c0.996,0.367,1.101,1.179,1.038,2.076
		C5.651,424.514,5.492,423.729,5.545,422.838z"/>
	<path fill-rule="evenodd" clip-rule="evenodd" fill="#F5F9FA" d="M4.519,420.831c0.912,0.398,1.131,1.153,1.057,2.059
		C4.64,422.503,4.455,421.731,4.519,420.831z"/>
	<path fill-rule="evenodd" clip-rule="evenodd" fill="#F5F9FA" d="M-0.52,415.787c0.635,0.064,1.021,0.377,1.056,1.046
		C0.184,416.485-0.167,416.136-0.52,415.787z"/>
	<path fill-rule="evenodd" clip-rule="evenodd" fill="#F5F9FA" d="M3.513,419.813c0.347,0.356,0.694,0.713,1.041,1.069
		C4.207,420.526,3.86,420.169,3.513,419.813z"/>
	<path fill-rule="evenodd" clip-rule="evenodd" fill="#30AF64" d="M622.703-1.906c2.679,2.844,5.965,4.685,9.649,5.886
		c4.246,1.382,4.608,3.261,1.404,7.107c0.301-2.671-1.55-3.293-3.569-3.992c-5.589-1.935-10.631-4.818-14.81-9.079
		C617.818-1.957,620.261-1.931,622.703-1.906z"/>
	<path fill-rule="evenodd" clip-rule="evenodd" fill="#0089CB" d="M523.969-1.907c-0.818,6.604-1.505,13.247-5.317,19.016
		c-4.667,7.063-9.373,9.267-17.393,6.852c-10.821-3.261-20.71-12.1-20.427-25.862C495.212-1.903,509.591-1.905,523.969-1.907z"/>
	<path fill-rule="evenodd" clip-rule="evenodd" fill="#0089CB" d="M629.771,151.056c-10.761,3.648-15.981-4.139-21.852-10.584
		c-0.77-0.843-1.538-1.683-2.305-2.523c-3.348-5.766-7.765-10.838-10.592-16.963c-1.928-4.176-2.923-8.533-3.436-12.988
		c-0.537-4.665,2.395-7.76,6.885-6.695c16.835,3.992,34.043,6.867,49.739,14.679c8.94,4.449,9.906,12.577,3.174,20.129
		C645.33,142.904,637.867,147.368,629.771,151.056z"/>
	<path fill-rule="evenodd" clip-rule="evenodd" fill="#0089CB" d="M546.196,65.446c-3.837-0.005-7.694,0.239-11.506-0.074
		c-5.505-0.451-9.534-3.581-12.669-7.97c-3.876-8.02-5.209-16.113-0.887-24.448c5.086-9.802,12.926-10.532,18.574-1.225
		c4.236,6.981,9.959,11.378,17.49,14.188c8.478,3.163,8.904,6.751,2.289,12.855C555.663,62.3,550.671,63.314,546.196,65.446z"/>
	<path fill-rule="evenodd" clip-rule="evenodd" fill="#0089CB" d="M673.064,180.265c-8.045-4.158-15.556-8.946-20.169-17.14
		c0.067-11.903,6.394-20.65,17.096-23.642c6.303-1.761,10.517,0.282,12.243,6.647c2.596,9.567,6.029,19.087,4.077,29.3
		c-1.479,7.732-2.764,8.484-9.963,6.041C675.243,181.096,674.158,180.668,673.064,180.265z"/>
	<path fill-rule="evenodd" clip-rule="evenodd" fill="#0089CB" d="M687.165,217.479c-1.662-2.475-3.047-5.207-5.049-7.369
		c-3.807-4.109-3.783-8.237-0.983-12.717c6.94-2.842,13.22-0.364,18.163,3.908c9.866,8.525,17.604,18.715,19.552,32.218
		c0.118,0.812,0.446,1.742,0.188,2.435c-1.021,2.728,0.112,6.844-3.124,7.995c-3.07,1.093-5.509-1.967-7.584-3.917
		c-6.316-5.933-12.562-11.966-17.576-19.126C689.821,219.578,688.374,218.612,687.165,217.479z"/>
	<path fill-rule="evenodd" clip-rule="evenodd" fill="#0087D0" d="M573.382,111.771c-4.619,2.352-8.493,0.466-11.919-2.444
		c-6.08-5.163-12.076-10.436-17.884-15.901c-2.386-2.244-5.255-3.471-7.917-5.147c-2.136-1.344-4.444-3.205-4.04-5.868
		c0.405-2.675,3.127-3.295,5.604-4.176c6.806-2.423,13.403-1.916,20.055,0.31c9.434,5.674,14.396,14.393,17.304,24.71
		C575.496,106.495,575.022,109.107,573.382,111.771z"/>
	<path fill-rule="evenodd" clip-rule="evenodd" fill="#0089CB" d="M602.611,83.686c-0.062,4.283-1.715,7.747-5.478,6.65
		c-8.896-2.595-18.163-4.829-25.144-11.668c-3.914-3.833-4.968-9.882-2.622-14.214c2.694-4.973,8.879-7.481,14.481-6.474
		c11.507,2.07,13.893,11.862,17.637,20.461C602.245,80.186,603.01,82.202,602.611,83.686z"/>
	<path fill-rule="evenodd" clip-rule="evenodd" fill="#0087D0" d="M635.368,160.102c2.344-0.398,4.586,0.702,5.632,2.894
		c3.186,6.672,8.553,11.949,11.634,18.656c0.679,1.478,1.918,3.009,0.492,4.616c-1.267,1.428-3.154,1.28-4.714,0.859
		c-6.801-1.832-13.854-1.661-20.741-2.812c-5.691-0.953-7.544-3.063-6.94-8.741C621.466,168.666,629.316,160.196,635.368,160.102z"
		/>
	<path fill-rule="evenodd" clip-rule="evenodd" fill="#63D594" d="M663.454,7.062c-2.592-0.452-5.678-1.139-5.819-3.862
		c-0.13-2.483,3.007-3.478,5.154-3.24c2.188,0.242,5.599,0.53,5.943,3.051C669.165,6.198,665.885,6.517,663.454,7.062z"/>
	<path fill-rule="evenodd" clip-rule="evenodd" fill="#63D594" d="M703.154,35.26c-1.573,0.142-4-0.438-4.497-2.834
		c-0.586-2.821,2.941-3.014,4.289-4.75c0.643-0.83,2.208-0.119,2.173,1.034c-0.091,2.913,6.194-0.508,3.982,4.148
		C708.067,35.031,705.996,35.136,703.154,35.26z"/>
	<path fill-rule="evenodd" clip-rule="evenodd" fill="#63D594" d="M712.448,10.874c-2.035-0.125-3.494-0.972-3.563-2.565
		c-0.074-1.69,1.924-2.655,3.086-2.685c1.436-0.036,3.581,1.007,3.756,2.525C715.973,10.27,713.42,10.021,712.448,10.874z"/>
	<path fill-rule="evenodd" clip-rule="evenodd" fill="#63D594" d="M716.954,57.75c-1.028,1.681-2.539,2.432-4.219,2.353
		c-1.544-0.072-3.145-1.045-2.792-2.743c0.283-1.365,2.002-2.657,3.335-2.315C714.607,55.382,716.313,56.102,716.954,57.75z"/>
</g>
</svg>
