<?xml version="1.0" encoding="utf-8"?>
<!-- Generator: Adobe Illustrator 16.0.0, SVG Export Plug-In . SVG Version: 6.00 Build 0)  -->
<!DOCTYPE svg PUBLIC "-//W3C//DTD SVG 1.1//EN" "http://www.w3.org/Graphics/SVG/1.1/DTD/svg11.dtd">
<svg version="1.1" id="Layer_1" xmlns="http://www.w3.org/2000/svg" xmlns:xlink="http://www.w3.org/1999/xlink" x="0px" y="0px"
	 width="256px" height="256px" viewBox="0 0 256 256" enable-background="new 0 0 256 256" xml:space="preserve">
<g>
	<path fill="#F05134" d="M134.302,255.142c-89.487,0-99.893-59.311-90.527-99.372c0,0,11.446,20.811,20.29,24.452
		c0,0-16.128-38.499-0.52-69.717c0,0,7.284,5.723,8.324,15.608c1.042,9.886,11.967,10.406,11.967,10.406S72.39,100.1,88.518,79.289
		c16.129-20.81,19.25-49.425,19.25-49.425s17.169,32.256,14.568,50.466c0,0,19.77-32.257,12.485-79.082
		c0,0,33.298,33.817,32.258,70.236c-1.041,36.419-1.041,38.5,3.642,47.345c0,0,9.365-7.284,13.527-34.338
		c0,0,17.689,32.257,10.926,53.067s-5.724,35.898-5.724,35.898s11.967-6.242,17.169-26.013
		C206.619,147.445,251.363,255.142,134.302,255.142z"/>
	<path fill="#F78C23" d="M125.457,241.613c-59.831,0-67.635-51.506-67.635-51.506s10.926-1.041,18.21,6.243
		c0,0-10.926-36.419-7.284-52.027c0,0,6.763,9.885,13.007,10.926c6.243,1.04,13.527,1.04,16.648,4.683
		c0,0-18.729-46.824,6.245-79.082c0,0,7.283,5.203,9.885,27.054c0,0,27.054-17.689,30.696-53.068c0,0,11.967,11.967,9.365,38.5
		c-2.602,26.534,10.405,44.224,10.405,44.224s9.885-1.561,15.088-11.966c0,0,5.202,10.406,0.521,28.095
		c-4.683,17.689,1.041,36.419,1.041,36.419s11.444-2.081,17.688-10.406C199.336,179.701,212.863,241.613,125.457,241.613z"/>
	<path fill="#FED937" d="M133.261,228.607c-50.466,0-49.946-24.453-49.946-24.453s8.325-2.601,15.609,1.562
		c0,0-15.609-17.169-13.007-31.737c0,0,14.567-3.121,23.412,1.561c0,0-7.804-28.094,0-48.385c0,0,7.284,2.081,13.007,9.365
		c0,0,12.485-16.649,18.209-37.98c0,0,12.487,20.291,10.406,59.312c0,0,9.885-2.602,14.566-7.805c0,0,2.081,33.298-5.723,51.508
		c0,0,10.406-1.041,16.649-4.684C176.444,196.87,174.883,228.607,133.261,228.607z"/>
	<path fill="#FDF499" d="M130.74,221.64c-26.612,0-26.338-12.895-26.338-12.895s4.39-1.371,8.231,0.822
		c0,0-8.231-9.053-6.859-16.734c0,0,7.682-1.646,12.345,0.823c0,0-4.115-14.814,0-25.515c0,0,3.841,1.098,6.859,4.938
		c0,0,6.584-8.779,9.602-20.028c0,0,6.586,10.7,5.488,31.276c0,0,5.213-1.371,7.682-4.115c0,0,1.097,17.559-3.018,27.161
		c0,0,5.486-0.549,8.778-2.47C153.511,204.904,152.688,221.64,130.74,221.64z"/>
</g>
</svg>
