<?xml version="1.0" encoding="utf-8"?>
<!-- Generator: Adobe Illustrator 16.0.0, SVG Export Plug-In . SVG Version: 6.00 Build 0)  -->
<!DOCTYPE svg PUBLIC "-//W3C//DTD SVG 1.1//EN" "http://www.w3.org/Graphics/SVG/1.1/DTD/svg11.dtd">
<svg version="1.1" id="Layer_1" xmlns="http://www.w3.org/2000/svg" xmlns:xlink="http://www.w3.org/1999/xlink" x="0px" y="0px"
	 width="256px" height="256px" viewBox="0 0 256 256" enable-background="new 0 0 256 256" xml:space="preserve">
<g>
	<path fill="#F05134" d="M135.631,254.944c-104.49-0.977-126.95-90.817-62.499-184.563c0,0,8.789,9.766,12.694,18.555
		c0,0,19.531-67.381,50.782-87.888c0,0,27.342,56.639,33.2,83.98c0,0,4.883-12.694,11.718-23.436
		C181.526,61.593,290.967,256.396,135.631,254.944z"/>
	<path fill="#F78C23" d="M129.771,237.366c-86.911,0-85.934-78.121-56.638-128.901c0,0,7.812,4.883,12.694,12.694
		c0,0,24.413-70.309,42.968-83.98c0,0,27.343,52.733,35.156,76.169c0,0,9.765-14.649,15.625-19.531
		C179.575,93.818,261.602,237.366,129.771,237.366z"/>
	<path fill="#FED937" d="M129.526,222.719c-67.12,0-53.696-60.854-46.536-77.857c0,0,8.95,4.474,12.529,11.634
		c0,0,9.844-51.905,32.216-69.803c0,0,26.848,42.956,32.217,59.959c0,0,9.844-8.95,15.214-11.634
		C175.167,135.018,213.649,222.719,129.526,222.719z"/>
	<path fill="#FDF499" d="M129.874,211.967c-40.712,0-32.57-36.913-28.228-47.228c0,0,5.429,2.714,7.6,7.058
		c0,0,5.971-31.483,19.542-42.341c0,0,16.285,26.056,19.542,36.37c0,0,5.971-5.43,9.228-7.058
		C157.558,158.769,180.9,211.967,129.874,211.967z"/>
</g>
</svg>
