<?xml version="1.0" encoding="utf-8"?>
<!-- Generator: Adobe Illustrator 16.0.0, SVG Export Plug-In . SVG Version: 6.00 Build 0)  -->
<!DOCTYPE svg PUBLIC "-//W3C//DTD SVG 1.1//EN" "http://www.w3.org/Graphics/SVG/1.1/DTD/svg11.dtd">
<svg version="1.1" id="Layer_1" xmlns="http://www.w3.org/2000/svg" xmlns:xlink="http://www.w3.org/1999/xlink" x="0px" y="0px"
	 width="256px" height="256px" viewBox="0 0 256 256" enable-background="new 0 0 256 256" xml:space="preserve">
<g>
	<path fill="#F05134" d="M115.202,254.387c-79.662-4.171-69.014-77.43-47.131-96.507c21.882-19.077,8.978-41.52-4.488-43.203
		c-13.466-1.684-11.223,15.149-6.172,18.514c0,0-17.956,2.245-17.956-20.198c0-22.442,40.398-40.397,58.353-9.538
		c0,0,15.15-24.688-0.561-39.838c-15.71-15.148-5.611-62.841,23.565-62.28c0,0-21.321,29.177,3.367,48.816
		c24.688,19.637,33.104,37.592,30.298,68.452c0,0,12.905-29.177,35.348-28.616c22.444,0.562,30.301,20.199,25.249,33.104
		c0,0-5.049-15.15-18.516-14.027c-13.466,1.122-20.197,25.81-10.099,48.254C196.559,179.764,222.369,259.998,115.202,254.387z"/>
	<path fill="#F78C23" d="M126.424,243.165c-45.967,1.999-74.625-38.153-59.476-62.28c15.149-24.126,24.126-26.37,21.883-49.936
		c-2.245-23.567-10.101-26.372-18.517-26.372c0,0,23.566-10.099,34.788,22.443c0,0,16.271-22.443,10.099-42.081
		c-6.172-19.638-18.516-30.299-11.783-48.253c0,0,3.367,17.394,16.833,26.37c13.466,8.978,31.421,51.059,24.688,89.773
		c0,0,6.732-30.297,25.249-36.47c0,0-7.295,21.882,1.12,39.837C179.727,174.152,203.854,239.799,126.424,243.165z"/>
	<path fill="#FED937" d="M118.604,231.944c-44.666-3.621-49.946-37.033-34.858-52.181c15.088-15.15,15.608-30.86,13.527-42.082
		c0,0,9.886,6.172,11.447,17.394c0,0,14.567-16.833,17.169-37.592c0,0,14.568,28.053,11.446,54.986c0,0,13.006-10.66,16.128-21.882
		C153.463,150.587,187.802,237.556,118.604,231.944z"/>
	<path fill="#FDF499" d="M118.797,223.713c-25.942-2.104-29.01-21.508-20.247-30.307c8.764-8.8,9.065-17.923,7.857-24.441
		c0,0,5.741,3.585,6.647,10.103c0,0,8.461-9.776,9.972-21.835c0,0,8.461,16.295,6.649,31.938c0,0,7.553-6.192,9.367-12.71
		C139.043,176.46,158.985,226.971,118.797,223.713z"/>
</g>
</svg>
