<?xml version="1.0" encoding="utf-8"?>
<!-- Generator: Adobe Illustrator 16.0.0, SVG Export Plug-In . SVG Version: 6.00 Build 0)  -->
<!DOCTYPE svg PUBLIC "-//W3C//DTD SVG 1.1//EN" "http://www.w3.org/Graphics/SVG/1.1/DTD/svg11.dtd">
<svg version="1.1" id="Layer_1" xmlns="http://www.w3.org/2000/svg" xmlns:xlink="http://www.w3.org/1999/xlink" x="0px" y="0px"
	 width="256px" height="256px" viewBox="0 0 256 256" enable-background="new 0 0 256 256" xml:space="preserve">
<g>
	<path fill="#F05134" d="M131.759,254.897c-78.956,0-87.068-71.846-71.926-103.438c15.142-31.593-3.245-65.223-3.245-65.223
		s24.335,10.19,27.04,30.063c0,0,22.713-28.025,8.652-51.974s3.245-55.54,17.306-63.184c0,0,0,37.707,16.223,48.917
		c16.224,11.21,16.765,31.592,16.765,31.592s5.949-24.969,29.744-32.103c0,0-10.816,35.669,7.03,66.751
		C197.194,147.383,238.835,254.897,131.759,254.897z"/>
	<path fill="#F78C23" d="M131.747,241.451c-62.971,0-71.657-52.658-61.886-73.83c9.771-21.171,9.771-43.97,9.771-43.97
		s9.229,10.856,10.857,23.343c0,0,22.8-34.744,22.8-55.372c0-20.627-10.314-28.228-4.886-40.17c0,0,4.886,12.485,14.658,17.371
		c9.771,4.886,16.286,33.114,16.829,46.142c0,0,6.514-22.256,15.742-27.685c0,0,2.714,26.056,14.656,44.514
		C182.232,150.251,214.805,241.451,131.747,241.451z"/>
	<path fill="#FED937" d="M127.973,227.808c-51.415,0-49.756-45.887-43.122-62.471c0,0,6.634,3.868,9.398,12.715
		c0,0,28.747-34.275,30.406-70.211c0,0,11.611,18.798,14.375,35.936c0,0,4.976-15.48,12.714-22.115c0,0,1.105,16.033,10.505,30.959
		C171.647,167.548,190.443,227.808,127.973,227.808z"/>
	<path fill="#FDF499" d="M126.195,219.194c-29.656,0-28.7-26.468-24.873-36.034c0,0,3.827,2.231,5.422,7.335
		c0,0,16.582-19.771,17.539-40.499c0,0,6.696,10.842,8.291,20.728c0,0,2.869-8.929,7.335-12.756c0,0,0.637,9.249,6.058,17.858
		C151.388,184.437,162.23,219.194,126.195,219.194z"/>
</g>
</svg>
