<?xml version="1.0" encoding="utf-8"?>
<!-- Generator: Adobe Illustrator 16.0.0, SVG Export Plug-In . SVG Version: 6.00 Build 0)  -->
<!DOCTYPE svg PUBLIC "-//W3C//DTD SVG 1.1//EN" "http://www.w3.org/Graphics/SVG/1.1/DTD/svg11.dtd">
<svg version="1.1" id="Layer_1" xmlns="http://www.w3.org/2000/svg" xmlns:xlink="http://www.w3.org/1999/xlink" x="0px" y="0px"
	 width="256px" height="256px" viewBox="0 0 256 256" enable-background="new 0 0 256 256" xml:space="preserve">
<g>
	<path fill="#F05134" d="M138.214,255.069c-92.907,4.459-102.016-88.515-88.513-125.271c0,0,3,18.753,15.002,27.756
		c0,0-0.75-33.757,15.752-57.762c16.503-24.003,15.753-65.26,15.753-65.26s21.753,21.003,26.254,36.005
		c0,0,6.751-38.256-8.251-69.762c0,0,36.755,17.253,43.505,57.761c6.752,40.507,15.004,66.01,15.004,66.01s7.5-12.002,5.251-39.006
		c0,0,29.255,33.755,15.752,92.265c0,0,10.502-0.749,15.004-17.253C208.728,160.553,231.979,250.567,138.214,255.069z"/>
	<path fill="#F78C23" d="M135.215,241.593c-59.17,4.041-75.013-38.934-76.513-61.474c0,0,5.251,6.146,14.252,8.879
		c0,0-3.75-32.103,13.503-53.961c17.252-21.857,18.753-51.912,18.753-51.912s12.751,7.513,17.252,21.174
		c0,0,15.751-10.245,12.001-45.763c0,0,18.753,34.835,18.753,60.107c0,25.273,11.252,39.617,11.252,39.617
		s9.752-2.048,13.503-12.295c0,0,7.5,31.421-2.252,51.229c0,0,9.752-2.048,16.503-5.464
		C192.223,191.73,195.224,237.493,135.215,241.593z"/>
	<path fill="#FED937" d="M124.209,229.566c-37.078-0.64-45.254-24.672-45.254-24.672s4.114-2.056,10.971-0.685
		c0,0-5.485-28.099,4.799-39.748c10.285-11.65,13.714-29.468,13.714-29.468s7.542,3.426,9.599,12.335c0,0,11.657-11.649,14.4-28.783
		c0,0,6.855,7.539,6.17,24.671c-0.687,17.132,12.342,36.321,12.342,36.321s5.485-0.686,10.97-8.224c0,0,4.114,27.412-8.912,39.747
		c0,0,6.856,1.371,13.713-3.427C166.72,207.636,163.978,230.251,124.209,229.566z"/>
	<path fill="#FDF499" d="M123.693,223.836c-23.123-0.398-28.221-15.385-28.221-15.385s2.565-1.282,6.841-0.428
		c0,0-3.42-17.523,2.993-24.787c6.415-7.267,8.552-18.377,8.552-18.377s4.704,2.136,5.986,7.691c0,0,7.269-7.265,8.98-17.949
		c0,0,4.275,4.701,3.848,15.386c-0.428,10.684,7.696,22.651,7.696,22.651s3.42-0.429,6.842-5.13c0,0,2.565,17.096-5.558,24.788
		c0,0,4.275,0.854,8.551-2.138C150.203,210.159,148.492,224.264,123.693,223.836z"/>
</g>
</svg>
