<?xml version="1.0" encoding="utf-8"?>
<!-- Generator: Adobe Illustrator 16.0.0, SVG Export Plug-In . SVG Version: 6.00 Build 0)  -->
<!DOCTYPE svg PUBLIC "-//W3C//DTD SVG 1.1//EN" "http://www.w3.org/Graphics/SVG/1.1/DTD/svg11.dtd">
<svg version="1.1" id="Layer_1" xmlns="http://www.w3.org/2000/svg" xmlns:xlink="http://www.w3.org/1999/xlink" x="0px" y="0px"
	 width="684.53px" height="262.059px" viewBox="0 0 684.53 262.059" enable-background="new 0 0 684.53 262.059"
	 xml:space="preserve">
<path fill-rule="evenodd" clip-rule="evenodd" fill="#F0C67F" d="M-13.61,305.929c0.281,0,0.508,0.227,0.508,0.508
	c0,0.281-0.227,0.508-0.508,0.508c-0.281,0-0.509-0.227-0.509-0.508C-14.119,306.156-13.891,305.929-13.61,305.929"/>
<path fill-rule="evenodd" clip-rule="evenodd" fill="#F0C67F" d="M2.098,316.212c0.53,0,0.96,0.429,0.96,0.96
	c0,0.531-0.43,0.96-0.96,0.96c-0.53,0-0.96-0.429-0.96-0.96C1.138,316.642,1.568,316.212,2.098,316.212"/>
<path fill-rule="evenodd" clip-rule="evenodd" fill="#F0C67F" d="M-10.446,337.458c0.78,0,1.413,0.633,1.413,1.412
	c0,0.781-0.633,1.414-1.413,1.414c-0.781,0-1.414-0.633-1.414-1.414C-11.859,338.091-11.227,337.458-10.446,337.458"/>
<polygon fill-rule="evenodd" clip-rule="evenodd" fill="#718B92" points="2.362,930.701 -7.423,927.502 -10.176,935.918 
	0.657,935.918 "/>
<polygon fill-rule="evenodd" clip-rule="evenodd" fill="#566B70" points="0,931.861 -7.994,929.247 -10.175,935.918 -1.328,935.918 
	"/>
<path fill-rule="evenodd" clip-rule="evenodd" fill="#12364C" d="M219.664,77.377l-0.57,0.805l7.812,5.525l3.005,2.13l0.085,0.565
	l2.112,1.468l0.165,1.049l-0.242,0.406l6.754,4.724c-0.167,0.818-0.245,1.627-0.245,2.526v0.073h-9.356l0.081,18.877l-8.384,0.089
	h-0.569c-1.057,0-2.112-0.089-3.166-0.089h-0.087h-0.081h-1.055v-4.81c0-2.423-1.302-4.554-3.252-5.846v-1.054h-3.092h-0.655h-0.081
	h-1.955c-0.242-0.09-0.41-0.333-0.41-0.573l-1.211-11.636c-0.086-0.162,0-0.325,0.156-0.483c0.087-0.171,0.328-0.245,0.495-0.245
	h-0.167c-0.328,0-0.646-0.251-0.646-0.654l-0.736-7.082c-0.082-0.15,0-0.321,0.16-0.484c0.082-0.171,0.322-0.244,0.49-0.244h-0.168
	c-0.396,0-0.644-0.239-0.644-0.647l-0.651-6.179c-0.081-0.171,0-0.423,0.159-0.578c0.083-0.081,0.331-0.158,0.492-0.158h-0.161
	c-0.331,0-0.658-0.325-0.658-0.659l-0.241-2.273h-1.87l-0.241,2.273c0,0.406-0.329,0.659-0.651,0.659h-6.267h6.103
	c0.164-0.082,0.406,0.077,0.572,0.24c0.075,0.073,0.161,0.325,0.161,0.496l-0.569,6.261c-0.088,0.326-0.33,0.565-0.735,0.565
	l-8.463,0.073l8.299-0.073c0.242,0,0.408,0.073,0.569,0.244c0.082,0.163,0.166,0.334,0.166,0.564l-0.65,7.092
	c-0.085,0.313-0.329,0.564-0.734,0.564l-10.17,0.074l10.085-0.074c0.163,0,0.33,0.074,0.49,0.245
	c0.167,0.158,0.167,0.321,0.167,0.564l-1.059,11.392c-0.082,0.321-0.325,0.566-0.735,0.566l-14.801,0.08
	c-0.166,0-0.414-0.08-0.493-0.162c-0.163-0.163-0.242-0.321-0.242-0.564v-3.908c0-0.407,0.321-0.74,0.735-0.74h1.708l-0.085-11.876
	h-7.236l0.074,11.876h2.767c0.248,0.081,0.329,0.081,0.49,0.252c0.081,0.081,0.163,0.236,0.163,0.488v3.988
	c0,0.321-0.243,0.646-0.653,0.646h-7.483c-0.242,0-0.409-0.08-0.567-0.243v0.081c-0.16,0.162-0.327,0.162-0.488,0.162h-1.626
	c-0.248,0-0.411-0.08-0.578-0.243c-0.075,0.163-0.242,0.243-0.483,0.243l-3.42,0.09v0.809h0.739
	c-1.794,0.899-3.178,2.607-3.661,4.635c-12.449-2.361-23.433-4.878-30.997-6.834c-14.399-3.822-49.383-10.485-59.797-12.364
	l37.991,48.723h-0.075c0.646,1.07,0.888,2.212,0.725,3.351c-0.408,3.657-4.553,6.585-6.014,7.476l-1.059,5.935l312.716-1.048H585.18
	l0.078-0.899l3.421-16.27h-0.082c1.225-6.759,2.357-19.04,2.687-22.938h-4.474V97.547h-3.333l0.077,16.844l-4.557,0.081h-0.812
	h-0.33l-0.075-10.575h-0.98v10.575h-6.1v-5.868h-4.554v5.868h-1.143l-16.434,0.08l-9.437-8.948l-16.104,0.069
	c-0.161,0-0.57-0.15-0.819-0.321c-0.155-0.244-0.321-0.565-0.321-0.818l-0.075-20.977l-12.374,0.068l0.08,20.503
	c0,0.326-0.08,0.659-0.322,0.809c-0.242,0.253-0.49,0.415-0.813,0.415h-4.56c-0.565,0-1.055-0.415-1.136-0.971
	c-2.197-11.726-5.615-23.268-5.692-35.149v-6.431v-2.264h-2.202c-0.074-1.31-0.401-2.533-0.973-3.582l10.245-7.091l-0.316-0.407
	l0.24-1.048l2.032-1.464l0.085-0.565l3.015-2.122l7.886-5.534l-0.574-0.889l-8.05,5.292l-3.09,2.03l-0.489-0.082l-4.313,2.85
	l-1.792-0.171l-0.485-0.651l-0.328,0.245l-0.402-0.646l-3.577,2.443l-0.253-0.403l-0.561,0.313c0,0-0.652-0.971-1.146-1.707
	c-0.484-0.646-0.889-0.164-0.889-0.164l-0.571,0.335c-0.572,0.406-0.167,0.809-0.167,0.809l0.899,1.305l-0.814,0.565l-0.16,0.736
	l0.405,0.573l-1.384,0.971c-1.297-0.573-2.769-0.889-4.233-0.889c-5.125,0-9.433,3.971-9.843,9.021h-1.791l0.086,15.291l-3.825,0.09
	h-1.136l-0.085-20.431l-18.472,0.09l-11.63,20.422h-5.611c-0.652,0-1.143-0.484-1.143-1.143V60.032V0h-30.667v55.813v3.989v0.231
	v4.322c0,0.638-0.485,1.144-1.136,1.144h-0.415l-0.075-8.465h-12.616l0.089,8.545h-1.304l-0.081-12.534h-11.064l0.081,12.534h-1.384
	L372.77,33.61h-6.92l0.252,32.041h-1.879l-0.321-42.795l-6.915,0.09l0.404,42.705h-1.954l-0.241-32.041h-6.828l0.241,32.041h-5.937
	l0.074,9.937c0,0.646-0.559,1.13-1.139,1.13l-30.012,0.081l-0.813,9.603c-0.086,0.556-0.572,1.062-1.141,1.062h-11.963
	l-4.389,10.001l0.04,2.841v5.146l-22.083,0.071c-0.651,0-1.147-0.483-1.147-1.142v-7.806h-6.584v-0.082
	c-0.082-7.009-5.617-12.616-12.525-12.616c-3.746,0-7.166,1.708-9.442,4.396l-2.929-2.042l-0.405,0.578l-0.409-0.252l-0.404,0.654
	l-1.874,0.253l-4.231-2.935l-0.485,0.09l-3.097-2.042L219.664,77.377z"/>
<path fill-rule="evenodd" clip-rule="evenodd" fill="#12364C" d="M645.05,123.125c2.994,1.429,5.989,2.845,9.052,4.26
	c6.824,6.827,13.787,13.652,20.82,20.466c1.253,5.795,2.508,11.589,3.76,17.369c1.253,5.781,2.507,11.564,3.761,17.345
	c-0.069,0.039-0.069,0.079-0.069,0.105c0.694,3.427,1.462,6.84,2.157,10.253c-0.486,3.386-0.975,6.774-1.393,10.147
	c-3.341,5.357-6.823,10.716-10.236,16.074c-2.645,1.429-5.221,2.844-7.729,4.26h-2.297l6.128,38.655H333.661H1.87l10.515-62.283
	c2.436-0.86,4.873-1.72,7.38-2.579c0.975-5.227,1.879-10.452,2.855-15.678c-2.229-0.886-4.387-1.772-6.476-2.659
	c1.88-10.318,3.761-20.638,5.709-30.97c0-0.026,0.07-0.066,0.07-0.105c1.532-8.215,3.134-16.431,4.665-24.66h300.806H645.05z"/>
<g opacity="0.3">
	<g>
		<defs>
			<rect id="SVGID_1_" x="20.981" y="135.218" width="647.712" height="112.652"/>
		</defs>
		<clipPath id="SVGID_2_">
			<use xlink:href="#SVGID_1_"  overflow="visible"/>
		</clipPath>
		<path clip-path="url(#SVGID_2_)" fill-rule="evenodd" clip-rule="evenodd" d="M112.642,135.218h36.042
			c0.692,11.721,1.453,23.444,2.283,35.151c0.829,11.707,1.66,23.428,2.492,35.136c2.627,0.886,5.186,1.773,7.815,2.659
			l0.416,19.636c-0.621,6.694-1.313,13.387-1.866,20.069h-33.483l-0.416-19.636l1.296-11.466h-6.645l0.231,10.899
			c-0.83,6.735-1.591,13.469-2.352,20.203H90.163l-0.419-19.636c0.899-6.733,1.731-13.468,2.698-20.201
			c2.491-0.886,5.05-1.773,7.61-2.659c2.559-7.858,5.159-15.728,7.679-23.574c0.856-2.663,1.726-5.326,2.6-7.988l-0.387-18.259
			C110.844,148.778,111.742,142.006,112.642,135.218 M93.272,150.366c-3.388-5.043-6.779-10.094-9.961-15.148H37.446
			c-1.176,6.788-2.351,13.56-3.666,20.334l0.417,19.636c0.948,0.392,1.912,0.785,2.867,1.176c-0.311,1.813-0.622,3.625-0.932,5.435
			c-1.35,7.863-2.698,15.716-4.012,23.574c-2.56,0.886-5.051,1.773-7.609,2.659c-1.176,6.733-2.353,13.468-3.529,20.201
			l0.417,19.636h48.286c5.118-5.227,10.375-10.451,15.564-15.69c1.245-8.322,2.421-16.643,3.529-24.977l-0.274-12.874
			c0.661-0.669,1.326-1.339,2.004-2.009c1.106-7.435,2.075-14.87,3.181-22.318L93.272,150.366z M232.18,135.218h62.053l0.416,19.636
			c-0.069,6.402-0.205,12.819-0.345,19.209c-0.138,6.39-0.275,12.793-0.346,19.183h-13.42c-0.485-5.624-0.969-11.246-1.384-16.869
			h-6.987c-0.208,8.111-0.483,16.233-0.761,24.329c-0.057,1.678-0.114,3.355-0.171,5.033c2.256,0.814,4.594,1.619,6.88,2.425
			l0.417,19.636c-0.138,6.694-0.346,13.387-0.485,20.069H242.49l-0.417-19.636c0.278-6.681,0.554-13.375,0.899-20.069
			c2.63-0.886,5.328-1.773,7.956-2.659c0.416-8.122,0.762-16.247,1.107-24.368c0.067-1.586,0.134-3.173,0.203-4.76h-5.667
			c-0.967,5.623-1.799,11.245-2.628,16.869h-13.559l-0.417-19.636c0.346-6.39,0.659-12.795,1.038-19.183
			C231.386,148.037,231.836,141.619,232.18,135.218 M229.692,154.854c-0.345,6.402-0.796,12.818-1.177,19.209
			c-0.378,6.387-0.759,12.793-1.105,19.183h-13.491l-0.622-16.869h-6.986c-0.554,8.111-1.177,16.233-1.731,24.329
			c-0.12,1.775-0.245,3.549-0.372,5.322c1.969,0.716,4.013,1.426,5.974,2.136l0.417,19.636c-0.415,6.694-0.898,13.387-1.245,20.069
			h-35.627l-0.416-19.636c0.554-6.681,1.108-13.375,1.729-20.069c2.699-0.886,5.397-1.773,8.025-2.659
			c0.761-8.122,1.385-16.252,2.076-24.368c0.134-1.586,0.273-3.174,0.411-4.76h-4.837c-1.176,5.623-2.284,11.245-3.321,16.869
			h-13.559l-0.416-19.636c0.623-6.39,1.246-12.792,1.868-19.183c0.622-6.388,1.314-12.808,1.868-19.209h62.12L229.692,154.854z
			 M332.419,135.218c0.139,6.545,0.278,13.09,0.417,19.636c0.069,6.786,0.069,13.56,0.069,20.334
			c-2.628,0.885-5.119,1.772-7.748,2.645c0.069,7.871,0.069,15.743,0.069,23.601c0,1.313,0.003,2.626,0.005,3.939h15.144
			c0.553-4.207,1.037-8.414,1.591-12.622h13.699c0.029,1.259,0.057,2.519,0.082,3.778c0.006,0.243,0.011,0.486,0.016,0.731
			l0.401,18.905c0.072,3.36,0.134,6.721,0.193,10.082c0.021,0.662,0.044,1.323,0.066,1.986c0.138,6.546,0.277,13.09,0.416,19.636
			h-58.178l-0.414-19.636c0.067-6.733,0.137-13.468,0.275-20.201c2.351-0.886,4.703-1.773,7.124-2.659l0.208-23.574l0.037-4.196
			c-2.04-0.798-4.173-1.607-6.193-2.415l-0.415-19.636c0.138-6.774,0.208-13.546,0.276-20.334H332.419z M434.664,135.218h27.255
			c4.428,5.027,8.993,10.04,13.489,15.054c0.624,5.835,1.178,11.669,1.661,17.503l0.338,15.979c0.694,0.711,1.39,1.422,2.084,2.133
			c0.898,8.889,1.661,17.766,2.489,26.642l0.417,19.636c-4.012,5.24-8.025,10.477-11.968,15.704h-28.363
			c-4.909-5.227-9.685-10.451-14.389-15.69l-1.037-16.867l-0.404-19.057c-0.258-0.293-0.515-0.587-0.771-0.88
			c-0.554-8.453-1.039-16.907-1.593-25.374l-0.414-19.635C427.191,145.323,430.928,140.272,434.664,135.218 M415.017,135.218
			c0.623,10.861,1.246,21.709,1.868,32.557l0.416,19.636h-13.35c-0.59-2.294-1.111-4.593-1.636-6.896
			c0.144,2.885,0.276,5.768,0.389,8.652c0.115,5.402,0.229,10.804,0.344,16.206h0.486c0.414-3.228,0.897-6.455,1.245-9.697h13.766
			c0.624,10.86,1.245,21.709,1.869,32.557l0.415,19.636h-58.316l-0.024-1.14c-0.131-6.133-0.314-12.267-0.444-18.4l-0.4-18.858
			c-0.011-0.479-0.021-0.96-0.03-1.439c2.296-0.866,4.594-1.732,6.891-2.598c-0.038-1.333-0.075-2.667-0.11-4l-0.623-23.601
			c-2.282-0.873-4.637-1.76-6.918-2.645l-0.417-19.636c-0.138-6.774-0.275-13.546-0.414-20.334H415.017z M558.077,135.218h31.959
			c1.177,6.788,2.284,13.56,3.39,20.334l0.416,19.636c-1.298,0.536-2.622,1.073-3.942,1.607c0.273,1.669,0.55,3.337,0.829,5.004
			c1.313,7.857,2.559,15.716,3.874,23.574c2.421,0.886,4.979,1.773,7.472,2.659c1.106,6.733,2.212,13.468,3.318,20.201l0.417,19.636
			h-33.758l-2.906-20.203l-0.416-19.634c1.419-0.569,2.84-1.137,4.276-1.705c-0.247-1.632-0.495-3.263-0.746-4.893
			c-1.211-7.863-2.353-15.73-3.528-23.601c-2.422-0.873-4.773-1.76-7.193-2.645c-1.04-6.774-2.007-13.548-3.045-20.334
			L558.077,135.218z M547.908,135.218h-29.332l0.417,19.636c0.812,6.127,1.511,12.243,2.249,18.359h-6.788l-0.374-17.661
			c-0.763-6.774-1.591-13.546-2.422-20.334h-29.331l0.417,19.636c0.761,6.786,1.383,13.56,2.075,20.334l7.056,2.645
			c0.83,7.871,1.591,15.744,2.421,23.601l0.48,4.547c-1.774,0.683-3.494,1.368-5.256,2.051l0.417,19.634
			c0.692,6.735,1.384,13.469,2.008,20.203h31.059l-0.416-19.636c-0.798-6.476-1.533-12.954-2.325-19.43h7.186l0.399,18.863
			c0.76,6.735,1.591,13.469,2.42,20.203h31.063l-0.417-19.636c-0.971-6.733-1.938-13.468-2.836-20.201
			c-2.491-0.886-4.982-1.773-7.402-2.659c-1.107-7.858-2.145-15.717-3.252-23.574c-0.225-1.601-0.448-3.203-0.668-4.804
			c1.482-0.6,2.945-1.205,4.404-1.807l-0.416-19.636C549.843,148.778,548.876,142.006,547.908,135.218 M645.932,135.218h-45.726
			l0.416,19.636l3.527,20.334l7.265,2.645l4.15,23.601c0.298,1.693,0.596,3.388,0.896,5.082c-1.266,0.506-2.511,1.011-3.732,1.516
			l0.415,19.634c1.178,6.735,2.284,13.469,3.459,20.203h33.827l-0.415-19.636c-0.813-4.127-1.597-8.258-2.389-12.392h10.967
			c3.39-5.358,6.78-10.716,10.101-16.074l-0.416-19.635c-2.007-9.565-3.944-19.131-5.949-28.708
			C656.862,146.026,651.396,140.628,645.932,135.218"/>
	</g>
</g>
<g opacity="0.3">
	<g>
		<defs>
			<rect id="SVGID_3_" x="16.831" y="131.051" width="656.012" height="120.985"/>
		</defs>
		<clipPath id="SVGID_4_">
			<use xlink:href="#SVGID_3_"  overflow="visible"/>
		</clipPath>
		<path clip-path="url(#SVGID_4_)" fill-rule="evenodd" clip-rule="evenodd" d="M112.642,131.051h39.96l0.232,3.923
			c0.338,5.723,0.701,11.572,1.088,17.537c0.364,5.613,0.763,11.466,1.195,17.565l2.297,32.381l7.949,2.702l0.477,22.56
			l-0.017,0.455l-0.648,6.83c-0.382,3.969-0.765,7.934-1.201,13.207l-0.316,3.825h-41.38l-0.018-0.815l-0.092,0.815H86.099
			l-0.309-14.504l-3.354,3.37c-3.279,3.29-6.557,6.58-9.79,9.881l-1.225,1.253H17.335l-0.504-23.721l0.048-0.797l3.949-22.601
			l7.596-2.653l3.976-23.325l-2.294-0.941l-0.477-22.364l0.065-0.864c0.583-3.003,1.214-6.45,1.869-10.113
			c0.695-3.88,1.241-7.02,1.781-10.139l0.601-3.467h51.652l1.23,1.954c1.526,2.423,3.163,4.939,4.853,7.496
			c1.911,2.891,3.484,5.233,5.043,7.553l0.699,2.23l0.417,19.636l-0.031,0.684c-0.623,4.194-1.105,7.637-1.581,11.057
			c-0.557,4.002-1.117,8.006-1.601,11.261l-1.189,2.343l-0.745,0.742l0.159,7.474l3.884-1.349l1.957-5.991
			c1.851-5.655,3.684-11.252,5.083-15.611l2.39-7.363l-0.372-17.533l0.032-0.62l3.18-23.963H112.642z M144.767,139.385h-28.488
			l-2.178,16.411l0.38,17.933l-0.195,1.368l-2.6,7.972c-1.94,6.04-3.523,10.876-5.083,15.644l-3.234,9.901
			c-2.389,0.828-4.78,1.649-7.162,2.496c-0.549,3.929-1.007,7.448-1.464,10.962l-0.842,6.406l0.324,15.224h20.516
			c0.646-5.695,1.288-11.302,1.907-16.339l-0.313-14.763h15.542l-1.795,15.881l0.323,15.221h25.603l1.527-16.046l-0.35-16.488
			l-7.681-2.612l-2.688-37.894c-0.398-5.625-0.798-11.51-1.195-17.629L144.767,139.385z M89.53,169.673l-0.382-17.997l-4.401-6.585
			c-1.236-1.869-2.474-3.765-3.714-5.706H40.947l-1.18,6.737c-0.538,3.005-1.129,6.215-1.826,9.825l0.348,16.431l3.439,1.411
			c-1.985,11.562-3.981,23.124-5.912,34.695l-7.622,2.661l-3.053,17.471l0.322,15.086h42.488c2.833-2.879,5.712-5.769,8.593-8.661
			l4.787-4.812c0.599-4.015,1.136-7.712,1.615-11.103c0.617-4.38,1.178-8.446,1.675-12.169l-0.304-14.298l2.274-2.301
			c0.533-3.627,0.967-6.732,1.399-9.835C88.528,176.668,89.064,172.827,89.53,169.673 M232.18,131.051h-68.846l-0.33,3.809
			c-0.439,5.085-0.834,8.987-1.225,12.865l-2.494,25.494l-0.017,0.472l0.504,23.721h19.838l-0.432,5.004l-8.018,2.642l-0.254,2.732
			c-0.738,7.965-1.234,13.92-1.722,19.814l-0.024,0.303c0,7.988,0.332,16.12,0.503,24.129H213.3l0.205-3.955
			c0.218-4.231,0.518-8.803,0.817-13.374l0.428-6.663c0-7.553-0.318-15.246-0.478-22.82l-5.695-2.049l1.022-14.379l0.319,8.616
			h37.244l-0.243,5.057l-7.951,2.655l-0.146,2.829c-0.327,6.334-0.604,12.993-0.879,19.639c-0.324,7.701,0.315,16.559,0.484,24.444
			h43.687l0.083-4.085c0.067-3.251,0.155-6.62,0.241-9.989c0.086-3.32,0.173-6.65,0.244-10.08c0-7.508-0.32-15.159-0.477-22.686
			l-6.718-2.354c0.161-4.698,0.201-9.514,0.477-14.185l0.754,8.755h21.345l0.045-4.133c0.034-3.135,0.087-6.336,0.148-9.56
			l0.092-4.603l3.368,1.322l-0.194,22.028l-7.091,2.665l-0.059,2.819c-0.068,3.326-0.122,6.717-0.164,10.134
			c-0.125,11.398,0.147,22.54,0.391,33.952h130.472l-0.359-16.932c1.758,1.958,4.061,4.49,7.022,7.724
			c2.742,2.992,5.199,5.648,7.305,7.89l1.239,1.318h32.22l1.252-1.66c3.988-5.288,7.775-10.234,11.56-15.175l0.393-0.513
			l0.592-1.821l0.539,5.309c0.361,3.608,0.695,7.018,0.979,10.068l0.352,3.792h77.408l-0.5-23.478l3.378,23.478h41.601
			l-0.431-20.334c1.157,6.779,2.301,13.56,3.483,20.334h41.567l-0.506-23.884l-0.064-0.716l-1.442-7.428h8.214l1.347-2.127
			c3.271-5.171,6.544-10.347,10.008-15.932l0.617-2.263l-0.417-19.636l-0.081-0.765c-1.209-5.76-2.138-10.267-3.059-14.74
			l-2.891-13.968l-1.155-2.115l-16.378-16.19l-2.93-1.221h-49.969l0.351,16.422l-0.455-2.751c-0.638-3.845-1.232-7.381-1.722-10.204
			l-0.601-3.467h-39.701l0.412,19.395c-0.75-5.504-1.466-10.508-2.182-15.514l-0.549-3.881h-73.432l0.349,16.364l-4.203-4.671
			c-3.004-3.334-6.01-6.669-9.188-10.277l-1.248-1.416h-31.217l-12.458,16.84l-0.181,0.567l-0.998-17.407h-63.157
			c0.317,15.668,0.639,31.336,0.978,47.003l6.932,2.681l0.577,21.852l-4.209,1.587l-0.336-15.59h-21.4
			c-0.554,4.206-1.097,8.412-1.616,12.622h-7.317l-0.064-20.393l1.519-0.519v-0.017l6.224-2.109v-2.98
			c0-5.971-0.002-11.944-0.086-20.367c0-7.865-0.336-15.881-0.503-23.77H232.18z M290.169,139.385l0.328,15.513
			c-0.033,3.118-0.085,6.3-0.145,9.5l-0.397,19.191l-0.093,5.49h-5.502l-0.391-4.609c-0.25-3.034-0.484-5.916-0.665-8.386
			l-0.284-3.874h-14.899l-0.105,4.069c-0.101,3.935-0.222,8.003-0.354,12.138l-0.68,20.201l7.043,2.516l0.355,16.667l-0.393,15.901
			h-27.433l-0.327-15.388l0.016-0.396c0.227-5.496,0.457-11.003,0.737-16.714l7.954-2.665l0.144-2.822
			c0.199-3.89,0.392-8.006,0.58-12.216l0.915-21.291h-13.507l-0.597,3.467c-0.511,2.968-0.961,5.775-1.382,8.5l-0.736,4.902h-5.903
			l-0.326-15.342l0.336-6.353c0.214-4.107,0.433-8.232,0.697-12.712l0.953-15.287H290.169z M224.84,166.191
			c-0.152,2.428-0.48,5.325-0.48,7.702c-0.294,4.962-0.589,9.924-0.883,15.186h-5.556L217.3,172.21h-14.874
			c-0.835,12.22-1.732,24.435-2.586,36.653l6.253,2.257l0.351,16.518l-0.423,6.547c-0.204,3.134-0.41,6.266-0.599,9.517H177.79
			l-0.322-15.226l0.017-0.19c0.503-6.08,1.007-12.138,1.44-17.017c2.679-0.882,5.35-1.788,8.021-2.688l0.253-2.701
			c0.609-6.509,1.016-11.427,1.419-16.313l1.475-17.357h-12.751l-0.696,3.32c-0.661,3.163-1.243,6.006-1.729,8.484l-0.972,5.065
			h-6.046l-0.325-15.303l3.383-34.391h54.253l0.326,15.34C225.348,158.257,225.093,162.225,224.84,166.191 M328.686,154.935
			c0.044,4.474,0.05,10.766,0.051,17.293l-0.587,0.203l-0.004-0.015l-4.292,1.478l-2.874,0.955l0.026,3.017
			c0.034,3.944,0.053,7.868,0.061,11.773l-0.008,11.795h0.017l0.01,8.106h22.931c0.552-4.206,1.094-8.412,1.612-12.622h5.973
			c0.232,10.463,0.317,20.987,0.672,31.445l0.325,15.339h-49.874l-0.327-15.515l0.11-10.006l0.11-7.25l7.153-2.642l0.296-33.52
			l-6.278-2.436l-0.355-16.784c0.067-3.315,0.119-6.698,0.163-10.111l0.069-6.053h24.688L328.686,154.935z M460.045,139.385
			c2.542,2.867,5.276,5.901,8.002,8.927l3.37,3.745c0.28,2.659,0.528,5.121,0.741,7.369c0.212,2.229,0.466,5.129,0.766,8.69
			l0.332,15.72l1.172,2.815l1.075,1.101c0.566,5.675,1.053,11.003,1.533,16.322l0.798,8.686l0.382,18.026
			c-3.361,4.39-6.714,8.77-9.852,12.916h-24.507c-2.276-2.431-4.264-4.573-6.002-6.472c-1.559-1.701-3.626-3.986-6.117-6.757
			l-0.951-15.405l-0.401-18.894l-0.844-2.182l-0.728-11.617c-0.267-4.343-0.535-8.694-0.795-12.634l-0.383-18.041l9.111-12.315
			H460.045z M481.444,178.356l6.564,2.462c0.765,7.48,1.514,14.962,2.302,22.44l-4.841,1.892l-0.166-1.825
			c-0.553-6.094-1.107-12.188-1.679-17.845l-1.155-2.49l-0.948-0.97L481.444,178.356z M412.737,168.003l0.324,15.241h-5.856
			l-0.836-3.64l-8.204,1.107l0.391,8.619l0.43,20.21h8.2c0.414-3.235,0.846-6.464,1.278-9.697h6.156l1.646,28.618l0.322,15.241
			h-50.018l-0.377-15.454l-0.369-17.361l6.912-2.605c-0.312-11.116-0.6-22.233-0.889-33.349l-6.904-2.632l-0.687-32.916h46.834
			L412.737,168.003z M586.531,139.385l1.124,6.672l1.628,9.908l0.348,16.447l-4.374,1.775c1.883,11.419,3.735,22.844,5.644,34.258
			l2.286,0.835c1.936,0.708,3.52,1.268,5.101,1.825l0.085,0.029l2.878,17.515l0.32,15.053h-25.915l-2.366-16.449l-0.347-16.422
			l4.682-1.85l-1.246-8.166c-0.89-5.778-1.647-10.896-2.406-16.032l-1.485-10.007l-2.355-0.85l-4.846-1.792l-2.65-17.743
			l-0.317-15.006H586.531z M597.726,162.498l2.734,15.77l7.269,2.646l4.049,23.02l-3.26,1.336l0.396,18.762l-3.139-19.103
			l-7.472-2.642c-1.252-7.632-2.488-15.269-3.762-22.898l3.509-1.437L597.726,162.498z M564.987,227.341l-1.401-9.778
			c-0.521-3.687-0.999-7.121-1.391-10.069l-0.338-2.534l-7.413-2.648l-3.127-22.698l4.053-1.668l-0.391-18.487
			c0.932,6.261,1.853,12.525,2.813,18.783l7.185,2.647l0.757,5.099c0.823,5.565,1.65,11.149,2.407,16.065l0.249,1.637l-3.87,1.552
			L564.987,227.341z M546.6,155.891l0.349,16.534l-4.758,1.929l1.115,8.015c0.613,4.36,1.125,8.099,1.627,11.785l1.974,14.271
			c2.461,0.902,4.924,1.8,7.393,2.68l1.052,7.597l1.419,9.945l0.319,15.055H533.95c-0.704-5.726-1.387-11.35-1.958-16.398
			l-0.481-22.668h-15.952c0.978,8.007,1.931,16.017,2.887,24.027l0.319,15.039h-23.043l-0.621-6.341l-1.017-10.003l-0.351-16.507
			l2.523-0.996l2.986-1.148l-0.813-7.695c-0.454-4.3-0.841-8.104-1.224-11.9l-1.468-14.263l-7.046-2.643l-0.425-4.281
			c-0.459-4.654-0.919-9.314-1.381-13.433l-0.32-15.107h21.404l0.789,6.492c0.438,3.651,0.84,7.055,1.175,10.036l0.456,21.467
			h15.541l-1.127-9.43c-0.494-4.138-0.984-8.257-1.669-13.433l-0.32-15.132h21.482C545.129,145.203,545.936,150.901,546.6,155.891
			 M658.516,153.499l5.619,27.134l0.382,17.99c-2.591,4.165-5.385,8.593-8.205,13.051h-13.721l3.281,17.073l0.317,14.955h-26.084
			l-2.819-16.523l-0.348-16.375l4.206-1.693l-6.045-34.357l-7.26-2.645l-3.075-17.724l-0.319-15h39.791L658.516,153.499z"/>
	</g>
</g>
<path fill-rule="evenodd" clip-rule="evenodd" fill="#1B5879" d="M361.725,205.094c0.01,0.439,0.019,0.878,0.028,1.318l0.402,18.857
	c0.131,6.134,0.317,12.267,0.448,18.399l0.024,1.141h58.699l-0.419-19.636l-1.88-32.557h-13.857
	c-0.349,3.241-0.835,6.469-1.253,9.697h-0.488c-0.116-5.402-0.23-10.803-0.347-16.206c-0.112-2.884-0.247-5.768-0.391-8.651
	c0.528,2.302,1.052,4.601,1.645,6.895h13.439l-0.419-19.636l-1.881-32.557h-55.355l0.417,20.334l0.42,19.636
	c2.297,0.886,4.665,1.773,6.962,2.646l0.629,23.6c0.034,1.334,0.072,2.668,0.109,4.001l-6.936,2.597L361.725,205.094z
	 M332.826,172.128c-2.646,0.886-5.153,1.773-7.798,2.646c0.069,7.87,0.069,15.742,0.069,23.6c0,1.314,0.003,2.626,0.005,3.939
	h15.243c0.556-4.207,1.044-8.414,1.602-12.621h13.787c0.029,1.259,0.058,2.518,0.085,3.777l0.419,19.636
	c0.072,3.36,0.135,6.722,0.195,10.082c0.021,0.662,0.042,1.324,0.065,1.986c0.14,6.546,0.28,13.091,0.419,19.636h-58.559
	l-0.419-19.636c0.07-6.733,0.139-13.467,0.279-20.201c2.367-0.886,4.734-1.773,7.171-2.659l0.246-27.77
	c-2.053-0.798-4.2-1.607-6.233-2.415l-0.419-19.636c0.139-6.773,0.209-13.547,0.279-20.334h33.074
	c0.14,6.546,0.28,13.091,0.42,19.636C332.826,158.581,332.826,165.354,332.826,172.128 M495.759,202.921
	c-1.785,0.683-3.517,1.367-5.289,2.051l0.419,19.636c0.696,6.734,1.393,13.468,2.02,20.201h31.265l-0.421-19.636
	c-0.803-6.475-1.542-12.954-2.34-19.43h7.231l0.402,18.865c0.768,6.734,1.603,13.468,2.438,20.201h31.265l-0.419-19.636
	c-0.976-6.733-1.95-13.467-2.854-20.201c-2.508-0.886-5.015-1.773-7.451-2.659c-1.115-7.857-2.159-15.716-3.273-23.574
	c-0.226-1.601-0.449-3.202-0.671-4.804c1.491-0.6,2.963-1.203,4.434-1.807l-0.419-19.636c-0.906-6.773-1.88-13.547-2.856-20.334
	h-29.523l0.421,19.636c0.816,6.127,1.521,12.243,2.264,18.359h-6.833l-0.377-17.661c-0.766-6.773-1.602-13.547-2.438-20.334h-29.521
	l0.419,19.636c0.766,6.787,1.393,13.56,2.089,20.334l7.103,2.646c0.835,7.87,1.602,15.744,2.437,23.6L495.759,202.921z
	 M607.101,225.173l0.42,19.636h-33.979l-2.925-20.201l-0.419-19.636c1.428-0.568,2.857-1.136,4.304-1.704
	c-0.248-1.633-0.499-3.264-0.751-4.894c-1.219-7.862-2.367-15.73-3.552-23.6c-2.436-0.873-4.805-1.76-7.241-2.646
	c-1.045-6.774-2.02-13.547-3.063-20.334l-0.419-19.636h32.169c1.184,6.787,2.298,13.561,3.411,20.334l0.42,19.636
	c-1.309,0.536-2.641,1.073-3.967,1.607c0.272,1.669,0.551,3.337,0.831,5.004c1.323,7.858,2.576,15.717,3.9,23.574
	c2.438,0.886,5.013,1.773,7.521,2.659L607.101,225.173z M652.014,225.173c-0.817-4.126-1.607-8.258-2.405-12.391h11.04
	c3.412-5.359,6.824-10.717,10.167-16.074l-0.419-19.636c-2.021-9.565-3.97-19.131-5.989-28.708l-16.502-16.206h-46.026l0.419,19.636
	l3.553,20.334l7.311,2.646l4.177,23.6c0.301,1.694,0.601,3.389,0.901,5.083c-1.273,0.505-2.527,1.011-3.757,1.515l0.42,19.636
	c1.183,6.734,2.297,13.468,3.479,20.201h34.051L652.014,225.173z M476.265,147.213c0.627,5.834,1.185,11.669,1.671,17.502
	l0.342,15.977l2.096,2.134c0.905,8.891,1.671,17.768,2.506,26.644l0.421,19.636c-4.039,5.239-8.078,10.477-12.048,15.703h-28.548
	c-4.943-5.226-9.749-10.451-14.483-15.689l-1.044-16.868l-0.407-19.057c-0.259-0.293-0.519-0.587-0.776-0.88
	c-0.558-8.453-1.046-16.907-1.602-25.374l-0.419-19.635l11.278-15.148h27.436C467.143,137.185,471.738,142.199,476.265,147.213
	 M129.022,178.13h-0.478c0.134-0.408,0.268-0.818,0.403-1.227C128.971,177.312,128.997,177.722,129.022,178.13 M251.63,173.319
	l-0.204,4.758c-0.347,8.122-0.696,16.246-1.114,24.369l-8.008,2.658c-0.347,6.695-0.626,13.388-0.904,20.069l0.419,19.636h35.79
	c0.139-6.681,0.348-13.375,0.487-20.069l-0.419-19.636c-2.301-0.805-4.655-1.611-6.925-2.425c0.057-1.678,0.115-3.355,0.173-5.032
	c0.279-8.097,0.556-16.219,0.765-24.328h7.033c0.418,5.622,0.905,11.244,1.393,16.867h13.508c0.07-6.39,0.209-12.793,0.349-19.182
	c0.139-6.39,0.277-12.807,0.347-19.21l-0.42-19.636h-62.458c-0.348,6.403-0.801,12.819-1.184,19.21
	c-0.381,6.387-0.695,12.792-1.044,19.182l0.419,19.636h13.648c0.835-5.623,1.671-11.245,2.646-16.867H251.63z M226.639,190.186
	h-13.578l-0.627-16.867h-7.032c-0.558,8.109-1.184,16.231-1.741,24.328c-0.122,1.774-0.248,3.548-0.375,5.322
	c1.982,0.715,4.039,1.425,6.014,2.135l0.419,19.636c-0.418,6.694-0.905,13.388-1.253,20.069h-35.861l-0.419-19.636
	c0.557-6.681,1.115-13.374,1.741-20.069c2.716-0.885,5.431-1.772,8.077-2.658c0.767-8.123,1.394-16.252,2.089-24.369
	c0.136-1.586,0.275-3.172,0.414-4.758h-4.869c-1.183,5.622-2.298,11.244-3.342,16.867h-13.647l-0.42-19.636l1.88-19.182
	c0.627-6.389,1.323-12.807,1.881-19.21h62.527l0.419,19.636c-0.347,6.403-0.8,12.819-1.183,19.21
	C227.372,177.391,226.988,183.796,226.639,190.186 M119.106,213.707h6.687l-1.304,11.466l0.42,19.636h33.701
	c0.556-6.681,1.254-13.375,1.879-20.069l-0.419-19.636l-7.867-2.658l-2.508-35.137c-0.835-11.707-1.601-23.43-2.297-35.151h-36.277
	l-2.717,20.334l0.39,18.259c-0.88,2.662-1.757,5.324-2.618,7.988c-2.537,7.847-5.153,15.717-7.729,23.574
	c-2.576,0.886-5.153,1.773-7.659,2.659c-0.974,6.734-1.811,13.468-2.716,20.201l0.42,19.636h28.479
	c0.766-6.733,1.531-13.467,2.368-20.201L119.106,213.707z M86.824,191.269l0.275,12.874c-1.115,8.334-2.298,16.655-3.551,24.977
	c-5.223,5.238-10.514,10.463-15.668,15.689H19.278l-0.419-19.636l3.551-20.201l7.66-2.659c1.323-7.857,2.68-15.711,4.038-23.574
	c0.313-1.81,0.625-3.622,0.938-5.435c-0.959-0.391-1.93-0.784-2.886-1.176l-0.419-19.636c1.323-6.773,2.506-13.547,3.69-20.334
	h46.165c3.204,5.054,6.616,10.107,10.027,15.148l0.419,19.635c-1.113,7.449-2.088,14.884-3.202,22.319
	C88.159,189.929,87.488,190.599,86.824,191.269"/>
<g>
	<defs>
		<path id="SVGID_5_" d="M52.212,185.433h13.091c0.557,0.886,1.184,1.772,1.741,2.658c-0.626,3.811-1.184,7.621-1.741,11.43
			c-0.975,0.94-1.88,1.866-2.854,2.792H49.497C50.403,196.69,51.307,191.068,52.212,185.433 M57.157,155.005H69.83
			c0.486,0.899,1.114,1.799,1.74,2.687c-0.488,2.962-0.905,5.912-1.392,8.862c-0.836,0.9-1.741,1.786-2.578,2.673H54.859
			C55.555,164.491,56.391,159.754,57.157,155.005 M35.431,132.158c-1.183,6.787-2.366,13.56-3.689,20.333
			c2.158,0.887,4.386,1.773,6.406,2.646c-1.323,7.872-2.684,15.75-4.04,23.601c-1.358,7.864-2.715,15.718-4.038,23.575
			c-2.576,0.886-5.084,1.773-7.66,2.658c-1.183,6.734-2.367,13.469-3.551,20.203h48.603c5.153-5.227,10.444-10.452,15.667-15.69
			c1.253-8.322,2.436-16.643,3.551-24.977c-1.811-2.567-3.551-5.133-5.293-7.7c2.299-2.395,4.597-4.789,7.035-7.183
			c1.113-7.435,2.087-14.87,3.201-22.318c-3.411-5.041-6.823-10.094-10.026-15.148H35.431z M128.528,157.267
			c0.418,6.96,1.045,13.917,1.601,20.863h-8.216C124.141,171.184,126.231,164.227,128.528,157.267 M111.121,132.158
			c-0.907,6.787-1.811,13.56-2.717,20.333c1.81,0.887,3.761,1.773,5.502,2.646c-2.507,7.872-5.185,15.734-7.729,23.601
			c-2.537,7.847-5.153,15.718-7.729,23.575c-2.576,0.886-5.154,1.773-7.66,2.658c-0.974,6.734-1.81,13.469-2.716,20.203h28.479
			c0.767-6.734,1.532-13.469,2.369-20.203c-1.394-0.885-2.926-1.771-4.249-2.658c0.906-2.739,1.741-5.491,2.578-8.242h14.133
			c0.21,2.751,0.488,5.503,0.767,8.242c-1.811,0.886-3.621,1.773-5.362,2.658c-0.765,6.734-1.532,13.469-2.298,20.203h33.703
			c0.556-6.682,1.252-13.375,1.879-20.069c-2.646-0.887-5.222-1.773-7.868-2.66c-0.836-11.708-1.672-23.429-2.508-35.136
			c-0.835-11.707-1.602-23.43-2.296-35.151H111.121z M165.99,132.158c-0.557,6.403-1.254,12.821-1.88,19.209
			c-0.627,6.39-1.253,12.793-1.881,19.183h13.648c1.044-5.623,2.16-11.246,3.343-16.867h6.962
			c-0.626,8.135-1.393,16.266-2.089,24.394c-0.694,8.117-1.322,16.246-2.088,24.368c-2.646,0.887-5.362,1.773-8.078,2.66
			c-0.626,6.694-1.183,13.387-1.741,20.069h35.861c0.348-6.682,0.834-13.375,1.253-20.069c-2.576-0.927-5.291-1.853-7.8-2.792
			c0.558-8.097,1.185-16.206,1.742-24.302c0.558-8.096,1.183-16.219,1.741-24.328h7.032c0.209,5.621,0.419,11.244,0.627,16.867
			h13.579c0.348-6.39,0.73-12.794,1.113-19.183c0.382-6.391,0.836-12.806,1.184-19.209H165.99z M231.442,132.158
			c-0.348,6.403-0.801,12.818-1.184,19.209c-0.381,6.389-0.695,12.793-1.044,19.183h13.648c0.835-5.623,1.671-11.246,2.646-16.867
			h6.964c-0.349,8.135-0.699,16.272-1.046,24.394c-0.347,8.121-0.696,16.246-1.113,24.368c-2.646,0.887-5.362,1.773-8.008,2.66
			c-0.348,6.694-0.626,13.387-0.905,20.069h35.79c0.139-6.682,0.348-13.375,0.487-20.069c-2.646-0.927-5.361-1.853-7.938-2.792
			c0.209-8.097,0.488-16.206,0.767-24.302c0.278-8.096,0.556-16.219,0.765-24.328h7.034c0.416,5.621,0.904,11.244,1.392,16.867
			h13.508c0.07-6.39,0.21-12.793,0.348-19.183c0.14-6.39,0.278-12.806,0.348-19.209H231.442z M299.263,132.158
			c-0.069,6.787-0.14,13.56-0.278,20.333c2.228,0.887,4.595,1.773,6.824,2.646c-0.07,7.872-0.14,15.743-0.209,23.601
			c-0.07,7.858-0.14,15.718-0.209,23.575c-2.438,0.886-4.805,1.773-7.172,2.658c-0.14,6.734-0.209,13.469-0.279,20.203h58.559
			c-0.209-5.914-0.313-11.828-0.416-17.74c-0.104-5.913-0.21-11.829-0.349-17.742h-13.787c-0.558,4.207-1.046,8.414-1.602,12.621
			h-15.597c0-7.857-0.07-15.717-0.07-23.575s0-15.729-0.07-23.601c2.646-0.873,5.153-1.759,7.799-2.646
			c0-6.773,0-13.546-0.07-20.333H299.263z M360.121,132.158c0.138,6.787,0.278,13.56,0.418,20.333
			c2.297,0.887,4.665,1.773,6.962,2.646c0.21,7.872,0.419,15.743,0.627,23.601c0.208,7.857,0.487,15.718,0.696,23.575
			c-2.366,0.886-4.735,1.773-7.102,2.658c0.139,6.734,0.348,13.469,0.486,20.203h58.699c-0.627-10.849-1.253-21.698-1.88-32.558
			h-13.857c-0.348,3.241-0.835,6.469-1.252,9.697h-15.807c-0.208-5.398-0.487-10.795-0.627-16.206h15.598
			c-0.209-5.318-0.486-10.637-0.767-15.954h-15.458c-0.209-5.041-0.417-10.095-0.557-15.148h15.319
			c0.765,3.241,1.462,6.482,2.298,9.71h13.438c-0.626-10.848-1.253-21.695-1.881-32.557H360.121z M435.251,132.158
			c-3.758,5.054-7.519,10.107-11.278,15.148c0.556,8.466,1.044,16.921,1.601,25.373c3.83,4.354,7.799,8.692,11.768,13.031
			c7.521,1.773,15.11,3.546,22.7,5.305c0.627,0.754,1.253,1.508,1.95,2.263c0.139,2.089,0.348,4.167,0.488,6.243
			c-0.698,0.94-1.395,1.866-2.021,2.792h-13.717c-0.905-3.228-1.741-6.456-2.646-9.697h-17.338
			c0.349,5.622,0.697,11.245,1.044,16.868c4.735,5.238,9.54,10.463,14.485,15.69h28.547c3.969-5.227,8.009-10.466,12.046-15.704
			c-0.835-8.876-1.601-17.754-2.506-26.644c-3.969-4.035-7.937-8.069-11.906-12.118c-7.521-1.773-15.042-3.546-22.491-5.319
			c-0.696-0.74-1.463-1.494-2.158-2.248c-0.14-1.825-0.279-3.651-0.418-5.477c0.695-0.886,1.462-1.772,2.229-2.659h12.603
			c0.836,3.241,1.741,6.482,2.577,9.71h17.128c-0.486-5.834-1.044-11.668-1.671-17.502c-4.526-5.015-9.121-10.028-13.578-15.055
			H435.251z M519.714,132.158c0.906,6.787,1.672,13.56,2.508,20.333c1.462,0.887,2.993,1.773,4.457,2.646
			c0.625,5.014,1.252,10.015,1.879,15.016h-15.528c-0.625-5.001-1.183-10.002-1.74-15.016c1.254-0.873,2.576-1.759,3.899-2.646
			c-0.768-6.773-1.602-13.546-2.438-20.333h-29.522c0.765,6.787,1.393,13.56,2.089,20.333c2.367,0.887,4.733,1.773,7.102,2.646
			c0.835,7.872,1.603,15.745,2.438,23.601c0.835,7.858,1.672,15.718,2.508,23.575c-2.369,0.886-4.597,1.773-6.895,2.658
			c0.696,6.734,1.393,13.469,2.02,20.203h31.264c-0.836-6.734-1.602-13.469-2.437-20.203c-1.603-0.885-3.134-1.771-4.595-2.658
			c-0.629-5.398-1.323-10.795-1.882-16.206h15.667c0.696,5.411,1.394,10.808,2.09,16.206c-1.394,0.886-2.717,1.773-3.97,2.658
			c0.768,6.734,1.603,13.469,2.438,20.203h31.265c-0.976-6.734-1.95-13.469-2.854-20.203c-2.509-0.885-5.015-1.771-7.451-2.658
			c-1.115-7.857-2.159-15.717-3.273-23.575c-1.112-7.858-2.158-15.729-3.202-23.601c2.228-0.873,4.387-1.759,6.545-2.646
			c-0.905-6.773-1.88-13.546-2.855-20.333H519.714z M559.475,132.158c1.044,6.787,2.018,13.56,3.063,20.333
			c2.438,0.887,4.805,1.773,7.242,2.646c1.184,7.872,2.332,15.739,3.552,23.601c1.218,7.853,2.367,15.718,3.62,23.575
			c-2.298,0.886-4.526,1.773-6.754,2.658c0.975,6.734,1.949,13.469,2.924,20.203h33.98c-1.115-6.734-2.229-13.469-3.343-20.203
			c-2.507-0.885-5.083-1.771-7.52-2.658c-1.324-7.857-2.577-15.717-3.9-23.575c-1.322-7.858-2.576-15.729-3.829-23.601
			c2.158-0.873,4.388-1.759,6.546-2.646c-1.114-6.773-2.228-13.546-3.412-20.333H559.475z M631.611,155.005h13.021
			c0.976,0.952,1.949,1.905,2.855,2.844c0.627,3.163,1.323,6.324,1.95,9.473c-0.627,0.991-1.254,1.984-1.811,2.963h-13.162
			C633.491,165.191,632.447,160.098,631.611,155.005 M601.879,132.158c1.184,6.787,2.367,13.56,3.552,20.333
			c2.437,0.887,4.873,1.773,7.312,2.646c1.392,7.872,2.784,15.743,4.177,23.601c1.394,7.858,2.785,15.718,4.247,23.575
			c-2.297,0.886-4.524,1.773-6.684,2.658c1.184,6.734,2.297,13.469,3.481,20.203h34.049c-1.322-6.682-2.575-13.375-3.898-20.069
			c-2.577-0.887-5.153-1.773-7.591-2.66c-0.625-3.095-1.183-6.191-1.81-9.3h21.516c3.412-5.358,6.824-10.716,10.167-16.074
			c-2.021-9.564-3.971-19.13-5.989-28.707c-5.501-5.397-11.001-10.795-16.501-16.206H601.879z"/>
	</defs>
	<clipPath id="SVGID_6_">
		<use xlink:href="#SVGID_5_"  overflow="visible"/>
	</clipPath>
	
		<linearGradient id="SVGID_7_" gradientUnits="userSpaceOnUse" x1="-16.7998" y1="935.918" x2="-15.7998" y2="935.918" gradientTransform="matrix(-0.2209 -87.6925 -87.6925 0.2209 82413.9922 -1455.876)">
		<stop  offset="0" style="stop-color:#529DC2"/>
		<stop  offset="0.38" style="stop-color:#5FA4C8"/>
		<stop  offset="0.45" style="stop-color:#FFFFFF"/>
		<stop  offset="1" style="stop-color:#74B0D6"/>
	</linearGradient>
	<polygon clip-path="url(#SVGID_6_)" fill="url(#SVGID_7_)" points="18.863,226.815 18.625,132.159 670.392,130.517 670.63,225.173 
			"/>
</g>
</svg>
